<svg width="120" height="120" viewBox="0 0 120 120" fill="none" xmlns="http://www.w3.org/2000/svg">
<g id="book (1) 2" clip-path="url(#clip0_319_10040)">
<path id="Vector" d="M120.234 109.219C120.234 109.774 120.234 110.33 120.164 111.028C119.466 111.585 118.893 112.196 118.204 112.384C110.819 114.399 103.413 116.337 96.0185 118.319C93.7684 118.922 91.5369 119.594 89.2969 120.234C89.1927 120.234 89.0885 120.234 88.8568 120.173C88.4497 120.153 88.1702 120.194 87.8906 120.234C87.7148 120.234 87.5391 120.234 87.263 120.153C86.811 119.535 86.2902 119.043 86.1329 118.454C84.0497 110.649 82.0121 102.831 79.974 95.0143C77.4106 85.1826 74.8529 75.3494 72.3006 65.5148C69.5292 54.8358 66.7703 44.1536 63.9973 33.4749C63.5178 31.6285 62.9958 29.7931 62.4934 27.9526C62.4326 27.9646 62.3718 27.9766 62.3111 27.9885C62.3111 28.4157 62.3111 28.8429 62.3111 29.2701C62.311 58.6769 62.307 88.0837 62.3254 117.49C62.3262 118.691 62.0468 119.646 60.9375 120.234C40.7158 120.234 20.4941 120.234 0.234375 120.234C0.234375 86.0107 0.234375 51.7871 0.316462 17.4339C0.823558 16.3318 1.63984 16.1772 2.59118 16.1786C11.6137 16.1917 20.6363 16.1862 29.6588 16.1861C30.4681 16.1861 31.2775 16.1861 32.1463 16.1861C32.1463 11.684 32.1746 7.31622 32.1269 2.94928C32.1147 1.8257 32.4636 0.955585 33.2812 0.234375C42.4268 0.234375 51.5723 0.234375 60.8506 0.316447C62.1087 0.760014 62.3102 1.65802 62.3112 2.6766C62.3185 10.1651 62.327 17.6537 62.3428 25.1957C62.3946 25.2975 62.4388 25.3458 62.4831 25.3941C62.5173 25.297 62.5515 25.1998 62.6151 25.0255C63.246 24.6256 63.8124 24.1717 64.4544 23.9997C74.0569 21.4267 83.6692 18.8903 93.2797 16.3469C94.9283 15.9106 95.8294 16.3888 96.2997 18.0689C97.0351 20.6961 97.7147 23.3391 98.4021 25.9795C101.145 36.5153 103.871 47.0554 106.622 57.5889C110.553 72.6351 114.497 87.6778 118.444 102.72C119.015 104.893 119.636 107.053 120.234 109.219ZM36.254 37.8515C36.254 57.2868 36.254 76.7221 36.254 96.1483C43.6517 96.1483 50.8896 96.1483 58.138 96.1483C58.138 72.8094 58.138 49.5613 58.138 26.314C50.8097 26.314 43.5637 26.314 36.254 26.314C36.254 30.1276 36.254 33.8724 36.254 37.8515ZM13.9453 30.2359C10.7229 30.2359 7.50043 30.2359 4.32181 30.2359C4.32181 50.3377 4.32181 70.267 4.32181 90.1493C13.6531 90.1493 22.8907 90.1493 32.1272 90.1493C32.1272 70.1627 32.1272 50.2596 32.1272 30.2359C26.1082 30.2359 20.1439 30.2359 13.9453 30.2359ZM73.4962 46.8951C72.9554 47.0623 72.4145 47.2296 71.8313 47.4099C75.7073 62.2737 79.5477 77.0013 83.4179 91.8432C92.1937 89.5015 100.85 87.1916 109.537 84.8736C105.646 69.9507 101.805 55.2222 97.9366 40.3887C89.7758 42.567 81.7309 44.7143 73.4962 46.8951ZM4.26455 116.045C4.63215 116.11 4.99968 116.232 5.36737 116.232C13.9206 116.243 22.4739 116.241 31.0271 116.238C31.3701 116.238 31.7131 116.209 32.1145 116.19C32.1145 112.209 32.1145 108.292 32.1145 104.316C22.8123 104.316 13.5783 104.316 4.2336 104.316C4.2336 108.191 4.2336 112.008 4.26455 116.045ZM93.0176 21.4559C92.9137 20.597 92.3583 20.7925 91.8173 20.9374C85.9107 22.5198 80.0038 24.101 74.0967 25.6814C71.6606 26.3332 69.2238 26.9825 66.6817 27.6611C67.4121 30.4714 68.1126 33.1666 68.8495 36.0022C77.613 33.6638 86.279 31.3514 94.9769 29.0305C94.3095 26.4714 93.6807 24.0605 93.0176 21.4559ZM103.497 103.153C98.2021 104.571 92.9076 105.989 87.4912 107.44C88.2258 110.25 88.9375 112.973 89.6703 115.777C98.438 113.437 107.073 111.134 115.794 108.807C115.055 105.986 114.34 103.257 113.611 100.472C110.226 101.375 106.956 102.246 103.497 103.153ZM102.138 90.9875C96.2557 92.5646 90.3738 94.1417 84.4345 95.7341C85.1383 98.4192 85.8049 100.963 86.4854 103.559C95.2667 101.218 103.896 98.9179 112.608 96.5954C111.901 93.9054 111.232 91.3629 110.549 88.7649C107.737 89.5114 105.031 90.2295 102.138 90.9875ZM36.2541 11.3509C36.0819 12.2692 36.6733 12.2243 37.3008 12.2234C43.94 12.2133 50.5793 12.2179 57.2185 12.2146C57.5212 12.2145 57.8239 12.1775 58.1517 12.1561C58.1517 9.50181 58.1517 6.91063 58.1517 4.28899C50.8373 4.28899 43.5915 4.28899 36.2539 4.28899C36.2539 6.60535 36.2539 8.86251 36.2541 11.3509ZM52.6172 108.257C47.1998 108.257 41.7823 108.257 36.3141 108.257C36.3141 110.958 36.3141 113.549 36.3141 116.186C43.6191 116.186 50.8639 116.186 58.1583 116.186C58.1583 113.541 58.1583 110.95 58.1583 108.257C56.3489 108.257 54.6002 108.257 52.6172 108.257ZM29.1775 26.2421C30.1436 26.2421 31.1098 26.2421 32.1069 26.2421C32.1069 24.1857 32.1069 22.2577 32.1069 20.2845C22.7942 20.2845 13.5597 20.2845 4.29428 20.2845C4.29428 22.287 4.29428 24.2176 4.29428 26.2421C12.5556 26.2421 20.7496 26.2421 29.1775 26.2421ZM7.61877 100.255C15.7702 100.255 23.9217 100.255 32.1078 100.255C32.1078 98.1789 32.1078 96.2504 32.1078 94.2928C22.7951 94.2928 13.5596 94.2928 4.29646 94.2928C4.29646 96.2891 4.29646 98.2186 4.29646 100.255C5.37056 100.255 6.378 100.255 7.61877 100.255ZM36.2514 18.8706C36.2514 19.9559 36.2514 21.0411 36.2514 22.1568C43.6232 22.1568 50.8926 22.1568 58.1686 22.1568C58.1686 20.1606 58.1686 18.2565 58.1686 16.2856C50.8714 16.2856 43.6286 16.2856 36.2514 16.2856C36.2514 17.0988 36.2514 17.8684 36.2514 18.8706ZM85.1334 35.8124C80.062 37.1594 74.9906 38.5065 69.8512 39.8716C70.188 41.1267 70.4949 42.2697 70.8193 43.4784C79.5877 41.1355 88.2228 38.8283 96.9267 36.5027C96.6007 35.2616 96.307 34.1437 95.9826 32.9088C92.3691 33.8719 88.8424 34.812 85.1334 35.8124ZM36.2895 100.443C36.2895 101.677 36.2895 102.911 36.2895 104.189C43.628 104.189 50.8618 104.189 58.1502 104.189C58.1502 102.868 58.1502 101.608 58.1502 100.285C50.8719 100.285 43.6665 100.285 36.2895 100.443Z" fill="#052942"/>
<path id="Vector_2" d="M62.3352 25.1422C62.327 17.6537 62.3185 10.1651 62.3112 2.6766C62.3102 1.65802 62.1087 0.760014 60.9604 0.316447C80.6911 0.234375 100.445 0.234375 120.234 0.234375C120.234 36.4893 120.234 72.7442 120.234 109.109C119.636 107.053 119.015 104.893 118.444 102.72C114.497 87.6778 110.553 72.6351 106.622 57.5889C103.871 47.0554 101.145 36.5153 98.4021 25.9795C97.7147 23.3391 97.0351 20.6961 96.2997 18.0689C95.8294 16.3888 94.9283 15.9106 93.2797 16.3469C83.6692 18.8903 74.0569 21.4267 64.4544 23.9997C63.8124 24.1717 63.246 24.6256 62.5531 25.0389C62.4195 25.1337 62.3773 25.1379 62.3352 25.1422Z" fill="white"/>
<path id="Vector_3" d="M61.0474 120.234C62.0468 119.646 62.3262 118.691 62.3254 117.49C62.307 88.0837 62.311 58.6769 62.3111 29.2701C62.3111 28.843 62.3111 28.4158 62.3111 27.9886C62.3719 27.9766 62.4327 27.9646 62.4935 27.9526C62.9958 29.7931 63.5179 31.6285 63.9973 33.475C66.7703 44.1536 69.5292 54.8358 72.3007 65.5148C74.8529 75.3494 77.4106 85.1826 79.974 95.0143C82.0121 102.831 84.0497 110.649 86.133 118.454C86.2902 119.043 86.811 119.535 87.1752 120.153C78.5107 120.234 69.834 120.234 61.0474 120.234Z" fill="white"/>
<path id="Vector_4" d="M33.1714 0.234375C32.4636 0.955585 32.1147 1.8257 32.1269 2.94928C32.1746 7.31622 32.1463 11.684 32.1463 16.1861C31.2775 16.1861 30.4681 16.1861 29.6588 16.1861C20.6363 16.1862 11.6137 16.1917 2.59118 16.1786C1.63984 16.1772 0.823558 16.3318 0.316462 17.3241C0.234375 11.6523 0.234375 5.96086 0.234375 0.234375C11.1767 0.234375 22.1192 0.234375 33.1714 0.234375Z" fill="white"/>
<path id="Vector_5" d="M89.4067 120.234C91.5369 119.594 93.7685 118.922 96.0185 118.319C103.413 116.337 110.819 114.399 118.204 112.384C118.893 112.196 119.466 111.585 120.164 111.132C120.234 114.133 120.234 117.172 120.234 120.234C109.995 120.234 99.7559 120.234 89.4067 120.234Z" fill="#FEFEFE"/>
<g id="Vector_6">
<path d="M36.2539 37.7344C36.2539 33.8724 36.2539 30.1276 36.2539 26.314C43.5636 26.314 50.8096 26.314 58.1379 26.314C58.1379 49.5613 58.1379 72.8094 58.1379 96.1484C50.8895 96.1484 43.6516 96.1484 36.2539 96.1484C36.2539 76.7221 36.2539 57.2868 36.2539 37.7344Z" fill="#536C81"/>
<path d="M36.2539 37.7344C36.2539 33.8724 36.2539 30.1276 36.2539 26.314C43.5636 26.314 50.8096 26.314 58.1379 26.314C58.1379 49.5613 58.1379 72.8094 58.1379 96.1484C50.8895 96.1484 43.6516 96.1484 36.2539 96.1484C36.2539 76.7221 36.2539 57.2868 36.2539 37.7344Z" fill="white" fill-opacity="0.5"/>
</g>
<path id="Vector_7" d="M14.0625 30.2358C20.1439 30.2358 26.1081 30.2358 32.1272 30.2358C32.1272 50.2595 32.1272 70.1626 32.1272 90.1493C22.8907 90.1493 13.6531 90.1493 4.32178 90.1493C4.32178 70.267 4.32178 50.3377 4.32178 30.2358C7.5004 30.2358 10.7228 30.2358 14.0625 30.2358ZM28.2504 40.6743C28.2504 40.1665 28.253 39.6587 28.2499 39.151C28.2358 36.8368 27.6531 36.2562 25.3248 36.2549C20.5205 36.2521 15.7161 36.2485 10.9118 36.2567C8.90688 36.2601 8.22287 36.9362 8.22004 38.9103C8.21306 43.7927 8.21284 48.6752 8.22017 53.5577C8.22313 55.5328 8.93411 56.2397 10.9078 56.242C15.7122 56.2475 20.5165 56.2449 25.3209 56.2433C27.6167 56.2425 28.242 55.6302 28.2475 53.3267C28.2574 49.1864 28.2503 45.046 28.2504 40.6743Z" fill="#C7D1E0"/>
<path id="Vector_8" d="M73.5911 46.8783C81.7309 44.7142 89.7757 42.5669 97.9366 40.3887C101.805 55.2221 105.646 69.9506 109.537 84.8735C100.85 87.1915 92.1937 89.5015 83.4179 91.8432C79.5477 77.0013 75.7072 62.2737 71.8313 47.4099C72.4145 47.2295 72.9553 47.0623 73.5911 46.8783Z" fill="#B0B0B0"/>
<path id="Vector_9" d="M4.24911 115.935C4.23364 112.008 4.23364 108.191 4.23364 104.316C13.5784 104.316 22.8124 104.316 32.1145 104.316C32.1145 108.292 32.1145 112.209 32.1145 116.19C31.7131 116.209 31.3702 116.238 31.0272 116.238C22.4739 116.241 13.9207 116.243 5.36741 116.232C4.99972 116.232 4.63219 116.11 4.24911 115.935Z" fill="#C7D1E0"/>
<path id="Vector_10" d="M93.0347 21.5526C93.6806 24.0604 94.3094 26.4713 94.9768 29.0304C86.2789 31.3513 77.6129 33.6637 68.8495 36.0021C68.1125 33.1665 67.412 30.4713 66.6816 27.661C69.2237 26.9824 71.6605 26.3331 74.0966 25.6813C80.0037 24.1008 85.9106 22.5196 91.8172 20.9373C92.3582 20.7923 92.9136 20.5969 93.0347 21.5526Z" fill="#B0B0B0"/>
<path id="Vector_11" d="M103.591 103.135C106.956 102.246 110.226 101.374 113.611 100.472C114.34 103.256 115.055 105.986 115.794 108.807C107.073 111.133 98.4379 113.437 89.6703 115.776C88.9375 112.973 88.2257 110.25 87.4912 107.44C92.9075 105.989 98.2021 104.571 103.591 103.135Z" fill="#B0B0B0"/>
<path id="Vector_12" d="M102.231 90.9678C105.031 90.2297 107.737 89.5116 110.549 88.7651C111.232 91.3631 111.901 93.9056 112.608 96.5956C103.896 98.9181 95.2668 101.218 86.4855 103.559C85.805 100.963 85.1383 98.4194 84.4346 95.7343C90.3739 94.1419 96.2557 92.5648 102.231 90.9678Z" fill="#B0B0B0"/>
<g id="Vector_13">
<path d="M36.2539 11.2353C36.2538 8.86259 36.2538 6.60542 36.2538 4.28906C43.5914 4.28906 50.8372 4.28906 58.1516 4.28906C58.1516 6.9107 58.1516 9.50188 58.1516 12.1561C57.8237 12.1776 57.5211 12.2145 57.2184 12.2147C50.5792 12.218 43.9399 12.2134 37.3006 12.2235C36.6732 12.2244 36.0817 12.2693 36.2539 11.2353Z" fill="#536C81"/>
<path d="M36.2539 11.2353C36.2538 8.86259 36.2538 6.60542 36.2538 4.28906C43.5914 4.28906 50.8372 4.28906 58.1516 4.28906C58.1516 6.9107 58.1516 9.50188 58.1516 12.1561C57.8237 12.1776 57.5211 12.2145 57.2184 12.2147C50.5792 12.218 43.9399 12.2134 37.3006 12.2235C36.6732 12.2244 36.0817 12.2693 36.2539 11.2353Z" fill="white" fill-opacity="0.5"/>
</g>
<g id="Vector_14">
<path d="M52.7343 108.257C54.6001 108.257 56.3488 108.257 58.1582 108.257C58.1582 110.95 58.1582 113.541 58.1582 116.186C50.8638 116.186 43.619 116.186 36.314 116.186C36.314 113.549 36.314 110.958 36.314 108.257C41.7822 108.257 47.1996 108.257 52.7343 108.257Z" fill="#536C81"/>
<path d="M52.7343 108.257C54.6001 108.257 56.3488 108.257 58.1582 108.257C58.1582 110.95 58.1582 113.541 58.1582 116.186C50.8638 116.186 43.619 116.186 36.314 116.186C36.314 113.549 36.314 110.958 36.314 108.257C41.7822 108.257 47.1996 108.257 52.7343 108.257Z" fill="white" fill-opacity="0.5"/>
</g>
<path id="Vector_15" d="M29.0604 26.2422C20.7495 26.2422 12.5555 26.2422 4.29419 26.2422C4.29419 24.2177 4.29419 22.2871 4.29419 20.2847C13.5596 20.2847 22.7941 20.2847 32.1068 20.2847C32.1068 22.2578 32.1068 24.1859 32.1068 26.2422C31.1097 26.2422 30.1435 26.2422 29.0604 26.2422Z" fill="#C7D1E0"/>
<path id="Vector_16" d="M7.50203 100.256C6.37792 100.256 5.37048 100.256 4.29639 100.256C4.29639 98.2187 4.29639 96.2892 4.29639 94.293C13.5595 94.293 22.795 94.293 32.1078 94.293C32.1078 96.2506 32.1078 98.1791 32.1078 100.256C23.9216 100.256 15.7702 100.256 7.50203 100.256Z" fill="#C7D1E0"/>
<g id="Vector_17">
<path d="M36.2515 18.7544C36.2515 17.8685 36.2515 17.0989 36.2515 16.2856C43.6287 16.2856 50.8715 16.2856 58.1687 16.2856C58.1687 18.2566 58.1687 20.1607 58.1687 22.1569C50.8927 22.1569 43.6233 22.1569 36.2515 22.1569C36.2515 21.0412 36.2515 19.956 36.2515 18.7544Z" fill="#536C81"/>
<path d="M36.2515 18.7544C36.2515 17.8685 36.2515 17.0989 36.2515 16.2856C43.6287 16.2856 50.8715 16.2856 58.1687 16.2856C58.1687 18.2566 58.1687 20.1607 58.1687 22.1569C50.8927 22.1569 43.6233 22.1569 36.2515 22.1569C36.2515 21.0412 36.2515 19.956 36.2515 18.7544Z" fill="white" fill-opacity="0.5"/>
</g>
<path id="Vector_18" d="M85.2244 35.7821C88.8423 34.8119 92.3691 33.8719 95.9825 32.9087C96.3069 34.1436 96.6006 35.2616 96.9266 36.5026C88.2227 38.8282 79.5876 41.1354 70.8192 43.4783C70.4948 42.2697 70.188 41.1266 69.8511 39.8715C74.9905 38.5064 80.0619 37.1594 85.2244 35.7821Z" fill="#B0B0B0"/>
<g id="Vector_19">
<path d="M36.3753 100.364C43.6665 100.285 50.872 100.285 58.1502 100.285C58.1502 101.608 58.1502 102.868 58.1502 104.19C50.8618 104.19 43.628 104.19 36.2896 104.19C36.2896 102.911 36.2896 101.677 36.3753 100.364Z" fill="#536C81"/>
<path d="M36.3753 100.364C43.6665 100.285 50.872 100.285 58.1502 100.285C58.1502 101.608 58.1502 102.868 58.1502 104.19C50.8618 104.19 43.628 104.19 36.2896 104.19C36.2896 102.911 36.2896 101.677 36.3753 100.364Z" fill="white" fill-opacity="0.5"/>
</g>
<path id="Vector_20" d="M62.3428 25.1959C62.3773 25.1381 62.4194 25.1339 62.5237 25.1162C62.5515 25.1999 62.5173 25.2971 62.4831 25.3943C62.4388 25.346 62.3946 25.2977 62.3428 25.1959Z" fill="#040404"/>
<path id="Vector_21" d="M28.2504 40.7898C28.2504 45.0458 28.2575 49.1862 28.2476 53.3265C28.2421 55.6301 27.6168 56.2423 25.321 56.2431C20.5166 56.2447 15.7123 56.2473 10.9079 56.2418C8.93421 56.2395 8.22323 55.5326 8.22027 53.5575C8.21295 48.675 8.21316 43.7925 8.22015 38.9101C8.22297 36.936 8.90699 36.2599 10.9119 36.2565C15.7162 36.2484 20.5206 36.2519 25.3249 36.2547C27.6532 36.2561 28.2359 36.8366 28.25 39.1508C28.2531 39.6585 28.2505 40.1663 28.2504 40.7898ZM12.2154 41.1762C12.2154 44.8322 12.2154 48.4882 12.2154 52.1858C16.266 52.1858 20.1866 52.1858 24.1474 52.1858C24.1474 48.2048 24.1474 44.2867 24.1474 40.2664C20.3044 40.2664 16.5281 40.2569 12.7523 40.2955C12.5712 40.2973 12.3945 40.7226 12.2154 41.1762Z" fill="#020202"/>
<path id="Vector_22" d="M12.2155 41.0637C12.3944 40.7228 12.5712 40.2976 12.7522 40.2957C16.528 40.2572 20.3043 40.2666 24.1473 40.2666C24.1473 44.287 24.1473 48.205 24.1473 52.186C20.1865 52.186 16.2659 52.186 12.2153 52.186C12.2153 48.4885 12.2153 44.8325 12.2155 41.0637Z" fill="#B2B2B2"/>
</g>
<defs>
<clipPath id="clip0_319_10040">
<rect width="120" height="120" fill="white"/>
</clipPath>
</defs>
</svg>
