<svg width="120" height="120" viewBox="0 0 120 120" fill="none" xmlns="http://www.w3.org/2000/svg">
<g id="Group 2">
<g id="Group 1">
<path id="Vector" d="M3.43273 0.016239C3.87803 0.0109062 3.87803 0.0109062 4.33399 0.0055733C4.82195 0.0109062 4.82195 0.0109062 5.3179 0.0135726C5.66454 0.0135726 6.01118 0.0109062 6.36848 0.00823974C7.3284 0.00290687 8.29098 0.0055733 9.2509 0.0109062C10.2881 0.0135726 11.3254 0.00823974 12.3626 0.0055733C14.3945 -0.002426 16.4236 0.000240432 18.4554 0.00290687C20.106 0.0055733 21.7565 0.00823974 23.407 0.0055733C23.6417 0.0055733 23.8763 0.0055733 24.1163 0.0055733C24.5936 0.0055733 25.0709 0.00290687 25.5482 0.00290687C30.0224 0.000240432 34.494 0.0055733 38.9683 0.0109062C42.808 0.016239 46.6477 0.016239 50.4873 0.0109062C54.9429 0.00290687 59.4012 0.000240433 63.8568 0.0055733C64.3315 0.0055733 64.8088 0.0055733 65.2834 0.0055733C65.518 0.0055733 65.75 0.0055733 65.9927 0.0055733C67.6405 0.00823974 69.2884 0.0055733 70.9362 0.00290687C72.9467 -0.002426 74.9546 0.000240433 76.9624 0.0055733C77.989 0.0109062 79.0129 0.0109062 80.0394 0.00823974C81.1487 0.00290687 82.2606 0.00823974 83.3698 0.0135726C83.6951 0.0109062 84.0204 0.00823974 84.3564 0.0055733C84.6524 0.00823974 84.951 0.0135726 85.255 0.016239C85.6416 0.016239 85.6416 0.016239 86.0336 0.016239C87.0602 0.258885 87.4468 0.680182 88.0734 1.51744C88.2041 2.24271 88.2521 2.80266 88.2387 3.52527C88.2387 3.72792 88.2414 3.9279 88.2441 4.13588C88.2467 4.81049 88.2414 5.4851 88.2334 6.16237C88.2361 6.65033 88.2361 7.13829 88.2387 7.62625C88.2414 8.97013 88.2361 10.314 88.2281 11.6579C88.2227 13.1058 88.2254 14.5563 88.2254 16.0042C88.2254 18.5133 88.2227 21.0251 88.2147 23.5342C88.2041 27.1632 88.2014 30.7922 88.1987 34.4213C88.1961 40.3088 88.1881 46.1962 88.1747 52.0864C88.1614 57.8059 88.1534 63.5254 88.1481 69.2449C88.1481 69.4236 88.1481 69.5996 88.1481 69.7809C88.1454 71.7274 88.1427 73.6739 88.1401 75.6177C88.1267 90.2938 88.1027 104.967 88.0734 119.641C77.125 119.67 66.1766 119.694 55.2256 119.707C53.935 119.71 52.6418 119.713 51.3513 119.713C51.0926 119.715 50.8366 119.715 50.57 119.715C46.4024 119.721 42.2347 119.731 38.0697 119.742C33.7928 119.755 29.5185 119.763 25.2442 119.766C22.6044 119.769 19.9673 119.774 17.3275 119.785C15.5197 119.793 13.7118 119.793 11.904 119.793C10.8588 119.79 9.81618 119.793 8.77094 119.801C7.81635 119.806 6.8591 119.806 5.90452 119.801C5.39523 119.801 4.88327 119.806 4.37398 119.811C4.07268 119.809 3.7687 119.806 3.45673 119.803C3.19542 119.806 2.93411 119.806 2.6648 119.806C1.63289 119.569 1.24359 119.15 0.614309 118.307C0.483654 117.59 0.435658 117.038 0.446323 116.324C0.446323 116.124 0.443657 115.926 0.44099 115.721C0.435658 115.054 0.440991 114.388 0.446323 113.721C0.443657 113.241 0.440991 112.758 0.438324 112.276C0.432991 110.951 0.435658 109.625 0.44099 108.298C0.443657 106.868 0.438324 105.439 0.435658 104.01C0.430325 101.21 0.430325 98.4077 0.435658 95.608C0.438324 93.3308 0.438324 91.0564 0.435658 88.7792C0.435658 88.4566 0.435658 88.134 0.435658 87.8007C0.435658 87.142 0.435658 86.4861 0.435658 85.8275C0.430325 79.66 0.435658 73.4926 0.443657 67.3278C0.44899 62.0322 0.446323 56.7367 0.44099 51.4438C0.432991 45.2977 0.430325 39.1542 0.435658 33.0081C0.435658 32.3548 0.435658 31.6988 0.435658 31.0429C0.435658 30.7229 0.435658 30.4003 0.438324 30.067C0.438324 27.7952 0.435658 25.5207 0.432991 23.2462C0.430325 20.4758 0.430325 17.7054 0.438324 14.9376C0.440991 13.5217 0.443657 12.1085 0.438324 10.6953C0.432991 9.40209 0.435658 8.10887 0.443657 6.81565C0.443657 6.34636 0.443657 5.87707 0.44099 5.40777C0.435658 4.77316 0.440991 4.13855 0.446323 3.50127C0.443657 3.31729 0.440991 3.1333 0.438324 2.94665C0.456989 1.96807 0.60631 1.52811 1.19826 0.736177C2.04085 0.117564 2.40349 0.016239 3.43273 0.016239ZM7.01376 4.45052C7.01376 5.8584 7.01376 7.26628 7.01376 8.71682C11.2374 8.71682 15.461 8.71682 19.8126 8.71682C19.8126 7.30894 19.8126 5.90106 19.8126 4.45052C15.589 4.45052 11.3654 4.45052 7.01376 4.45052ZM71.0082 4.45052C71.0082 5.8584 71.0082 7.26628 71.0082 8.71682C72.4161 8.71682 73.824 8.71682 75.2745 8.71682C75.2745 7.30894 75.2745 5.90106 75.2745 4.45052C73.8666 4.45052 72.4588 4.45052 71.0082 4.45052ZM79.5408 4.45052C79.5408 5.8584 79.5408 7.26628 79.5408 8.71682C80.9487 8.71682 82.3566 8.71682 83.8071 8.71682C83.8071 7.30894 83.8071 5.90106 83.8071 4.45052C82.3992 4.45052 80.9914 4.45052 79.5408 4.45052ZM42.4587 5.5011C42.28 5.58376 42.1014 5.66642 41.9174 5.75174C41.3308 6.02639 40.7468 6.3037 40.1602 6.58367C39.3283 6.97564 38.4937 7.36494 37.6564 7.75424C37.4431 7.85556 37.2271 7.95689 37.0058 8.05821C35.446 8.78881 33.8781 9.49009 32.2996 10.178C31.9716 10.322 31.9716 10.322 31.6356 10.4713C30.7797 10.8446 29.9211 11.2179 29.0625 11.5886C28.4706 11.8446 27.8786 12.1032 27.2893 12.3618C27.1134 12.4365 26.94 12.5112 26.7587 12.5885C25.3535 13.2098 25.3535 13.2098 24.3456 14.3163C24.1189 16.0335 24.4096 17.772 24.6976 19.4652C24.7349 19.6919 24.7749 19.9212 24.8122 20.1558C24.8922 20.6331 24.9722 21.1131 25.0549 21.5904C25.1775 22.305 25.2922 23.0223 25.4095 23.7369C26.1001 27.8992 27.1827 31.8722 29.2118 35.5972C29.3372 35.8318 29.4625 36.0665 29.5931 36.3091C30.689 38.3036 31.9263 40.0581 33.4115 41.7806C33.7368 42.1646 33.7368 42.1646 34.0674 42.5566C35.5713 44.2791 37.1951 45.735 39.011 47.1135C39.307 47.3401 39.307 47.3401 39.6109 47.5721C40.2802 48.0841 40.9548 48.5907 41.6268 49.0973C41.8454 49.26 42.0614 49.4253 42.2854 49.5933C43.8426 50.7772 43.8426 50.7772 45.6771 51.3798C46.3464 51.1638 46.3464 51.1638 46.9596 50.6972C47.3383 50.4332 47.3383 50.4332 47.7249 50.1666C48.0209 49.9479 48.3168 49.7319 48.6102 49.5133C48.7835 49.3853 48.9568 49.26 49.1354 49.1293C58.3187 42.3912 63.6729 34.1466 65.4754 22.8329C65.5447 22.417 65.614 22.0037 65.6833 21.5877C66.3766 17.972 66.3766 17.972 66.4753 14.3163C65.6194 13.1724 64.4061 12.7191 63.1369 12.1592C62.9103 12.0579 62.6863 11.9565 62.4516 11.8499C61.7184 11.5192 60.9798 11.1939 60.2438 10.866C59.7372 10.6393 59.2279 10.4127 58.7213 10.186C57.7027 9.73273 56.6841 9.27944 55.6629 8.82881C54.551 8.33552 53.4391 7.8369 52.3298 7.33827C51.5992 7.0103 50.866 6.68233 50.1327 6.35969C49.7994 6.21037 49.4661 6.06105 49.1328 5.90906C48.6715 5.70108 48.2102 5.49843 47.7489 5.29578C47.4956 5.18379 47.2423 5.0718 46.9783 4.95448C45.2851 4.43186 44.0079 4.7465 42.4587 5.5011ZM7.01376 12.9831C7.01376 14.391 7.01376 15.7989 7.01376 17.2494C9.82951 17.2494 12.6453 17.2494 15.5464 17.2494C15.5464 15.8415 15.5464 14.4337 15.5464 12.9831C12.7306 12.9831 9.91484 12.9831 7.01376 12.9831ZM8.7976 60.5443C7.09642 62.6828 6.97376 65.048 6.96843 67.6664C6.96843 67.8957 6.96843 68.1224 6.96576 68.357C6.96576 68.837 6.96576 69.3169 6.96576 69.7969C6.96309 70.5221 6.96043 71.2501 6.95509 71.9753C6.88843 76.9669 6.88843 76.9669 9.31756 81.1692C11.5334 83.1957 14.0238 83.417 16.9009 83.4224C17.1302 83.4224 17.3569 83.4224 17.5915 83.425C18.0715 83.425 18.5514 83.425 19.0314 83.425C19.7593 83.4277 20.4846 83.4304 21.2125 83.4357C26.0574 83.4997 26.0574 83.4997 30.2118 81.2439C31.5983 79.7267 32.3636 78.2948 32.5129 76.2283C32.5449 75.7697 32.5769 75.3137 32.6115 74.8444C31.2037 74.8444 29.7958 74.8444 28.3452 74.8444C28.3239 75.2124 28.3026 75.5804 28.2786 75.9617C28.1533 77.1189 27.868 77.7482 27.012 78.5775C26.3641 78.9001 25.9401 78.8841 25.2148 78.8921C24.9535 78.8948 24.6922 78.8974 24.4202 78.9028C24.1349 78.9028 23.8523 78.9054 23.559 78.9081C23.2657 78.9108 22.975 78.9108 22.6737 78.9134C22.0551 78.9188 21.4338 78.9214 20.8152 78.9214C19.8686 78.9268 18.9247 78.9401 17.9781 78.9508C17.3755 78.9534 16.7756 78.9561 16.1756 78.9561C15.7517 78.9641 15.7517 78.9641 15.317 78.9721C13.3492 78.9667 13.3492 78.9668 12.3093 78.3375C11.5787 77.5109 11.512 77.0576 11.5014 75.9803C11.496 75.719 11.4934 75.4551 11.4907 75.1857C11.488 74.9004 11.4854 74.6151 11.4827 74.3218C11.4827 74.0312 11.48 73.7379 11.4774 73.4366C11.4747 72.8179 11.472 72.1993 11.4694 71.5807C11.464 70.6341 11.4534 69.6875 11.44 68.741C11.4374 68.141 11.4347 67.5411 11.4347 66.9385C11.4294 66.6558 11.424 66.3732 11.4187 66.0825C11.4267 64.1147 11.4267 64.1147 12.0533 63.0721C13.1386 62.1149 14.2078 62.2535 15.5917 62.2269C15.8317 62.2215 16.0743 62.2162 16.325 62.2109C17.0982 62.1922 17.8715 62.1789 18.6474 62.1629C19.17 62.1495 19.6953 62.1389 20.2206 62.1282C21.5058 62.0989 22.7937 62.0722 24.0789 62.0455C24.0789 60.6377 24.0789 59.2298 24.0789 57.7792C22.7617 57.7659 21.4418 57.7552 20.1246 57.7499C19.6767 57.7472 19.2314 57.7446 18.7834 57.7392C13.2719 57.6299 13.2719 57.6299 8.7976 60.5443ZM41.1441 57.7792C41.1441 59.1871 41.1441 60.595 41.1441 62.0455C51.7032 62.0455 62.2623 62.0455 73.1414 62.0455C73.1414 60.6377 73.1414 59.2298 73.1414 57.7792C62.5823 57.7792 52.0232 57.7792 41.1441 57.7792ZM32.8782 58.8458C32.3796 59.3791 31.9103 59.9177 31.4463 60.4777C31.1557 60.8243 30.865 61.1683 30.5717 61.5149C30.4251 61.6909 30.2757 61.8696 30.1211 62.0509C29.4465 62.8535 28.7639 63.6507 28.0786 64.4453C27.8146 64.7546 27.5506 65.0613 27.2867 65.3706C26.7294 66.0212 26.1721 66.6691 25.6148 67.3198C25.4708 67.4851 25.3295 67.6531 25.1829 67.8237C24.9109 68.1384 24.6416 68.453 24.3723 68.7676C23.5537 69.7196 22.7484 70.6795 21.9458 71.6447C20.2366 70.2395 18.6981 68.6876 17.1462 67.1118C16.8556 67.3491 16.5676 67.5891 16.2796 67.829C16.1196 67.9624 15.9596 68.093 15.7917 68.2317C15.197 68.789 14.7171 69.4049 14.2131 70.0449C15.1144 70.9514 16.0156 71.858 16.9196 72.7646C17.2262 73.0713 17.5328 73.3806 17.8395 73.6899C18.2794 74.1325 18.7194 74.5751 19.162 75.0178C19.298 75.1564 19.4367 75.2951 19.578 75.439C20.5699 76.4443 20.5699 76.4443 21.8951 76.7936C23.183 76.6683 23.8176 75.943 24.6496 74.9911C24.8362 74.7564 25.0229 74.5218 25.2122 74.2765C26.0094 73.2846 26.82 72.3193 27.6786 71.3781C28.5106 70.4662 29.3025 69.5356 30.0784 68.5783C31.0383 67.3918 32.0409 66.2585 33.0702 65.1306C34.1127 63.9574 35.094 62.7361 36.0779 61.5123C35.262 60.4857 34.494 59.6058 33.4115 58.8458C33.2355 58.8458 33.0595 58.8458 32.8782 58.8458ZM41.1441 68.445C41.1441 69.8529 41.1441 71.2607 41.1441 72.7113C44.6638 72.7113 48.1835 72.7113 51.8099 72.7113C51.8099 71.3034 51.8099 69.8955 51.8099 68.445C48.2902 68.445 44.7705 68.445 41.1441 68.445ZM56.0762 68.445C56.0762 69.8529 56.0762 71.2607 56.0762 72.7113C61.7077 72.7113 67.3392 72.7113 73.1414 72.7113C73.1414 71.3034 73.1414 69.8955 73.1414 68.445C67.5099 68.445 61.8783 68.445 56.0762 68.445ZM8.7976 92.5416C7.09642 94.6801 6.97376 97.0452 6.96843 99.6636C6.96843 99.8929 6.96843 100.12 6.96576 100.354C6.96576 100.834 6.96576 101.314 6.96576 101.794C6.96309 102.519 6.96043 103.247 6.95509 103.973C6.88843 108.964 6.88843 108.964 9.31756 113.166C11.5334 115.193 14.0238 115.414 16.9009 115.42C17.1302 115.42 17.3569 115.42 17.5915 115.422C18.0715 115.422 18.5514 115.422 19.0314 115.422C19.7593 115.425 20.4846 115.428 21.2125 115.433C26.0574 115.497 26.0574 115.497 30.2118 113.241C31.5983 111.724 32.3636 110.292 32.5129 108.226C32.5449 107.767 32.5769 107.311 32.6115 106.842C31.2037 106.842 29.7958 106.842 28.3452 106.842C28.3239 107.21 28.3026 107.578 28.2786 107.959C28.1533 109.116 27.868 109.745 27.012 110.575C26.3641 110.897 25.9401 110.881 25.2148 110.889C24.9535 110.892 24.6922 110.895 24.4202 110.9C24.1349 110.9 23.8523 110.903 23.559 110.905C23.2657 110.908 22.975 110.908 22.6737 110.911C22.0551 110.916 21.4338 110.919 20.8152 110.919C19.8686 110.924 18.9247 110.937 17.9781 110.948C17.3755 110.951 16.7756 110.953 16.1756 110.953C15.7517 110.961 15.7517 110.961 15.317 110.969C13.3492 110.964 13.3492 110.964 12.3093 110.335C11.5787 109.508 11.512 109.055 11.5014 107.978C11.496 107.716 11.4934 107.452 11.4907 107.183C11.488 106.898 11.4854 106.612 11.4827 106.319C11.4827 106.028 11.48 105.735 11.4774 105.434C11.4747 104.815 11.472 104.197 11.4694 103.578C11.464 102.631 11.4534 101.685 11.44 100.738C11.4374 100.138 11.4347 99.5383 11.4347 98.9357C11.4294 98.6531 11.424 98.3704 11.4187 98.0798C11.4267 96.1119 11.4267 96.1119 12.0533 95.0694C13.1386 94.1121 14.2078 94.2508 15.5917 94.2241C15.8317 94.2188 16.0743 94.2134 16.325 94.2081C17.0982 94.1894 17.8715 94.1761 18.6474 94.1601C19.17 94.1468 19.6953 94.1361 20.2206 94.1254C21.5058 94.0961 22.7937 94.0694 24.0789 94.0428C24.0789 92.6349 24.0789 91.227 24.0789 89.7765C22.7617 89.7632 21.4418 89.7525 20.1246 89.7471C19.6767 89.7445 19.2314 89.7418 18.7834 89.7365C13.2719 89.6272 13.2719 89.6272 8.7976 92.5416ZM41.1441 89.7765C41.1441 91.1844 41.1441 92.5922 41.1441 94.0428C51.7032 94.0428 62.2623 94.0428 73.1414 94.0428C73.1414 92.6349 73.1414 91.227 73.1414 89.7765C62.5823 89.7765 52.0232 89.7765 41.1441 89.7765ZM32.8782 90.8431C32.3796 91.3763 31.9103 91.915 31.4463 92.4749C31.1557 92.8215 30.865 93.1655 30.5717 93.5122C30.4251 93.6881 30.2757 93.8668 30.1211 94.0481C29.4465 94.8507 28.7639 95.648 28.0786 96.4426C27.8146 96.7519 27.5506 97.0585 27.2867 97.3678C26.7294 98.0184 26.1721 98.6664 25.6148 99.317C25.4708 99.4823 25.3295 99.6503 25.1829 99.8209C24.9109 100.136 24.6416 100.45 24.3723 100.765C23.5537 101.717 22.7484 102.677 21.9458 103.642C20.2366 102.237 18.6981 100.685 17.1462 99.109C16.8556 99.3463 16.5676 99.5863 16.2796 99.8263C16.1196 99.9596 15.9596 100.09 15.7917 100.229C15.197 100.786 14.7171 101.402 14.2131 102.042C15.1144 102.949 16.0156 103.855 16.9196 104.762C17.2262 105.068 17.5328 105.378 17.8395 105.687C18.2794 106.13 18.7194 106.572 19.162 107.015C19.298 107.154 19.4367 107.292 19.578 107.436C20.5699 108.442 20.5699 108.442 21.8951 108.791C23.183 108.666 23.8176 107.94 24.6496 106.988C24.8362 106.754 25.0229 106.519 25.2122 106.274C26.0094 105.282 26.82 104.317 27.6786 103.375C28.5106 102.463 29.3025 101.533 30.0784 100.576C31.0383 99.389 32.0409 98.2558 33.0702 97.1278C34.1127 95.9546 35.094 94.7334 36.0779 93.5095C35.262 92.4829 34.494 91.603 33.4115 90.8431C33.2355 90.8431 33.0595 90.8431 32.8782 90.8431ZM41.1441 100.442C41.1441 101.85 41.1441 103.258 41.1441 104.709C44.6638 104.709 48.1835 104.709 51.8099 104.709C51.8099 103.301 51.8099 101.893 51.8099 100.442C48.2902 100.442 44.7705 100.442 41.1441 100.442ZM56.0762 100.442C56.0762 101.85 56.0762 103.258 56.0762 104.709C61.7077 104.709 67.3392 104.709 73.1414 104.709C73.1414 103.301 73.1414 101.893 73.1414 100.442C67.5099 100.442 61.8783 100.442 56.0762 100.442Z" fill="#052942"/>
<g id="Vector_2">
<path d="M92.3403 5.51709C94.0335 5.68774 95.676 5.87173 97.3452 6.1677C97.6705 6.22636 97.6705 6.22636 98.0012 6.28236C98.7078 6.40768 99.4144 6.53034 100.121 6.65566C100.614 6.74365 101.11 6.83164 101.606 6.91964C102.638 7.10095 103.67 7.28494 104.705 7.46892C106.027 7.70357 107.35 7.93555 108.672 8.16753C109.693 8.34618 110.715 8.5275 111.733 8.70881C112.221 8.79681 112.709 8.88213 113.197 8.96746C113.88 9.08478 114.56 9.20744 115.24 9.33009C115.44 9.36476 115.64 9.39675 115.848 9.43408C117.248 9.69006 118.258 10.0714 119.239 11.1166C120.143 13.5271 118.946 16.9561 118.517 19.4599C118.437 19.9238 118.357 20.3878 118.279 20.8518C118.063 22.1183 117.847 23.3875 117.631 24.6541C117.399 26.0166 117.168 27.3819 116.936 28.7444C116.432 31.7068 115.925 34.6692 115.421 37.6343C115.106 39.4768 114.792 41.322 114.477 43.1645C114.37 43.7831 114.266 44.4017 114.16 45.0203C114.109 45.327 114.056 45.6336 114.002 45.9509C113.355 49.7453 112.707 53.5396 112.059 57.3339C110.784 64.808 109.515 72.2793 108.254 79.7533C108.203 80.044 108.155 80.3346 108.104 80.6333C108.056 80.9239 108.006 81.2145 107.958 81.5105C107.342 85.1609 106.72 88.8112 106.102 92.4589C105.606 95.384 105.113 98.3064 104.622 101.231C104.289 103.223 103.95 105.215 103.611 107.204C103.417 108.348 103.222 109.489 103.033 110.633C102.859 111.676 102.683 112.716 102.502 113.758C102.438 114.134 102.374 114.51 102.313 114.886C102.23 115.398 102.142 115.908 102.051 116.417C102.003 116.702 101.955 116.985 101.908 117.275C101.633 118.171 101.241 118.694 100.606 119.374C98.1398 120.606 95.0974 119.641 92.3403 119.641C92.3403 81.9798 92.3403 44.3191 92.3403 5.51709Z" fill="#7A8EA1"/>
<path d="M92.3403 5.51709C94.0335 5.68774 95.676 5.87173 97.3452 6.1677C97.6705 6.22636 97.6705 6.22636 98.0012 6.28236C98.7078 6.40768 99.4144 6.53034 100.121 6.65566C100.614 6.74365 101.11 6.83164 101.606 6.91964C102.638 7.10095 103.67 7.28494 104.705 7.46892C106.027 7.70357 107.35 7.93555 108.672 8.16753C109.693 8.34618 110.715 8.5275 111.733 8.70881C112.221 8.79681 112.709 8.88213 113.197 8.96746C113.88 9.08478 114.56 9.20744 115.24 9.33009C115.44 9.36476 115.64 9.39675 115.848 9.43408C117.248 9.69006 118.258 10.0714 119.239 11.1166C120.143 13.5271 118.946 16.9561 118.517 19.4599C118.437 19.9238 118.357 20.3878 118.279 20.8518C118.063 22.1183 117.847 23.3875 117.631 24.6541C117.399 26.0166 117.168 27.3819 116.936 28.7444C116.432 31.7068 115.925 34.6692 115.421 37.6343C115.106 39.4768 114.792 41.322 114.477 43.1645C114.37 43.7831 114.266 44.4017 114.16 45.0203C114.109 45.327 114.056 45.6336 114.002 45.9509C113.355 49.7453 112.707 53.5396 112.059 57.3339C110.784 64.808 109.515 72.2793 108.254 79.7533C108.203 80.044 108.155 80.3346 108.104 80.6333C108.056 80.9239 108.006 81.2145 107.958 81.5105C107.342 85.1609 106.72 88.8112 106.102 92.4589C105.606 95.384 105.113 98.3064 104.622 101.231C104.289 103.223 103.95 105.215 103.611 107.204C103.417 108.348 103.222 109.489 103.033 110.633C102.859 111.676 102.683 112.716 102.502 113.758C102.438 114.134 102.374 114.51 102.313 114.886C102.23 115.398 102.142 115.908 102.051 116.417C102.003 116.702 101.955 116.985 101.908 117.275C101.633 118.171 101.241 118.694 100.606 119.374C98.1398 120.606 95.0974 119.641 92.3403 119.641C92.3403 81.9798 92.3403 44.3191 92.3403 5.51709Z" fill="black" fill-opacity="0.4"/>
</g>
<g id="Vector_3">
<path d="M47.5443 9.51682C47.7203 9.59148 47.8963 9.66347 48.0749 9.7408C48.6002 9.96478 49.1175 10.2021 49.6321 10.4447C49.8214 10.5301 50.0107 10.6181 50.2081 10.7087C50.8133 10.9887 51.4213 11.2687 52.0266 11.5486C52.4452 11.7433 52.8638 11.9353 53.2798 12.1273C53.9037 12.4126 54.525 12.7005 55.1463 12.9859C56.8022 13.7511 58.4633 14.5031 60.1272 15.2497C60.3458 15.3483 60.5618 15.4443 60.7885 15.5456C61.2604 15.7589 61.7351 15.9696 62.2097 16.1829C61.863 26.0221 58.9486 35.0613 51.8106 42.0473C49.8988 43.8125 47.8003 45.3511 45.6778 46.8469C44.9525 46.503 44.3126 46.1243 43.6673 45.647C43.4913 45.5164 43.318 45.3857 43.1367 45.2524C35.0174 39.1276 30.5404 31.8082 29.1112 21.6758C29.0552 21.2705 29.0019 20.8678 28.9459 20.4652C28.8872 20.0466 28.8286 19.6279 28.7672 19.2093C28.6259 18.2014 28.4846 17.1935 28.3459 16.1829C30.7831 15.1003 33.2202 14.0178 35.6573 12.9325C35.9213 12.8152 36.1853 12.6979 36.4572 12.5779C36.9852 12.3432 37.5158 12.1086 38.0464 11.8739C39.2863 11.33 40.5129 10.7727 41.7261 10.1701C41.9394 10.0661 42.1528 9.96478 42.3741 9.85546C42.7687 9.66614 43.1607 9.46882 43.5473 9.26351C45.0832 8.52757 46.0351 8.83688 47.5443 9.51682ZM53.7411 18.7214C53.4584 19.004 53.4584 19.004 53.1705 19.2946C52.9572 19.508 52.7438 19.7213 52.5225 19.9426C52.2932 20.1746 52.0639 20.4092 51.8239 20.6492C51.5893 20.8865 51.352 21.1238 51.1093 21.3665C50.4827 21.9957 49.8561 22.6277 49.2295 23.2596C48.5895 23.9049 47.9496 24.5475 47.3096 25.1901C46.0538 26.454 44.7979 27.7179 43.5446 28.9818C42.7127 28.5845 42.1474 28.1819 41.4995 27.5206C41.2328 27.254 41.2328 27.254 40.9635 26.9793C40.7795 26.7927 40.5982 26.606 40.4116 26.4167C40.2249 26.2274 40.0409 26.0381 39.849 25.8434C39.3903 25.3794 38.9344 24.9155 38.4784 24.4489C38.1878 24.6862 37.8998 24.9262 37.6118 25.1661C37.4518 25.2995 37.2892 25.4328 37.1239 25.5688C36.5292 26.126 36.0413 26.7367 35.5453 27.3819C36.4732 28.3285 37.4012 29.2724 38.3344 30.2164C38.6517 30.5363 38.9664 30.8563 39.2837 31.1789C39.737 31.6429 40.1929 32.1042 40.6489 32.5628C40.8595 32.7815 40.8595 32.7815 41.0755 33.0028C41.5955 33.5227 42.0861 33.9814 42.742 34.3253C44.1659 34.2987 45.2378 33.2534 46.1844 32.2988C46.4297 32.0535 46.675 31.8082 46.9283 31.5549C47.1923 31.2883 47.4536 31.0216 47.7176 30.7523C47.9896 30.4803 48.2616 30.2057 48.5362 29.9311C49.2508 29.2138 49.9627 28.4938 50.6747 27.7739C51.4026 27.038 52.1306 26.3047 52.8612 25.5714C54.2904 24.1316 55.7169 22.6917 57.1435 21.2491C56.7462 20.4145 56.3355 19.8359 55.6769 19.1826C55.5143 19.02 55.3516 18.8547 55.1863 18.6867C54.5543 18.1587 54.3597 18.1854 53.7411 18.7214Z" fill="#E73F15"/>
<path d="M47.5443 9.51682C47.7203 9.59148 47.8963 9.66347 48.0749 9.7408C48.6002 9.96478 49.1175 10.2021 49.6321 10.4447C49.8214 10.5301 50.0107 10.6181 50.2081 10.7087C50.8133 10.9887 51.4213 11.2687 52.0266 11.5486C52.4452 11.7433 52.8638 11.9353 53.2798 12.1273C53.9037 12.4126 54.525 12.7005 55.1463 12.9859C56.8022 13.7511 58.4633 14.5031 60.1272 15.2497C60.3458 15.3483 60.5618 15.4443 60.7885 15.5456C61.2604 15.7589 61.7351 15.9696 62.2097 16.1829C61.863 26.0221 58.9486 35.0613 51.8106 42.0473C49.8988 43.8125 47.8003 45.3511 45.6778 46.8469C44.9525 46.503 44.3126 46.1243 43.6673 45.647C43.4913 45.5164 43.318 45.3857 43.1367 45.2524C35.0174 39.1276 30.5404 31.8082 29.1112 21.6758C29.0552 21.2705 29.0019 20.8678 28.9459 20.4652C28.8872 20.0466 28.8286 19.6279 28.7672 19.2093C28.6259 18.2014 28.4846 17.1935 28.3459 16.1829C30.7831 15.1003 33.2202 14.0178 35.6573 12.9325C35.9213 12.8152 36.1853 12.6979 36.4572 12.5779C36.9852 12.3432 37.5158 12.1086 38.0464 11.8739C39.2863 11.33 40.5129 10.7727 41.7261 10.1701C41.9394 10.0661 42.1528 9.96478 42.3741 9.85546C42.7687 9.66614 43.1607 9.46882 43.5473 9.26351C45.0832 8.52757 46.0351 8.83688 47.5443 9.51682ZM53.7411 18.7214C53.4584 19.004 53.4584 19.004 53.1705 19.2946C52.9572 19.508 52.7438 19.7213 52.5225 19.9426C52.2932 20.1746 52.0639 20.4092 51.8239 20.6492C51.5893 20.8865 51.352 21.1238 51.1093 21.3665C50.4827 21.9957 49.8561 22.6277 49.2295 23.2596C48.5895 23.9049 47.9496 24.5475 47.3096 25.1901C46.0538 26.454 44.7979 27.7179 43.5446 28.9818C42.7127 28.5845 42.1474 28.1819 41.4995 27.5206C41.2328 27.254 41.2328 27.254 40.9635 26.9793C40.7795 26.7927 40.5982 26.606 40.4116 26.4167C40.2249 26.2274 40.0409 26.0381 39.849 25.8434C39.3903 25.3794 38.9344 24.9155 38.4784 24.4489C38.1878 24.6862 37.8998 24.9262 37.6118 25.1661C37.4518 25.2995 37.2892 25.4328 37.1239 25.5688C36.5292 26.126 36.0413 26.7367 35.5453 27.3819C36.4732 28.3285 37.4012 29.2724 38.3344 30.2164C38.6517 30.5363 38.9664 30.8563 39.2837 31.1789C39.737 31.6429 40.1929 32.1042 40.6489 32.5628C40.8595 32.7815 40.8595 32.7815 41.0755 33.0028C41.5955 33.5227 42.0861 33.9814 42.742 34.3253C44.1659 34.2987 45.2378 33.2534 46.1844 32.2988C46.4297 32.0535 46.675 31.8082 46.9283 31.5549C47.1923 31.2883 47.4536 31.0216 47.7176 30.7523C47.9896 30.4803 48.2616 30.2057 48.5362 29.9311C49.2508 29.2138 49.9627 28.4938 50.6747 27.7739C51.4026 27.038 52.1306 26.3047 52.8612 25.5714C54.2904 24.1316 55.7169 22.6917 57.1435 21.2491C56.7462 20.4145 56.3355 19.8359 55.6769 19.1826C55.5143 19.02 55.3516 18.8547 55.1863 18.6867C54.5543 18.1587 54.3597 18.1854 53.7411 18.7214Z" fill="#052942" fill-opacity="0.25"/>
</g>
</g>
</g>
</svg>
