<svg width="117" height="120" viewBox="0 0 117 120" fill="none" xmlns="http://www.w3.org/2000/svg">
<g id="Group 6">
<path id="Vector" d="M11.6463 80.4729C16.5852 77.0617 22.0209 74.828 27.6793 73.1511C31.3153 72.0736 35.037 71.2873 38.7175 70.3594C39.2692 70.2203 39.5594 70.3532 39.8191 70.912C44.1187 80.1626 48.4455 89.4005 52.7667 98.6409C52.864 98.849 52.9673 99.0542 53.1455 99.4201C53.4049 98.0927 53.6407 96.9147 53.8648 95.7346C54.5837 91.9499 55.3089 88.1663 55.9957 84.3758C56.056 84.0428 55.9527 83.5924 55.7577 83.3148C54.4232 81.4153 53.0436 79.5477 51.6798 77.6689C51.5321 77.4654 51.3926 77.2559 51.2025 76.9817C56.0615 76.9817 60.8459 76.9817 65.7235 76.9817C65.5694 77.2156 65.445 77.4213 65.3044 77.6153C63.9146 79.5326 62.513 81.4416 61.1422 83.3724C60.9769 83.6052 60.8627 83.9745 60.9129 84.2457C61.8078 89.0832 62.7314 93.9155 63.6512 98.7484C63.6858 98.9302 63.7438 99.1075 63.8191 99.3943C64.7435 97.4279 65.6322 95.547 66.5129 93.6625C70.0664 86.0593 73.6194 78.4559 77.1638 70.8485C77.3469 70.4555 77.5096 70.2177 78.0265 70.3194C85.5964 71.8095 92.9762 73.8968 99.9291 77.3157C102.937 78.7947 105.755 80.5672 108.247 82.8392C111.099 85.438 112.73 88.6361 113.486 92.4252C114.398 96.9951 115.57 101.513 116.627 106.054C116.668 106.231 116.685 106.413 116.725 106.671C114.245 107.674 111.792 108.7 109.314 109.661C100.378 113.125 91.2345 115.891 81.8164 117.7C72.5804 119.474 63.2695 120.294 53.8588 119.905C38.7295 119.28 24.2049 115.821 10.0631 110.572C6.93923 109.413 3.8717 108.101 0.770256 106.88C0.318915 106.703 0.200156 106.507 0.317519 106.01C1.52768 100.886 2.71093 95.755 3.89661 90.6247C4.70197 87.1401 6.77753 84.4894 9.41053 82.2132C10.1116 81.6072 10.8726 81.0708 11.6463 80.4729ZM28.7942 80.9454C28.5618 80.2005 28.3778 79.4358 28.0847 78.7156C27.7194 77.8183 26.8713 77.4763 25.9621 77.8418C22.3143 79.3082 18.6715 80.7874 15.0353 82.2824C14.1335 82.6531 13.7965 83.4848 14.1149 84.4005C14.2592 84.8156 14.4368 85.2195 14.6065 85.6254C15.0755 86.7474 15.8847 87.0998 17.0099 86.644C20.5256 85.2201 24.034 83.7784 27.553 82.3629C28.1839 82.1091 28.6124 81.7206 28.7942 80.9454ZM102.503 85.2038C103.304 83.3057 103.076 82.7449 101.175 81.9712C98.111 80.7245 95.0217 79.5368 91.9892 78.2182C89.8488 77.2875 89.161 77.6691 88.4077 79.7727C87.9152 81.148 88.1802 81.8721 89.5165 82.4155C92.8808 83.7835 96.2461 85.1487 99.6118 86.513C101.172 87.1454 101.815 86.8723 102.503 85.2038Z" fill="#134172"/>
<path id="Vector_2" d="M32.1509 29.3022C32.0657 28.3511 31.5849 27.7497 30.899 27.1968C29.2086 25.8342 27.5725 24.4023 25.9221 22.9893C23.6387 21.0343 24.0076 17.8259 26.6611 16.4146C36.5756 11.1416 46.4915 5.87129 56.3952 0.577512C57.8208 -0.184507 59.1588 -0.196358 60.5853 0.565365C70.5318 5.87643 80.4905 11.1639 90.4439 16.4617C92.9695 17.806 93.3266 21.0507 91.1495 22.9262C89.4684 24.3745 87.7905 25.8281 86.0684 27.2253C85.4045 27.764 84.916 28.3504 84.8696 29.2207C84.8114 30.3152 84.2156 30.7303 83.1966 30.9944C77.5721 32.4519 71.8713 33.3796 66.0827 33.8032C60.2424 34.2305 54.4086 34.1682 48.5821 33.6153C43.5666 33.1394 38.6196 32.2568 33.7402 30.9722C32.831 30.7328 32.1832 30.4054 32.1509 29.3022ZM61.9869 25.7838C63.3622 24.6487 64.545 23.2912 64.6698 21.4681C64.8376 19.0193 64.7114 16.5499 64.7114 14.0256C62.3463 13.9425 60.0875 13.416 58.4936 11.3222C56.8775 13.4446 54.6219 13.93 52.1826 14.0344C52.1826 16.1386 52.1837 18.184 52.1822 20.2293C52.1811 21.7759 52.6597 23.1538 53.6104 24.3599C54.8346 25.9131 56.4539 26.9081 58.2386 27.6519C58.4174 27.7264 58.7013 27.7061 58.8717 27.6109C59.8939 27.0403 60.8971 26.4349 61.9869 25.7838Z" fill="#144172"/>
<path id="Vector_3" d="M37.5012 34.1119C45.9633 35.9667 54.4703 36.6365 63.0618 36.2549C69.5345 35.9674 75.9221 35.0744 82.2035 33.4722C83.4834 33.1457 84.1696 33.6213 84.3303 34.9054C84.3544 35.0984 84.4522 35.3752 84.5977 35.4452C85.5373 35.8969 85.997 36.7019 86.2992 37.6245C86.968 39.6659 87.0133 41.7773 86.7601 43.8685C86.5787 45.367 86.2017 46.8584 85.7504 48.3032C85.383 49.4796 84.6538 50.4407 83.2768 50.6857C83.1193 50.7137 82.96 51.0306 82.8971 51.2417C81.4007 56.2641 79.097 60.8596 75.5856 64.8023C72.0093 68.818 67.7119 71.7023 62.3427 72.7438C56.4494 73.8869 51.0829 72.4883 46.2257 69.0987C41.0564 65.4915 37.6434 60.5292 35.3336 54.7647C34.8537 53.5671 34.4997 52.32 34.0626 51.1046C33.9988 50.9274 33.8139 50.6958 33.6524 50.6664C32.5493 50.4651 31.8413 49.753 31.4746 48.8029C31.0127 47.606 30.6303 46.3587 30.3959 45.0997C29.9915 42.9271 29.9879 40.7256 30.4493 38.5534C30.7208 37.2753 31.1114 36.0338 32.4756 35.4234C32.5881 35.373 32.6505 35.1315 32.6709 34.9707C32.8463 33.5841 33.4922 33.1463 34.8713 33.4844C35.7277 33.6943 36.5874 33.8908 37.5012 34.1119ZM44.0274 63.4854C45.6128 64.7982 47.0886 66.2781 48.8054 67.3907C53.0035 70.1114 57.6254 70.9839 62.5408 69.8211C66.7706 68.8204 70.2127 66.4853 73.1135 63.3299C77.0007 59.1013 79.3258 54.0742 80.662 48.5536C81.0441 46.9752 81.6204 46.6592 83.1935 47.2231C84.1311 44.3473 84.336 41.4531 83.6493 38.5713C83.1133 38.5102 82.6654 38.4591 82.1973 38.4057C80.3522 41.2374 77.651 43.019 74.5726 44.2978C70.6916 45.9099 66.6048 46.6226 62.4331 46.8742C56.598 47.226 50.8065 46.9615 45.167 45.2681C41.04 44.0289 37.3192 42.1349 34.811 38.4457C34.7897 38.4144 34.7302 38.4086 34.8227 38.4479C34.2708 38.5034 33.8466 38.5461 33.3458 38.5964C32.6694 41.4888 32.8733 44.3737 33.818 47.2495C35.2537 46.6284 35.9717 47.0056 36.319 48.4579C37.6567 54.0525 40.0179 59.1322 44.0274 63.4854Z" fill="#154273"/>
<path id="Vector_4" d="M28.6774 81.1859C28.5024 81.8569 28.0704 82.2191 27.4343 82.4556C23.886 83.7752 20.3484 85.1192 16.8035 86.4466C15.669 86.8715 14.853 86.543 14.3801 85.4971C14.209 85.1186 14.03 84.7422 13.8844 84.3551C13.5634 83.5015 13.9032 82.7262 14.8125 82.3806C18.4789 80.9869 22.152 79.608 25.8301 78.241C26.7469 77.9003 27.6021 78.2191 27.9704 79.0556C28.2659 79.727 28.4514 80.4398 28.6774 81.1859Z" fill="#FDFDFE"/>
<path id="Vector_5" d="M102.761 85.1528C102.049 86.6691 101.368 86.9251 99.7167 86.3322C96.1538 85.0529 92.5913 83.7729 89.0299 82.4903C87.6153 81.9808 87.3348 81.3018 87.8561 80.0123C88.6535 78.0399 89.3816 77.6821 91.6475 78.5548C94.8577 79.7911 98.1279 80.9047 101.371 82.0737C103.384 82.7991 103.625 83.3249 102.761 85.1528Z" fill="#FDFDFE"/>
<path id="Vector_6" d="M62.0342 25.8131C60.9673 26.4339 59.9476 27.0376 58.9087 27.6068C58.7355 27.7016 58.4469 27.7219 58.2652 27.6476C56.4512 26.9058 54.8053 25.9134 53.561 24.3643C52.5947 23.1614 52.1082 21.7872 52.1094 20.2447C52.1109 18.2048 52.1097 16.165 52.1097 14.0663C54.5891 13.9622 56.8817 13.4781 58.5244 11.3613C60.1444 13.4495 62.4403 13.9746 64.8442 14.0575C64.8442 16.5751 64.9724 19.038 64.8019 21.4803C64.675 23.2985 63.4728 24.6524 62.0342 25.8131Z" fill="#FDFEFE"/>
<path id="Vector_7" d="M43.9877 63.4138C40.0102 59.0923 37.6483 54.007 36.3101 48.4064C35.9627 46.9525 35.2445 46.5749 33.8083 47.1966C32.8633 44.3178 32.6593 41.4297 33.336 38.5342C33.8369 38.4838 34.2612 38.4411 34.8133 38.3856C34.7208 38.3461 34.7803 38.3519 34.8016 38.3834C37.3106 42.0765 41.0327 43.9726 45.1609 45.2131C50.8023 46.9083 56.5956 47.1732 62.4326 46.8209C66.6056 46.5691 70.6938 45.8556 74.576 44.2417C77.6554 42.9616 80.3575 41.1781 82.2031 38.3433C82.6714 38.3967 83.1195 38.4479 83.6556 38.5091C84.3425 41.394 84.1376 44.2913 83.1997 47.1702C81.6261 46.6057 81.0496 46.9221 80.6674 48.5022C79.3308 54.0288 77.0049 59.0613 73.1164 63.2944C70.2148 66.4533 66.7715 68.7909 62.5403 69.7927C57.6234 70.9568 53 70.0833 48.8006 67.3597C47.0832 66.2459 45.6069 64.7644 43.9877 63.4138Z" fill="#FEFEFF"/>
</g>
</svg>
