<svg width="120" height="98" viewBox="0 0 120 98" fill="none" xmlns="http://www.w3.org/2000/svg">
<g id="Group 4">
<path id="Vector" d="M0 87.1746C0.702971 84.4316 1.43998 81.8071 2.10254 79.1638C4.10026 71.194 6.06282 63.2154 8.05104 55.2431C9.6559 48.808 11.2906 42.3804 12.8847 35.9427C13.3469 34.0761 13.5706 33.8516 15.5073 33.8516C17.1854 33.8515 18.8634 33.8516 20.6303 33.8516C19.9219 32.1318 19.243 30.4813 18.5624 28.8315C17.1525 25.414 16.496 21.844 16.9112 18.1809C17.3717 14.1187 18.9993 10.5136 21.6651 7.35286C24.714 3.73797 28.5245 1.34354 33.1071 0.45856C38.9766 -0.674951 44.5532 0.239621 49.5361 3.7995C52.5477 5.95101 54.843 8.70762 56.3684 12.0588C58.3808 16.4798 58.8344 21.0841 57.408 25.7569C56.5791 28.4723 55.5042 31.1126 54.5167 33.8516C54.7768 33.8516 55.1147 33.8516 55.4525 33.8516C61.7022 33.8516 67.952 33.8383 74.2015 33.8691C74.9452 33.8727 75.3381 33.6728 75.7299 33.001C78.2828 28.6244 81.8812 25.4982 86.7024 23.7444C91.0831 22.1509 95.5615 22.0158 99.8734 23.3827C106.302 25.4206 110.871 29.6877 113.243 36.1629C115.14 41.3444 114.821 46.4506 112.603 51.3676C111.553 53.694 112.03 55.736 112.589 57.9348C114.537 65.605 116.457 73.2827 118.379 80.9595C118.882 82.9703 119.356 84.9885 119.933 87.034C120.022 90.1952 120.022 93.3257 119.937 96.5915C119.559 97.6236 118.818 97.615 118.074 97.615C79.3842 97.6138 40.6947 97.6112 2.00515 97.6314C1.12524 97.6319 0.481102 97.3889 0 96.6759C0 93.5454 0 90.4149 0 87.1746ZM70.8549 67.5515C73.9005 65.6729 76.946 63.7943 79.9419 61.9463C78.5558 59.1028 77.0704 56.3202 75.8234 53.4347C74.0017 49.2193 72.5581 44.892 73.3843 40.1712C73.5294 39.3419 73.6865 38.5146 73.8533 37.6029C72.4049 37.6029 71.0399 37.6465 69.6796 37.585C68.9713 37.553 68.7029 37.8407 68.4215 38.4524C66.8595 41.8473 65.4039 45.3069 63.5988 48.5713C58.7808 57.2842 51.9251 63.9033 42.5685 67.54C37.2047 69.6247 31.6622 71.2604 26.1677 72.9955C19.2413 75.1829 12.4107 77.5726 6.20797 81.4526C5.86465 81.6673 5.44011 81.9631 5.33347 82.3078C4.93282 83.6029 4.64834 84.934 4.30951 86.2951C22.3332 86.2951 40.2367 86.2951 58.1651 86.2951C58.2299 85.9306 58.3014 85.627 58.336 85.3193C58.7226 81.8817 59.8903 78.7398 61.8555 75.8891C64.2017 72.4859 67.3204 69.918 70.8549 67.5515ZM42.9412 63.3193C54.1176 58.1094 60.3011 48.6853 64.7351 37.6031C60.6549 37.6031 56.7153 37.5843 52.7766 37.6367C52.4397 37.6412 52.0168 38.0563 51.7897 38.3876C49.4978 41.7302 47.3286 45.161 44.9383 48.4306C43.3536 50.5985 41.5007 52.5805 39.1138 53.952C38.0396 54.5692 36.9013 54.6838 35.9253 53.931C34.3903 52.747 32.8391 51.5364 31.5246 50.1232C28.2411 46.5929 25.6619 42.5398 23.2244 38.395C23.0252 38.0562 22.5856 37.6514 22.2439 37.6383C20.3377 37.5651 18.4273 37.6031 16.4644 37.6031C13.2058 50.6445 9.96319 63.6222 6.65701 76.854C13.9365 72.7744 21.6103 70.5447 29.2253 68.1323C33.7862 66.6874 38.2636 64.9788 42.9412 63.3193ZM35.0975 48.5666C35.2008 48.6837 35.2981 48.8069 35.4083 48.9171C37.5967 51.1062 37.4869 51.221 39.6177 48.87C44.8756 43.0689 48.9528 36.4828 52.1301 29.3442C53.3863 26.5218 54.4035 23.5956 54.3694 20.446C54.2596 10.3178 45.2686 2.70119 35.0636 4.05864C25.0351 5.39261 18.3642 15.6534 21.4181 25.274C24.1876 33.9986 29.1302 41.5006 35.0975 48.5666ZM99.8489 66.5391C103.157 61.9357 106.122 57.129 108.368 51.9106C109.606 49.0353 110.674 46.0905 110.628 42.8987C110.485 32.8135 101.472 25.1719 91.389 26.5548C81.1972 27.9527 74.6882 38.1574 77.7058 47.9466C79.1906 52.7633 81.495 57.1916 84.2359 61.3663C86.4571 64.7494 88.8897 68.0171 91.4768 71.1296C93.7125 73.8194 93.6951 73.7531 96.1164 71.11C97.4054 69.7029 98.5409 68.1552 99.8489 66.5391ZM95.7036 76.263C94.3933 77.1549 93.0322 77.2006 91.8041 76.2207C90.3773 75.0823 88.9187 73.9282 87.731 72.5579C85.7209 70.2388 83.9126 67.7447 81.9598 65.2477C80.8855 65.8536 79.6863 66.4271 78.5968 67.1631C75.0481 69.5606 71.3711 71.8107 68.0607 74.507C64.4291 77.4649 62.3895 81.4781 62.0214 86.3068C79.9205 86.3068 97.7549 86.3068 115.727 86.3068C113.48 77.3162 111.25 68.3952 109.024 59.4869C106.954 62.6365 105.023 65.7522 102.91 68.7385C100.925 71.5429 98.7512 74.2147 95.7036 76.263ZM57.4982 93.8617C57.7092 93.7113 58.0949 93.5698 58.1031 93.4092C58.1574 92.3341 58.1313 91.2549 58.1313 90.1982C39.922 90.1982 21.8601 90.1982 3.80746 90.1982C3.80746 91.4422 3.80746 92.6002 3.80746 93.8622C21.6663 93.8622 39.4691 93.8622 57.4982 93.8617ZM103.495 93.8622C107.734 93.8622 111.974 93.8622 116.216 93.8622C116.216 92.5406 116.216 91.3836 116.216 90.1742C98.1038 90.1742 80.0459 90.1742 61.962 90.1742C61.962 91.4209 61.962 92.6051 61.962 93.8622C75.7783 93.8622 89.5196 93.8622 103.495 93.8622Z" fill="#052942"/>
<path id="Vector_2" d="M70.7831 67.5953C67.3205 69.918 64.2017 72.4858 61.8556 75.889C59.8903 78.7397 58.7227 81.8816 58.336 85.3193C58.3014 85.6269 58.23 85.9305 58.1651 86.295C40.2368 86.295 22.3333 86.295 4.30957 86.295C4.64841 84.9339 4.93288 83.6028 5.33354 82.3077C5.44017 81.963 5.86472 81.6672 6.20803 81.4525C12.4108 77.5726 19.2413 75.1828 26.1678 72.9955C31.6622 71.2603 37.2047 69.6247 42.5685 67.5399C51.9251 63.9032 58.7808 57.2842 63.5989 48.5712C65.404 45.3069 66.8596 41.8473 68.4215 38.4523C68.7029 37.8406 68.9713 37.5529 69.6796 37.5849C71.0399 37.6464 72.4049 37.6028 73.8534 37.6028C73.6865 38.5146 73.5295 39.3418 73.3844 40.1711C72.5582 44.892 74.0017 49.2193 75.8234 53.4346C77.0705 56.3201 78.5559 59.1027 79.942 61.9462C76.9461 63.7942 73.9005 65.6728 70.7831 67.5953Z" fill="#99C4DA"/>
<path id="Vector_3" d="M42.8598 63.354C38.2635 64.9788 33.7862 66.6875 29.2252 68.1324C21.6102 70.5448 13.9364 72.7744 6.65698 76.854C9.96316 63.6222 13.2058 50.6445 16.4644 37.6031C18.4273 37.6031 20.3377 37.5651 22.2438 37.6383C22.5856 37.6515 23.0252 38.0562 23.2244 38.395C25.6619 42.5399 28.2411 46.593 31.5246 50.1232C32.839 51.5364 34.3902 52.747 35.9253 53.931C36.9012 54.6838 38.0396 54.5692 39.1138 53.952C41.5007 52.5805 43.3535 50.5985 44.9383 48.4307C47.3286 45.161 49.4978 41.7302 51.7896 38.3876C52.0167 38.0563 52.4396 37.6412 52.7766 37.6367C56.7152 37.5843 60.6548 37.6031 64.7351 37.6031C60.3011 48.6853 54.1176 58.1094 42.8598 63.354Z" fill="#99C4DA"/>
<g id="Vector_4">
<path d="M35.0424 48.5048C29.1302 41.5008 24.1876 33.9987 21.4182 25.2742C18.3642 15.6535 25.0351 5.39275 35.0636 4.05877C45.2686 2.70132 54.2596 10.318 54.3694 20.4461C54.4035 23.5958 53.3864 26.522 52.1302 29.3443C48.9529 36.4829 44.8756 43.069 39.6177 48.8702C37.4869 51.2211 37.5967 51.1063 35.4083 48.9173C35.2981 48.807 35.2008 48.6839 35.0424 48.5048ZM33.3258 30.1013C34.8755 30.0125 35.2814 29.6886 35.6801 28.1915C36.0171 26.9265 36.3415 25.6582 36.6644 24.4182C38.4402 24.497 38.7795 24.2752 39.522 22.5996C41.8386 22.5996 44.1787 22.6156 46.5185 22.5939C48.0382 22.5799 48.7314 21.8807 48.7534 20.3618C48.776 18.8009 48.7662 17.2393 48.7568 15.6782C48.746 13.8726 48.0965 13.2278 46.2667 13.2257C40.9585 13.2195 35.6504 13.2204 30.3422 13.2256C28.8947 13.227 28.3155 13.7525 28.1085 15.1847C27.5177 19.2716 26.9262 23.3584 26.327 27.444C26.0777 29.1434 26.8305 30.0721 28.5425 30.0966C30.0644 30.1184 31.5868 30.1013 33.3258 30.1013Z" fill="#E73F15"/>
<path d="M35.0424 48.5048C29.1302 41.5008 24.1876 33.9987 21.4182 25.2742C18.3642 15.6535 25.0351 5.39275 35.0636 4.05877C45.2686 2.70132 54.2596 10.318 54.3694 20.4461C54.4035 23.5958 53.3864 26.522 52.1302 29.3443C48.9529 36.4829 44.8756 43.069 39.6177 48.8702C37.4869 51.2211 37.5967 51.1063 35.4083 48.9173C35.2981 48.807 35.2008 48.6839 35.0424 48.5048ZM33.3258 30.1013C34.8755 30.0125 35.2814 29.6886 35.6801 28.1915C36.0171 26.9265 36.3415 25.6582 36.6644 24.4182C38.4402 24.497 38.7795 24.2752 39.522 22.5996C41.8386 22.5996 44.1787 22.6156 46.5185 22.5939C48.0382 22.5799 48.7314 21.8807 48.7534 20.3618C48.776 18.8009 48.7662 17.2393 48.7568 15.6782C48.746 13.8726 48.0965 13.2278 46.2667 13.2257C40.9585 13.2195 35.6504 13.2204 30.3422 13.2256C28.8947 13.227 28.3155 13.7525 28.1085 15.1847C27.5177 19.2716 26.9262 23.3584 26.327 27.444C26.0777 29.1434 26.8305 30.0721 28.5425 30.0966C30.0644 30.1184 31.5868 30.1013 33.3258 30.1013Z" fill="black" fill-opacity="0.25"/>
</g>
<g id="Vector_5">
<path d="M99.7973 66.6048C98.5409 68.155 97.4054 69.7027 96.1164 71.1098C93.6951 73.7529 93.7126 73.8192 91.4768 71.1294C88.8897 68.0168 86.4571 64.7492 84.2359 61.366C81.495 57.1914 79.1906 52.7631 77.7059 47.9464C74.6882 38.1571 81.1972 27.9525 91.389 26.5546C101.472 25.1717 110.485 32.8133 110.628 42.8985C110.674 46.0903 109.606 49.0351 108.368 51.9104C106.123 57.1288 103.157 61.9355 99.7973 66.6048ZM91.8314 51.1954C92.1932 49.7666 92.5549 48.3379 92.9114 46.9298C94.6816 46.9896 94.9262 46.8339 95.8498 45.1037C98.097 45.1037 100.361 45.1129 102.625 45.1007C104.314 45.0916 104.998 44.4299 105.015 42.7836C105.032 41.1828 105.035 39.5815 105.014 37.9807C104.994 36.4529 104.306 35.7386 102.792 35.734C97.3256 35.7176 91.8587 35.7212 86.3919 35.7326C85.2235 35.735 84.5578 36.3138 84.3941 37.4334C83.7739 41.6757 83.1544 45.9182 82.5612 50.1644C82.3529 51.6558 83.1472 52.5666 84.6714 52.5965C86.3889 52.6303 88.1076 52.605 89.8257 52.6032C90.7328 52.6023 91.4039 52.2308 91.8314 51.1954Z" fill="#E73F15"/>
<path d="M99.7973 66.6048C98.5409 68.155 97.4054 69.7027 96.1164 71.1098C93.6951 73.7529 93.7126 73.8192 91.4768 71.1294C88.8897 68.0168 86.4571 64.7492 84.2359 61.366C81.495 57.1914 79.1906 52.7631 77.7059 47.9464C74.6882 38.1571 81.1972 27.9525 91.389 26.5546C101.472 25.1717 110.485 32.8133 110.628 42.8985C110.674 46.0903 109.606 49.0351 108.368 51.9104C106.123 57.1288 103.157 61.9355 99.7973 66.6048ZM91.8314 51.1954C92.1932 49.7666 92.5549 48.3379 92.9114 46.9298C94.6816 46.9896 94.9262 46.8339 95.8498 45.1037C98.097 45.1037 100.361 45.1129 102.625 45.1007C104.314 45.0916 104.998 44.4299 105.015 42.7836C105.032 41.1828 105.035 39.5815 105.014 37.9807C104.994 36.4529 104.306 35.7386 102.792 35.734C97.3256 35.7176 91.8587 35.7212 86.3919 35.7326C85.2235 35.735 84.5578 36.3138 84.3941 37.4334C83.7739 41.6757 83.1544 45.9182 82.5612 50.1644C82.3529 51.6558 83.1472 52.5666 84.6714 52.5965C86.3889 52.6303 88.1076 52.605 89.8257 52.6032C90.7328 52.6023 91.4039 52.2308 91.8314 51.1954Z" fill="black" fill-opacity="0.25"/>
</g>
<path id="Vector_6" d="M95.779 76.2192C98.7512 74.2146 100.925 71.5428 102.91 68.7384C105.023 65.752 106.954 62.6364 109.024 59.4868C111.25 68.3951 113.48 77.3161 115.727 86.3067C97.755 86.3067 79.9206 86.3067 62.0215 86.3067C62.3896 81.478 64.4292 77.4647 68.0608 74.5068C71.3712 71.8106 75.0482 69.5605 78.5969 67.163C79.6863 66.427 80.8855 65.8534 81.9598 65.2476C83.9127 67.7445 85.7209 70.2387 87.7311 72.5578C88.9187 73.928 90.3773 75.0822 91.8041 76.2206C93.0323 77.2005 94.3934 77.1548 95.779 76.2192Z" fill="#99C4DA"/>
<path id="Vector_7" d="M57.385 93.862C39.469 93.8623 21.6662 93.8623 3.80737 93.8623C3.80737 92.6003 3.80737 91.4422 3.80737 90.1982C21.86 90.1982 39.9219 90.1982 58.1312 90.1982C58.1312 91.255 58.1573 92.3342 58.103 93.4093C58.0948 93.5699 57.7091 93.7114 57.385 93.862Z" fill="#99C4DA"/>
<path id="Vector_8" d="M103.378 93.8622C89.5195 93.8622 75.7782 93.8622 61.9619 93.8622C61.9619 92.6052 61.9619 91.4209 61.9619 90.1743C80.0458 90.1743 98.1037 90.1743 116.216 90.1743C116.216 91.3837 116.216 92.5407 116.216 93.8622C111.974 93.8622 107.734 93.8622 103.378 93.8622Z" fill="#99C4DA"/>
<path id="Vector_9" d="M33.2172 30.1012C31.5867 30.1012 30.0642 30.1182 28.5423 30.0965C26.8303 30.072 26.0776 29.1433 26.3269 27.4439C26.9261 23.3582 27.5176 19.2714 28.1084 15.1846C28.3154 13.7523 28.8945 13.2269 30.3421 13.2254C35.6502 13.2202 40.9584 13.2193 46.2665 13.2255C48.0964 13.2276 48.7458 13.8725 48.7567 15.678C48.766 17.2392 48.7759 18.8007 48.7533 20.3616C48.7313 21.8805 48.038 22.5797 46.5184 22.5938C44.1786 22.6154 41.8385 22.5995 39.5219 22.5995C38.7794 24.275 38.4401 24.4968 36.6643 24.4181C36.3413 25.658 36.0169 26.9263 35.68 28.1913C35.2812 29.6884 34.8753 30.0123 33.2172 30.1012ZM44.8213 16.9911C40.4346 16.9911 36.0478 16.9911 31.6391 16.9911C31.5481 17.6627 31.4728 18.2178 31.3943 18.7967C35.9885 18.7967 40.4549 18.7967 44.9868 18.7967C44.9868 18.211 44.9868 17.6749 44.8213 16.9911ZM30.8085 22.807C30.6447 23.9451 30.4809 25.0831 30.307 26.2917C30.9926 26.2917 31.5969 26.2917 32.3018 26.2917C32.5927 25.1087 32.8822 23.9311 33.1943 22.6615C32.3294 22.6615 31.6422 22.6615 30.8085 22.807Z" fill="#010101"/>
<path id="Vector_10" d="M91.7918 51.2784C91.404 52.2311 90.733 52.6026 89.8258 52.6035C88.1077 52.6052 86.389 52.6305 84.6716 52.5968C83.1473 52.5668 82.353 51.6561 82.5613 50.1646C83.1545 45.9185 83.774 41.676 84.3942 37.4337C84.5579 36.314 85.2237 35.7353 86.392 35.7328C91.8588 35.7215 97.3257 35.7179 102.792 35.7343C104.306 35.7389 104.994 36.4532 105.014 37.981C105.035 39.5817 105.032 41.1831 105.015 42.7839C104.998 44.4301 104.315 45.0918 102.625 45.1009C100.361 45.1132 98.0971 45.104 95.8499 45.104C94.9264 46.8342 94.6817 46.9898 92.9115 46.9301C92.555 48.3381 92.1933 49.7669 91.7918 51.2784ZM88.5452 41.3532C92.7764 41.3532 97.0077 41.3532 101.186 41.3532C101.186 40.6353 101.186 40.0728 101.186 39.5328C96.713 39.5328 92.3219 39.5328 87.9191 39.5328C87.8365 40.0051 87.69 40.4324 87.7225 40.8456C87.7369 41.0294 88.1122 41.1848 88.5452 41.3532ZM87.2142 45.1663C86.9845 46.3523 86.7547 47.5383 86.5097 48.8032C87.2756 48.8032 87.8801 48.8032 88.5668 48.8032C88.8567 47.5982 89.1396 46.4226 89.4546 45.1133C88.642 45.1133 88.0291 45.1133 87.2142 45.1663Z" fill="#010101"/>
<path id="Vector_11" d="M44.9043 17.065C44.987 17.675 44.987 18.2111 44.987 18.7968C40.4551 18.7968 35.9887 18.7968 31.3945 18.7968C31.473 18.2179 31.5483 17.6628 31.6393 16.9912C36.048 16.9912 40.4348 16.9912 44.9043 17.065Z" fill="#CCD1D9"/>
<path id="Vector_12" d="M30.8819 22.7344C31.6423 22.6616 32.3295 22.6616 33.1944 22.6616C32.8823 23.9312 32.5928 25.1088 32.302 26.2919C31.597 26.2919 30.9927 26.2919 30.3071 26.2919C30.4811 25.0833 30.6449 23.9452 30.8819 22.7344Z" fill="#626A74"/>
<path id="Vector_13" d="M88.4344 41.3531C88.1121 41.1847 87.7368 41.0293 87.7224 40.8455C87.6899 40.4323 87.8364 40.005 87.919 39.5327C92.3218 39.5327 96.713 39.5327 101.186 39.5327C101.186 40.0727 101.186 40.6353 101.186 41.3531C97.0076 41.3531 92.7764 41.3531 88.4344 41.3531Z" fill="#CCD1D9"/>
<path id="Vector_14" d="M87.3151 45.1398C88.0289 45.1133 88.6418 45.1133 89.4544 45.1133C89.1394 46.4226 88.8566 47.5982 88.5666 48.8033C87.8799 48.8033 87.2755 48.8033 86.5095 48.8033C86.7546 47.5383 86.9843 46.3523 87.3151 45.1398Z" fill="#626A74"/>
</g>
</svg>
