<svg width="121" height="120" viewBox="0 0 121 120" fill="none" xmlns="http://www.w3.org/2000/svg">
<g id="Group 3">
<path id="Vector" d="M67.7135 48.7061C64.5764 52.5217 60.9662 55.5383 56.1135 56.7403C51.4127 57.9047 47.0963 56.8738 43.1432 54.241C37.7407 50.6429 34.2896 45.5062 31.9197 39.6121C28.8335 31.9369 27.7881 24.0492 30.1347 15.9772C32.7839 6.8643 40.4381 0.828557 49.9597 0.0994793C56.2808 -0.384528 62.1314 0.853992 67.2112 4.77638C72.3954 8.77942 75.0338 14.2551 75.7084 20.6163C76.8067 30.9722 74.0347 40.3169 67.7135 48.7061ZM44.5525 46.1078C46.0472 47.7343 47.9868 47.6488 49.962 47.5633C51.6289 47.4911 53.3038 47.6038 54.9711 47.5357C56.2865 47.482 57.6452 47.4494 58.8937 47.0924C60.1641 46.7291 60.983 45.7011 61.0694 44.3002C61.156 42.8975 60.559 41.7872 59.3855 41.0223C58.204 40.2521 56.8869 40.0285 55.557 40.4987C53.381 41.268 51.2726 41.2986 49.0907 40.4637C47.5419 39.8712 45.5353 40.5856 44.5614 41.8501C43.6086 43.0871 43.5643 44.5352 44.5525 46.1078ZM41.0794 22.4595C39.8797 22.0832 38.6899 21.6686 37.4738 21.3556C37.1413 21.2701 36.5716 21.3718 36.3983 21.602C36.2217 21.8365 36.2519 22.4468 36.4456 22.7002C37.7575 24.4163 38.9631 26.2664 40.5312 27.7236C43.5643 30.542 46.6981 30.1528 49.2907 26.9148C50.2301 25.7415 50.0953 25.265 48.6791 24.8186C46.2072 24.0395 43.7323 23.2696 41.0794 22.4595ZM61.4342 29.4119C64.9722 28.2347 66.8101 25.3183 68.5953 22.3858C69.0146 21.6971 68.3423 21.0558 67.4883 21.3169C63.5535 22.5197 59.6286 23.7553 55.7046 24.9926C55.0355 25.2036 54.8068 25.6456 55.1455 26.3156C56.2309 28.463 58.8364 29.8115 61.4342 29.4119Z" fill="#2E3345"/>
<path id="Vector_2" d="M46.9663 73.3844C33.4671 73.3844 20.0824 73.3844 6.57593 73.3844C6.71873 72.9723 6.8026 72.6533 6.93629 72.356C8.64644 68.5527 11.3717 65.6184 15.346 64.2168C21.8974 61.9062 28.558 59.8943 35.2804 57.7217C36.1927 60.5889 38.0796 62.6109 40.5452 64.1763C47.2518 68.4345 57.9802 68.2995 64.5483 63.8449C66.7676 62.3397 68.4582 60.4136 69.2755 57.7455C72.2622 58.6941 75.1885 59.6201 78.1126 60.553C81.3721 61.593 84.6575 62.5637 87.8759 63.7148C89.4686 64.2844 90.9488 65.1685 92.449 65.9664C92.7217 66.1114 93.0391 66.5507 93.0068 66.8154C92.6923 69.3901 93.5606 71.5034 95.6898 73.3815C92.6884 73.3815 89.9263 73.3851 87.1643 73.3728C86.9937 73.3721 86.7758 73.2905 86.6608 73.1713C85.6038 72.0749 84.2257 71.3933 83.2511 70.1159C81.5844 67.9313 78.9323 67.1387 76.3515 66.4172C74.5335 65.9091 72.691 65.6798 70.8531 66.4175C70.6347 66.5052 70.3427 66.4408 70.0885 66.4139C65.3173 65.9085 61.6362 67.9871 58.4301 71.1729C58.1957 71.4058 57.9721 71.7205 57.904 72.0311C57.6306 73.2776 56.8323 73.4504 55.6637 73.4135C52.8054 73.3233 49.9421 73.3843 46.9663 73.3844Z" fill="#2E3345"/>
<path id="Vector_3" d="M4.04419 88.5092C4.49661 85.174 4.94904 81.8388 5.40453 78.481C21.4027 78.481 37.2664 78.481 53.1581 78.481C52.8277 80.1022 52.5052 81.6849 52.1588 83.3848C48.9581 83.9431 46.8176 85.8179 45.9251 89.1139C45.3257 89.0406 44.8738 88.9827 44.422 88.9825C31.4778 88.9777 18.5337 88.984 5.58967 88.9588C5.07422 88.9578 4.55934 88.6656 4.04419 88.5092Z" fill="#2D3245"/>
<path id="Vector_4" d="M1.5127 105.098C2.00101 101.632 2.48931 98.1662 2.97997 94.6836C15.6372 94.6836 28.1785 94.6836 41.0064 94.6836C38.2086 97.8384 36.8139 101.422 36.2348 105.317C35.7496 105.198 35.3854 105.101 35.0212 105.101C23.8517 105.094 12.6822 105.097 1.5127 105.098Z" fill="#2F3447"/>
<path id="Vector_5" d="M1.04084 116.53C0.12562 114.641 0.581139 112.804 0.89454 110.886C12.8709 110.886 24.8497 110.886 36.7081 110.886C37.4333 112.52 38.0071 114.19 38.8855 115.687C39.7631 117.183 40.9455 118.506 42.019 119.937C41.8399 119.951 41.566 119.991 41.2921 119.992C29.8207 119.994 18.3494 119.983 6.87809 120C4.23191 120.004 2.31514 118.891 1.04084 116.53Z" fill="#2E3346"/>
<path id="Vector_6" d="M72.6073 105.053C72.2142 101.783 71.1496 98.7689 69.2014 96.0687C68.9619 95.7366 68.9808 95.2221 68.8545 94.6836C79.7974 94.6836 90.5095 94.6836 101.315 94.6836C101.811 98.0807 102.311 101.459 102.777 104.841C102.801 105.015 102.534 105.229 102.289 105.317C101.849 105.155 101.523 105.055 101.197 105.054C91.667 105.048 82.1372 105.051 72.6073 105.053Z" fill="#2F3447"/>
<path id="Vector_7" d="M77.1725 119.944C73.7003 119.944 70.343 119.944 66.8291 119.944C67.5862 119.117 68.2594 118.438 68.8671 117.708C70.367 115.908 71.3732 113.864 72.0852 111.668C72.1864 111.356 72.6231 110.92 72.9061 110.919C83.1702 110.88 93.4345 110.887 103.682 110.887C105.897 116.569 101.739 120.122 97.5116 119.997C90.7761 119.797 84.0295 119.944 77.1725 119.944Z" fill="#2E3346"/>
<path id="Vector_8" d="M66.8012 111.526C64.3061 116.956 59.0358 120.006 53.2691 119.422C47.6409 118.852 43.0724 114.846 41.8153 109.378C40.4817 103.577 43.6571 97.5177 49.3554 95.0944C50.0727 94.7894 50.4608 94.4498 50.5642 93.6698C50.7072 92.5913 50.9817 91.5277 51.2302 90.4644C51.4993 89.3131 52.2634 88.8223 53.4404 89.0347C54.4611 89.2189 55.4761 89.4328 56.4845 89.6318C57.3155 87.3678 57.8252 86.8717 58.9854 87.1645C60.0693 87.4381 60.3525 88.2023 60.0842 90.3214C60.9566 90.5042 61.8486 90.6782 62.7339 90.8797C64.1471 91.2014 64.6747 91.8745 64.2756 93.2431C63.5646 95.6816 63.7322 97.6306 65.5304 99.8538C68.282 103.256 68.406 107.363 66.8012 111.526ZM54.2018 97.3867C53.8176 97.4325 53.432 97.4692 53.0494 97.5255C47.8091 98.2972 44.2466 103.271 45.1912 108.494C46.0829 113.424 51.2737 116.9 56.3151 115.944C61.3437 114.991 64.6953 110.698 64.2297 105.806C63.7725 101.003 59.6607 97.4788 54.2018 97.3867ZM53.2027 93.2733C54.012 93.7837 54.7734 93.6625 55.0421 92.7829C55.16 92.3968 54.728 91.7286 54.356 91.3795C54.1849 91.219 53.3128 91.3988 53.1899 91.6356C52.9737 92.0521 53.0889 92.631 53.2027 93.2733ZM61.5071 94.5802C62.0584 94.0178 62.0816 93.3759 61.4809 92.9259C61.1682 92.6917 60.441 92.601 60.1648 92.7968C59.8268 93.0364 59.5334 93.7002 59.6311 94.0812C59.8512 94.9396 60.5637 95.0695 61.5071 94.5802Z" fill="#536C81"/>
<path id="Vector_9" d="M120.125 57.0331C118.898 61.0746 116.405 63.8496 112.669 65.5467C112.275 65.7256 111.904 66.2421 111.779 66.6769C111.461 67.78 111.3 68.9278 111.056 70.0536C110.775 71.3558 110.046 71.8221 108.727 71.5623C107.795 71.3788 106.865 71.1874 105.944 71.0016C104.988 73.199 104.511 73.6308 103.398 73.3346C102.351 73.0563 102.093 72.3562 102.324 70.2842C101.453 70.0925 100.567 69.9087 99.6868 69.701C98.3461 69.3846 97.9119 68.7208 98.1492 67.3868C98.1559 67.3489 98.1593 67.3099 98.1713 67.2737C98.9866 64.7962 98.6742 62.8066 96.9343 60.534C93.7122 56.3254 94.0798 50.2807 97.1477 45.9623C100.271 41.5663 105.717 39.5717 110.904 40.9246C116.128 42.2875 119.931 46.6029 120.46 52.0365C120.617 53.6472 120.272 55.3075 120.125 57.0331ZM101.029 46.7225C98.628 49.2316 97.7079 52.1947 98.4398 55.6123C99.5077 60.5993 104.344 63.7943 109.416 62.9106C114.312 62.0575 117.773 57.2519 117.043 52.2385C116.506 48.5443 114.479 45.9238 111.022 44.611C107.375 43.2259 104.051 43.9961 101.029 46.7225ZM108.555 69.1704C109.259 68.896 109.666 68.3554 109.318 67.6674C109.126 67.2888 108.453 66.8439 108.124 66.929C107.714 67.0353 107.212 67.6237 107.149 68.0626C107.039 68.8188 107.598 69.2119 108.555 69.1704ZM102.1 67.7659C102.3 67.2552 102.731 66.6867 102.624 66.253C102.544 65.9317 101.729 65.5626 101.31 65.6324C100.976 65.688 100.527 66.3686 100.516 66.7827C100.492 67.6228 101.105 67.9392 102.1 67.7659Z" fill="#536C81"/>
<path id="Vector_10" d="M84.8916 89.5285C80.1926 89.548 75.4936 89.5675 70.6588 89.5012C70.3881 89.4537 70.2532 89.492 70.1184 89.5304C69.2662 89.7888 68.7494 89.4843 68.2969 88.6889C67.7336 87.6987 66.9838 86.817 66.3146 85.8885C66.1485 86.0403 65.9825 86.1922 65.8164 86.344C66.0021 85.4165 66.1761 84.4865 66.3755 83.5621C67.2093 79.6975 71.8521 78.2032 75.2343 80.7695C75.3777 80.8782 75.4706 81.0621 75.5702 81.2218C77.0084 83.5282 78.8534 85.4585 81.1855 86.7978C82.3301 87.4552 83.7218 87.6596 84.9733 88.1441C85.9383 88.5177 86.859 89.0085 88.0949 89.5851C87.2568 89.5851 86.7307 89.5851 86.074 89.4882C85.5927 89.437 85.2421 89.4827 84.8916 89.5285Z" fill="#2E3346"/>
<path id="Vector_11" d="M95.5824 83.9894C93.6834 84.2137 91.8716 84.5262 90.0554 84.5566C88.7264 84.5789 87.9791 83.6114 88.1097 82.5006C88.2388 81.4019 89.0329 80.9297 90.3562 80.9178C91.6342 80.9062 92.9207 80.776 94.1847 80.5715C95.1709 80.412 96.0286 80.4849 96.4885 81.4868C96.9651 82.5251 96.6386 83.3847 95.5824 83.9894Z" fill="#303547"/>
<path id="Vector_12" d="M59.4184 77.6667C60.1569 76.842 60.9324 76.727 61.6814 77.3961C62.4394 78.0732 62.3717 78.9108 62.0136 79.8896C61.5557 81.1412 61.243 82.4668 60.9398 83.7816C60.6374 85.0925 60.0251 85.7123 59.0409 85.5418C58.0746 85.3745 57.4954 84.473 57.7938 83.1965C58.2259 81.3482 58.8344 79.5521 59.4184 77.6667Z" fill="#303547"/>
<path id="Vector_13" d="M99.3406 82.0251C98.4525 81.9756 97.7556 81.5502 97.7168 80.6806C97.6879 80.0328 98.0272 79.2816 98.3827 78.714C99.0722 77.6133 99.9391 76.6486 100.638 75.554C101.31 74.5004 102.138 74.1306 102.995 74.6896C103.803 75.2167 104.044 76.2407 103.494 77.2854C102.481 79.2119 101.391 81.082 99.3406 82.0251Z" fill="#536C81"/>
<path id="Vector_14" d="M79.4873 74.1812C79.146 75.9093 78.1534 76.3249 76.649 75.628C75.4845 75.0886 74.2444 74.6891 73.0082 74.3271C71.8752 73.9953 71.2684 73.3277 71.405 72.3286C71.5399 71.3417 72.3836 70.6509 73.5124 70.9613C75.2619 71.4422 76.9658 72.1154 78.6354 72.83C79.028 72.998 79.2063 73.6568 79.4873 74.1812Z" fill="#303547"/>
<path id="Vector_15" d="M83.8138 82.376C82.6527 81.2183 81.497 80.1714 80.4825 78.9896C79.7277 78.1103 79.8912 76.9734 80.6696 76.3311C81.4612 75.678 82.3803 75.8892 83.1825 76.7621C84.0768 77.7353 85.0073 78.6858 86.0101 79.5298C87.0015 80.3641 87.3612 81.2574 86.8523 82.1771C86.321 83.1374 85.307 83.3063 84.1685 82.6226C84.0695 82.5632 83.9759 82.4937 83.8138 82.376Z" fill="#536C81"/>
<path id="Vector_16" d="M62.273 74.7607C63.7799 72.6713 65.9271 71.8865 68.1955 71.4211C69.0023 71.2556 69.6174 71.8279 69.8083 72.6714C70.0069 73.5485 69.7037 74.2415 68.8861 74.6493C67.4976 75.3421 66.1022 76.0207 64.7215 76.7296C63.3915 77.4126 62.2368 76.5425 62.273 74.7607Z" fill="#303547"/>
<path id="Vector_17" d="M4.09852 88.6074C4.65809 88.7186 5.17455 89.0942 5.69159 89.0955C18.6754 89.1279 31.6593 89.1198 44.6432 89.126C45.0965 89.1262 45.5497 89.2007 46.0695 89.3291C45.7976 89.4524 45.4591 89.5173 45.1206 89.5174C31.7671 89.5225 18.4136 89.5267 5.06016 89.4946C4.69471 89.4937 3.81837 90.1132 4.09852 88.6074Z" fill="#202334"/>
<path id="Vector_18" d="M1.5127 105.461C12.7781 105.314 24.0435 105.31 35.3089 105.319C35.6763 105.32 36.0436 105.451 36.4494 105.623C36.1848 105.758 35.8817 105.82 35.5787 105.82C24.5505 105.824 13.5224 105.824 2.49423 105.813C2.167 105.812 1.83986 105.678 1.5127 105.461Z" fill="#202334"/>
<path id="Vector_19" d="M72.3987 105.411C82.0223 105.315 91.6348 105.311 101.247 105.32C101.576 105.32 101.905 105.456 102.272 105.631C102.045 105.763 101.78 105.818 101.516 105.818C92.1948 105.823 82.8739 105.827 73.553 105.811C73.1644 105.81 72.776 105.611 72.3987 105.411Z" fill="#202334"/>
<path id="Vector_20" d="M95.523 89.62C95.2792 89.6168 95.1252 89.608 95.2046 89.6125C96.7951 88.8364 98.5662 87.9722 100.377 87.0884C100.47 87.7098 100.601 88.5882 100.753 89.6143C98.968 89.6143 97.2903 89.6143 95.523 89.62Z" fill="#373B4C"/>
<path id="Vector_21" d="M44.2092 46.0929C43.2819 44.6377 43.3261 43.2408 44.2766 42.0475C45.2482 40.8278 47.25 40.1386 48.7951 40.7102C50.9717 41.5155 53.075 41.486 55.2459 40.7439C56.5725 40.2903 57.8865 40.506 59.0652 41.249C60.2359 41.9869 60.8314 43.0579 60.745 44.411C60.6588 45.7624 59.8419 46.7541 58.5746 47.1045C57.3291 47.4489 55.9736 47.4803 54.6614 47.5321C52.9981 47.5978 51.3272 47.4892 49.6643 47.5588C47.6938 47.6412 45.7589 47.7238 44.2092 46.0929Z" fill="#E1E1E1"/>
<path id="Vector_22" d="M40.8528 22.4623C43.4278 23.2848 45.9139 24.0846 48.3971 24.8938C49.8197 25.3574 49.9551 25.8524 49.0114 27.0711C46.4071 30.4344 43.259 30.8387 40.2121 27.9112C38.6369 26.3977 37.4258 24.4759 36.1079 22.6934C35.9133 22.4302 35.883 21.7964 36.0604 21.5528C36.2345 21.3137 36.8068 21.208 37.1407 21.2968C38.3624 21.6219 39.5576 22.0525 40.8528 22.4623Z" fill="#E1E1E1"/>
<path id="Vector_23" d="M61.0002 29.3063C58.506 29.6723 55.9123 28.3471 54.8317 26.2367C54.4946 25.5782 54.7222 25.1438 55.3883 24.9365C59.2946 23.7205 63.2016 22.5063 67.1186 21.3241C67.9687 21.0676 68.6379 21.6978 68.2205 22.3747C66.4434 25.2566 64.6139 28.1227 61.0002 29.3063Z" fill="#E1E1E1"/>
<path id="Vector_24" d="M54.3229 97.2153C59.6836 97.3116 63.7969 100.934 64.2543 105.871C64.7201 110.899 61.3672 115.313 56.3368 116.293C51.2935 117.275 46.1009 113.702 45.2089 108.634C44.2639 103.266 47.8277 98.1528 53.0699 97.3596C53.4526 97.3017 53.8384 97.2639 54.3229 97.2153Z" fill="#FDFDFD"/>
<path id="Vector_25" d="M53.2304 93.2725C53.1847 92.6214 53.068 91.9677 53.287 91.4974C53.4115 91.23 54.295 91.027 54.4683 91.2082C54.8453 91.6024 55.283 92.3569 55.1635 92.7929C54.8912 93.7861 54.1199 93.923 53.2304 93.2725Z" fill="#F2F2F4"/>
<path id="Vector_26" d="M61.3421 94.4614C60.5766 94.8608 59.9506 94.7406 59.7572 93.946C59.6714 93.5934 59.9292 92.979 60.2261 92.7572C60.4688 92.576 61.1077 92.6599 61.3823 92.8767C61.9101 93.2932 61.8897 93.8873 61.3421 94.4614Z" fill="#F2F2F4"/>
<path id="Vector_27" d="M101.081 46.7257C104.012 44.111 107.299 43.3564 110.905 44.7134C114.323 45.9996 116.328 48.5668 116.859 52.186C117.581 57.0976 114.158 61.8055 109.317 62.6413C104.302 63.507 99.5192 60.377 98.4631 55.4913C97.7394 52.1431 98.6493 49.2401 101.081 46.7257Z" fill="#FDFDFD"/>
<path id="Vector_28" d="M108.501 68.8595C107.742 68.8845 107.251 68.5332 107.347 67.8577C107.403 67.4656 107.843 66.9399 108.203 66.8449C108.492 66.7688 109.083 67.1664 109.251 67.5046C109.556 68.1193 109.199 68.6022 108.501 68.8595Z" fill="#F2F2F4"/>
<path id="Vector_29" d="M102.176 67.808C101.315 67.9772 100.731 67.6137 100.754 66.6481C100.765 66.1723 101.192 65.3901 101.51 65.3263C101.91 65.2461 102.687 65.6702 102.763 66.0394C102.865 66.5378 102.454 67.1911 102.176 67.808Z" fill="#F2F2F4"/>
</g>
</svg>
