<svg width="31" height="31" viewBox="0 0 31 31" fill="none" xmlns="http://www.w3.org/2000/svg">
<g id="Image" clip-path="url(#clip0_319_9467)">
<path id="Vector" d="M15.7488 29.6109C23.5422 29.6109 29.8599 23.2931 29.8599 15.4998C29.8599 7.70643 23.5422 1.38867 15.7488 1.38867C7.95545 1.38867 1.6377 7.70643 1.6377 15.4998C1.6377 23.2931 7.95545 29.6109 15.7488 29.6109Z" fill="#CED3D8"/>
<g id="Group">
<g id="Group_2">
<path id="Vector_2" d="M15.7487 29.9446C11.8598 29.9446 8.19312 28.389 5.52645 25.7223C2.85978 23.0557 1.19312 19.389 1.19312 15.5001C1.19312 11.6112 2.74867 7.94455 5.41534 5.27789C8.082 2.61122 11.7487 1.05566 15.6376 1.05566C19.5264 1.05566 23.1931 2.61122 25.8598 5.27789C28.5265 7.94455 30.082 11.6112 30.082 15.5001C30.082 19.389 28.5265 23.0557 25.8598 25.7223C23.1931 28.389 19.6376 29.9446 15.7487 29.9446ZM15.7487 1.72233C8.19311 1.72233 1.97089 7.94455 1.97089 15.5001C1.97089 23.0557 8.082 29.2779 15.7487 29.2779C23.4153 29.2779 29.5264 23.1668 29.5264 15.5001C29.4153 7.94455 23.3042 1.72233 15.7487 1.72233Z" fill="#B69A7D"/>
<path id="Vector_3" d="M15.7487 1.05572C19.6376 1.05572 23.1931 2.50016 25.9709 5.27794C28.7487 8.05572 30.1931 11.6113 30.1931 15.5002C30.1931 19.389 28.7487 22.9446 25.9709 25.7224C23.1931 28.5002 19.6376 29.9446 15.7487 29.9446C11.8598 29.9446 8.30425 28.5002 5.52648 25.7224C2.7487 22.9446 1.30425 19.389 1.30425 15.5002C1.30425 11.6113 2.7487 8.05572 5.52648 5.27794C8.19314 2.50016 11.8598 1.05572 15.7487 1.05572ZM15.7487 29.2779C23.4154 29.2779 29.5265 23.0557 29.5265 15.5002C29.5265 7.94461 23.3043 1.61127 15.7487 1.61127C8.19314 1.61127 1.85981 7.8335 1.85981 15.5002C1.85981 23.1668 8.08203 29.2779 15.7487 29.2779ZM15.7487 0.833496C11.8598 0.833496 8.19314 2.38905 5.41536 5.05572C2.63759 7.72238 1.08203 11.6113 1.08203 15.5002C1.08203 19.389 2.63759 23.0557 5.30425 25.8335C7.97092 28.6113 11.7487 30.0557 15.6376 30.0557C19.5265 30.0557 23.1931 28.5002 25.9709 25.8335C28.7487 23.1668 30.1931 19.389 30.1931 15.5002C30.1931 11.6113 28.6376 7.94461 25.9709 5.16683C23.3043 2.38905 19.6376 0.833496 15.7487 0.833496ZM15.7487 29.1668C8.19314 29.1668 2.08203 23.0557 2.08203 15.5002C2.08203 7.94461 8.19314 1.8335 15.7487 1.8335C23.3043 1.8335 29.4154 7.94461 29.4154 15.5002C29.3043 22.9446 23.1931 29.1668 15.7487 29.1668Z" fill="black"/>
</g>
</g>
<g id="Inner_circle">
<path id="Vector_4" d="M15.7488 26.5C21.8239 26.5 26.7488 21.5751 26.7488 15.5C26.7488 9.42487 21.8239 4.5 15.7488 4.5C9.67365 4.5 4.74878 9.42487 4.74878 15.5C4.74878 21.5751 9.67365 26.5 15.7488 26.5Z" fill="#B69A7D" stroke="black" stroke-width="0.15"/>
</g>
<path id="Vector_5" d="M18.1932 24.6113C19.3043 24.3891 20.9709 24.0557 22.082 23.0557C22.3043 22.9446 22.9709 22.3891 23.3043 21.9446C23.5265 21.7224 23.5265 21.6113 23.7487 21.1668C23.8598 20.9446 23.8598 20.5002 23.8598 20.5002V7.8335H7.52649V20.6113C7.52649 20.6113 7.52649 21.0557 7.6376 21.2779C7.85982 21.6113 7.85982 21.8335 8.08204 22.0557C8.41538 22.5002 9.08204 23.0557 9.30427 23.1668C10.5265 24.0557 12.082 24.3891 13.1932 24.7224C13.6376 24.8335 14.082 25.0557 14.4154 25.1668C14.8598 25.3891 15.5265 25.6113 15.7487 25.9446C15.7487 25.8335 16.3043 25.0557 18.1932 24.6113Z" fill="#FFFFFC" stroke="black" stroke-width="0.2"/>
<path id="Vector_6" d="M23.7488 13.5H15.7488V15.1667H23.7488V13.5Z" fill="#D15A4D"/>
<g id="Vector_7">
<path d="M23.1932 18.9442C23.5265 19.1664 23.6376 18.8331 23.7487 18.6109C23.5265 18.722 23.4154 18.1664 23.1932 18.1664C22.8598 18.0553 22.6376 18.4998 22.5265 18.722C22.4154 18.6109 22.4154 18.4998 22.4154 18.3887L22.5265 18.2775C22.5265 18.1664 22.5265 18.1664 22.5265 18.0553C22.5265 17.8331 22.7487 17.722 22.9709 17.722C22.9709 17.6109 22.7487 16.722 21.9709 16.9442C21.8598 17.0553 21.9709 17.2775 21.9709 17.3886C21.9709 17.3886 21.7487 17.3886 21.6376 17.3886C21.3043 17.3886 21.0821 17.3887 21.1932 17.722C21.1932 17.722 20.7487 17.6109 20.7487 17.722C20.8598 17.9442 21.1932 17.9442 21.3043 17.9442C21.3043 17.9442 21.3043 18.1664 21.5265 18.1664C21.5265 18.2775 21.1932 18.3887 21.0821 18.3887C20.8598 18.4998 20.7487 18.4998 20.6376 18.2775C20.5265 18.0553 20.6376 17.9442 20.5265 17.722C20.5265 17.6109 20.4154 17.4998 20.3043 17.4998C20.0821 17.4998 19.9709 17.722 19.9709 17.9442C19.9709 18.2775 20.3043 18.4998 20.5265 18.722C20.6376 18.8331 20.6376 18.9442 20.5265 18.9442C20.4154 19.0553 20.0821 18.8331 20.0821 18.6109C20.0821 18.4998 19.6376 19.1664 19.8598 19.3887C19.9709 19.4998 20.0821 19.4998 20.1932 19.4998C20.5265 19.6109 20.7487 19.4998 20.9709 19.4998C21.1932 19.4998 21.1932 19.6109 21.3043 19.722C21.4154 19.8331 21.6376 19.8331 21.6376 19.9442C21.5265 20.0553 21.4154 19.9442 21.3043 20.0553C21.1932 20.0553 21.0821 20.1664 20.9709 20.2775C20.8598 20.3886 20.7487 20.3887 20.6376 20.4998L20.5265 20.6109C20.5265 20.722 20.9709 20.9442 21.0821 20.9442C21.0821 21.0553 20.6376 21.0553 20.6376 21.2775C20.9709 21.2775 21.3043 21.3887 21.5265 21.1664C21.8598 20.9442 21.8598 20.8331 22.3043 20.8331C22.3043 21.0553 21.8598 21.0553 21.8598 21.2775C22.3043 21.2775 22.6376 21.3887 22.9709 21.0553C23.0821 20.9442 23.1932 20.722 23.0821 20.6109C22.9709 20.4998 22.8598 20.4998 22.7487 20.4998C22.7487 20.2775 23.0821 20.0553 23.1932 20.0553C23.5265 19.9442 23.5265 19.6109 23.4154 19.2775C23.3043 18.9442 22.9709 18.722 22.9709 18.3887C22.9709 18.2775 23.0821 18.0553 23.1932 18.1664C23.1932 18.4998 22.9709 18.8331 23.1932 18.9442ZM22.9709 19.8331C22.9709 20.0553 22.3043 19.8331 22.1932 19.722C22.0821 19.6109 22.0821 19.4998 22.0821 19.3887L22.3043 18.8331C22.5265 18.8331 22.5265 19.0553 22.6376 19.2775C22.7487 19.4998 22.9709 19.6109 22.9709 19.8331Z" fill="#D15A4D"/>
<path d="M23.1932 18.1664C23.4154 18.1664 23.5265 18.722 23.7487 18.6109C23.6376 18.8331 23.5265 19.1664 23.1932 18.9442C22.9709 18.8331 23.1932 18.4998 23.1932 18.1664ZM23.1932 18.1664C22.8598 18.0553 22.6376 18.4998 22.5265 18.722C22.4154 18.6109 22.4154 18.4998 22.4154 18.3887L22.5265 18.2775C22.5265 18.1664 22.5265 18.1664 22.5265 18.0553C22.5265 17.8331 22.7487 17.722 22.9709 17.722C22.9709 17.6109 22.7487 16.722 21.9709 16.9442C21.8598 17.0553 21.9709 17.2775 21.9709 17.3886C21.9709 17.3886 21.7487 17.3886 21.6376 17.3886C21.3043 17.3886 21.0821 17.3887 21.1932 17.722C21.1932 17.722 20.7487 17.6109 20.7487 17.722C20.8598 17.9442 21.1932 17.9442 21.3043 17.9442C21.3043 17.9442 21.3043 18.1664 21.5265 18.1664C21.5265 18.2775 21.1932 18.3887 21.0821 18.3887C20.8598 18.4998 20.7487 18.4998 20.6376 18.2775C20.5265 18.0553 20.6376 17.9442 20.5265 17.722C20.5265 17.6109 20.4154 17.4998 20.3043 17.4998C20.0821 17.4998 19.9709 17.722 19.9709 17.9442C19.9709 18.2775 20.3043 18.4998 20.5265 18.722C20.6376 18.8331 20.6376 18.9442 20.5265 18.9442C20.4154 19.0553 20.0821 18.8331 20.0821 18.6109C20.0821 18.4998 19.6376 19.1664 19.8598 19.3887C19.9709 19.4998 20.0821 19.4998 20.1932 19.4998C20.5265 19.6109 20.7487 19.4998 20.9709 19.4998C21.1932 19.4998 21.1932 19.6109 21.3043 19.722C21.4154 19.8331 21.6376 19.8331 21.6376 19.9442C21.5265 20.0553 21.4154 19.9442 21.3043 20.0553C21.1932 20.0553 21.0821 20.1664 20.9709 20.2775C20.8598 20.3886 20.7487 20.3887 20.6376 20.4998L20.5265 20.6109C20.5265 20.722 20.9709 20.9442 21.0821 20.9442C21.0821 21.0553 20.6376 21.0553 20.6376 21.2775C20.9709 21.2775 21.3043 21.3887 21.5265 21.1664C21.8598 20.9442 21.8598 20.8331 22.3043 20.8331C22.3043 21.0553 21.8598 21.0553 21.8598 21.2775C22.3043 21.2775 22.6376 21.3887 22.9709 21.0553C23.0821 20.9442 23.1932 20.722 23.0821 20.6109C22.9709 20.4998 22.8598 20.4998 22.7487 20.4998C22.7487 20.2775 23.0821 20.0553 23.1932 20.0553C23.5265 19.9442 23.5265 19.6109 23.4154 19.2775C23.3043 18.9442 22.9709 18.722 22.9709 18.3887C22.9709 18.2775 23.0821 18.0553 23.1932 18.1664ZM22.9709 19.8331C22.9709 20.0553 22.3043 19.8331 22.1932 19.722C22.0821 19.6109 22.0821 19.4998 22.0821 19.3887L22.3043 18.8331C22.5265 18.8331 22.5265 19.0553 22.6376 19.2775C22.7487 19.4998 22.9709 19.6109 22.9709 19.8331Z" stroke="black" stroke-width="0.1"/>
</g>
<g id="Group_3">
<path id="Vector_8" d="M10.7487 22.7224C10.3043 22.7224 10.1932 22.7224 10.1932 22.6113C10.1932 22.5002 10.3043 22.3891 10.6376 22.278C10.7487 22.278 10.8598 22.1669 10.8598 22.1669C10.9709 22.0558 10.9709 21.8336 10.8598 21.6113C10.7487 21.3891 10.5265 21.1669 10.3043 21.1669H10.1932C10.082 21.1669 10.082 21.1669 9.97094 21.1669C9.85983 21.1669 9.85983 21.1669 9.74871 21.0558C9.74871 21.0558 9.6376 20.8335 9.6376 20.5002C9.6376 20.3891 9.6376 20.278 9.6376 20.278C9.52649 19.6113 9.41538 19.0558 9.52649 18.3891C9.6376 17.8336 9.97094 16.9447 10.5265 16.9447C10.6376 16.9447 10.7487 17.0558 10.9709 17.1669C11.082 17.278 11.3043 17.3891 11.4154 17.3891C11.4154 17.3891 11.5265 17.3891 11.6376 17.1669C11.6376 16.7224 11.6376 16.5002 11.8598 16.1669C11.9709 16.0558 12.1932 15.6113 12.5265 15.6113C12.6376 15.6113 12.6376 15.6113 12.6376 15.7224C13.1932 16.0558 13.082 16.7224 13.082 17.1669C13.082 17.278 13.082 17.3891 13.082 17.5002C13.1932 17.5002 13.3043 17.3891 13.3043 17.278C13.4154 17.1669 13.5265 16.9447 13.7487 16.9447C13.7487 16.9447 13.8598 16.9447 13.9709 16.9447C14.4154 17.0558 14.6376 17.6113 14.7487 18.0558C14.8598 18.6113 14.7487 19.1669 14.6376 19.7224C14.6376 19.8335 14.6376 19.9447 14.5265 20.1669C14.5265 20.3891 14.4154 20.7224 14.4154 20.9447C14.3043 21.278 13.9709 21.278 13.6376 21.3891C13.1932 21.5002 12.8598 21.5002 12.7487 21.9447L12.8598 22.0558C13.082 22.278 13.1932 22.3891 13.1932 22.5002C13.1932 22.5002 13.1932 22.6113 12.3043 22.6113C11.8598 22.7224 11.1932 22.7224 10.7487 22.7224Z" fill="#E9D976"/>
<path id="Vector_9" d="M12.4154 15.8338H12.5265C13.3043 16.1671 12.8599 17.056 12.971 17.6115C13.3043 17.6115 13.3043 17.056 13.7487 17.056H13.8599C14.3043 17.1671 14.4154 17.7227 14.5265 18.1671C14.6376 18.7227 14.5265 19.2782 14.4154 19.8338C14.3043 20.1671 14.3043 20.6115 14.1932 21.056C13.971 21.6115 12.5265 21.1671 12.5265 22.1671C12.5265 22.2782 12.971 22.6115 12.971 22.7227C12.971 22.7227 11.5265 22.8338 10.7487 22.8338C10.4154 22.8338 10.3043 22.8338 10.3043 22.7227C10.3043 22.6115 10.971 22.3893 11.0821 22.2782C11.4154 21.8338 10.8599 21.1671 10.4154 21.1671C10.3043 21.1671 10.1932 21.2782 10.0821 21.2782C10.0821 21.2782 9.97096 21.2782 9.97096 21.1671C9.74874 20.9449 9.74874 20.5004 9.74874 20.2782C9.63763 19.7227 9.52652 19.056 9.63763 18.3893C9.74874 17.9449 9.97096 17.056 10.6376 16.9449C10.8599 16.9449 11.1932 17.5004 11.5265 17.5004C11.6376 17.5004 11.7487 17.3893 11.7487 17.2782C11.7487 16.9449 11.7487 16.6115 11.971 16.3893C11.8599 16.2782 12.1932 15.8338 12.4154 15.8338ZM12.4154 15.7227C12.0821 15.7227 11.7487 16.1671 11.7487 16.2782C11.6376 16.5004 11.5265 16.8338 11.5265 17.2782C11.5265 17.3893 11.4154 17.3893 11.4154 17.3893C11.3043 17.3893 11.1932 17.2782 10.971 17.1671C10.7487 17.056 10.6376 16.9449 10.5265 16.9449C9.85985 17.056 9.52652 17.9449 9.41541 18.5004C9.3043 19.056 9.41541 19.7227 9.52652 20.3893C9.52652 20.3893 9.52652 20.5004 9.52652 20.6115C9.52652 20.9449 9.52652 21.1671 9.63763 21.2782C9.74874 21.3893 9.74874 21.3893 9.85985 21.3893C9.97096 21.3893 9.97096 21.3893 10.0821 21.3893H10.1932C10.4154 21.3893 10.6376 21.6115 10.7487 21.8338C10.8599 22.056 10.8599 22.1671 10.7487 22.2782C10.7487 22.2782 10.5265 22.3893 10.4154 22.5004C10.0821 22.6115 9.97096 22.7227 9.97096 22.8338C9.97096 22.9449 10.0821 22.9449 10.5265 22.9449C10.971 22.9449 11.6376 22.9449 11.971 22.8338C12.1932 22.8338 12.4154 22.8338 12.5265 22.8338C12.6376 22.8338 12.6376 22.8338 12.7487 22.8338C12.8599 22.8338 12.8599 22.8338 12.8599 22.7227C12.8599 22.6115 12.7487 22.5004 12.5265 22.2782L12.4154 22.1671C12.4154 21.8338 12.7487 21.7227 13.1932 21.6115C13.5265 21.5004 13.971 21.5004 14.0821 21.1671C14.1932 20.9449 14.1932 20.7227 14.1932 20.3893C14.1932 20.2782 14.1932 20.056 14.3043 19.9449C14.4154 19.3893 14.5265 18.8338 14.4154 18.2782C14.3043 17.9449 14.1932 17.2782 13.6376 17.056C13.5265 17.056 13.5265 17.056 13.4154 17.056C13.1932 17.056 13.0821 17.2782 12.971 17.3893C12.971 17.5004 12.8599 17.5004 12.8599 17.6115C12.8599 17.5004 12.8599 17.3893 12.8599 17.2782C12.971 16.7227 12.971 16.1671 12.4154 15.8338C12.5265 15.7227 12.5265 15.7227 12.4154 15.7227Z" fill="black"/>
</g>
<path id="Vector_10" d="M15.7488 25.7221C16.0821 25.3887 16.6377 25.1665 17.0821 24.9443C17.3043 24.8332 17.8599 24.6109 18.3043 24.4998C18.6377 24.3887 18.7488 24.3887 19.4154 24.2776V15.1665H15.7488V25.7221Z" fill="#D15A4D"/>
<path id="Vector_11" d="M7.52649 15.1665H23.8598" stroke="black" stroke-width="0.2" stroke-linejoin="round"/>
<g id="Group_4">
<path id="Vector_12" d="M18.1932 21.6113C17.8599 21.6113 17.7488 21.5002 17.7488 21.0557V20.9446C17.7488 20.7224 17.7488 20.5002 17.6377 20.3891C17.6377 20.3891 17.6377 20.3891 17.5266 20.3891C17.5266 20.3891 17.5266 20.3891 17.4155 20.3891C17.1932 20.5002 17.3043 21.0557 17.3043 21.3891C17.3043 21.5002 17.3043 21.5002 17.3043 21.6113H17.1932C17.0821 21.6113 16.8599 21.6113 16.6377 21.6113C16.5266 21.6113 16.4155 21.6113 16.3043 21.6113C16.1932 21.6113 16.0821 21.6113 15.971 21.6113C15.971 21.5002 15.971 21.5002 15.971 21.3891C15.971 21.1668 15.8599 20.9446 15.971 20.7224C15.971 20.6113 16.0821 20.6113 16.1932 20.5002C16.3043 20.5002 16.3043 20.3891 16.4155 20.2779C16.6377 19.7224 16.4155 18.9446 16.3043 18.3891C16.3043 18.2779 16.3043 18.2779 16.3043 18.1668C16.3043 17.9446 16.3043 17.3891 16.4155 17.1668C16.5266 17.1668 16.5266 17.1668 16.6377 17.1668C16.7488 17.1668 16.7488 17.1668 16.8599 17.1668H16.971V17.2779C16.971 17.5002 16.971 17.6113 16.971 17.8335C16.971 17.8335 17.0821 17.8335 17.0821 17.7224C17.1932 17.6113 17.1932 17.2779 17.1932 16.9446C17.1932 16.8335 17.4155 16.8335 17.5266 16.8335C17.6377 16.8335 17.7488 16.8335 17.8599 16.9446C17.8599 16.9446 17.8599 16.9446 17.8599 17.0557C17.8599 17.5002 17.8599 17.7224 17.971 17.8335C18.0821 17.7224 18.0821 17.3891 18.0821 17.2779H18.1932C18.3043 17.2779 18.3043 17.2779 18.4155 17.3891C18.5266 17.5002 18.6377 17.8335 18.6377 18.3891C18.5266 18.3891 18.4155 18.5002 18.4155 18.7224C18.4155 18.9446 18.4155 19.1668 18.4155 19.3891C18.4155 19.6113 18.4155 19.9446 18.4155 20.1668C18.7488 20.3891 18.8599 21.0557 18.8599 21.5002V21.7224C18.7488 21.7224 18.6377 21.7224 18.5266 21.7224C18.4155 21.6113 18.3043 21.6113 18.1932 21.6113Z" fill="#AF957C"/>
<path id="Vector_13" d="M17.5265 16.7222C17.6377 16.7222 17.7488 16.7222 17.8599 16.7222C17.8599 16.7222 17.8599 17.3889 17.971 17.6111C18.1932 17.6111 18.1932 16.9444 18.1932 16.9444C18.1932 16.9444 18.1932 16.9444 18.3043 16.9444C18.4154 16.9444 18.7488 17.0556 18.7488 17.9444C18.5265 17.9444 18.5265 18.1667 18.5265 18.3889C18.5265 18.8333 18.4154 19.3889 18.5265 19.8333C18.971 20.0556 18.8599 21.0556 18.8599 21.1667V21.3889C18.6377 21.3889 18.4154 21.3889 18.3043 21.3889C18.0821 21.3889 17.971 21.2778 17.971 20.8333C17.971 20.6111 18.0821 20.0556 17.7488 20.0556C17.7488 20.0556 17.7488 20.0556 17.6377 20.0556C17.3043 20.1667 17.5265 21.0556 17.5265 21.2778C17.3043 21.2778 17.1932 21.2778 16.971 21.2778C16.7488 21.2778 16.5265 21.2778 16.3043 21.2778C16.3043 21.0556 16.1932 20.6111 16.3043 20.3889C16.4154 20.1667 16.6377 20.1667 16.7488 19.9444C17.0821 19.3889 16.7488 18.3889 16.5265 17.7222C16.5265 17.3889 16.5265 17.0556 16.6377 16.7222C16.7488 16.7222 16.8599 16.7222 16.971 16.7222C16.971 16.9444 16.971 17.1667 17.0821 17.3889C17.5265 17.3889 17.3043 16.5 17.3043 16.5C17.3043 16.7222 17.4154 16.7222 17.5265 16.7222ZM17.5265 16.6111C17.3043 16.6111 17.1932 16.6111 17.0821 16.8333C17.0821 17.1667 17.0821 17.5 17.0821 17.5C17.0821 17.3889 17.0821 17.1667 17.0821 17.0556V16.9444H16.971C16.8599 16.9444 16.8599 16.9444 16.7488 16.9444C16.6377 16.9444 16.6377 16.9444 16.5265 16.9444H16.4154V17.0556C16.4154 17.3889 16.4154 17.8333 16.4154 18.0556V18.1667V18.2778C16.5265 18.8333 16.7488 19.7222 16.5265 20.1667C16.5265 20.2778 16.4154 20.2778 16.3043 20.3889C16.1932 20.5 16.1932 20.5 16.0821 20.6111C15.971 20.7222 16.0821 21.0556 16.0821 21.2778C16.0821 21.3889 16.0821 21.5 16.0821 21.5V21.6111H16.1932C16.3043 21.6111 16.4154 21.6111 16.5265 21.6111C16.6377 21.6111 16.7488 21.6111 16.8599 21.6111C17.0821 21.6111 17.1932 21.6111 17.3043 21.6111H17.4154V21.5C17.4154 21.5 17.4154 21.3889 17.4154 21.2778C17.4154 21.0556 17.4154 20.8333 17.4154 20.6111C17.4154 20.2778 17.5265 20.2778 17.5265 20.2778C17.6377 20.3889 17.6377 20.6111 17.5265 20.8333C17.5265 20.9444 17.5265 20.9444 17.5265 20.9444C17.5265 21.3889 17.6377 21.6111 17.971 21.6111C18.0821 21.6111 18.0821 21.6111 18.1932 21.6111C18.3043 21.6111 18.4154 21.6111 18.5265 21.6111H18.6377C18.6377 21.5 18.6377 21.3889 18.6377 21.3889C18.6377 20.8333 18.6377 20.2778 18.1932 20.0556C18.1932 19.8333 18.1932 19.5 18.1932 19.2778C18.1932 19.0556 18.1932 18.8333 18.1932 18.6111C18.1932 18.3889 18.1932 18.2778 18.3043 18.2778H18.4154V18.1667C18.4154 17.7222 18.3043 17.2778 18.1932 17.1667C18.0821 17.0556 17.971 17.0556 17.8599 17.0556C17.7488 17.0556 17.7488 17.0556 17.7488 17.0556H17.6377V17.1667C17.6377 17.2778 17.6377 17.5 17.5265 17.6111C17.5265 17.5 17.4154 17.2778 17.5265 16.8333V16.6111C17.8599 16.7222 17.8599 16.6111 17.5265 16.6111Z" fill="black"/>
</g>
<path id="Vector_14" d="M8.97099 10.1665H8.30432V15.0554H8.97099V10.1665Z" fill="#D35E57"/>
<path id="Vector_15" d="M10.1932 10.1665H9.52649V15.0554H10.1932V10.1665Z" fill="#D35E57"/>
<path id="Vector_16" d="M11.3043 10.1665H10.7488V15.0554H11.3043V10.1665Z" fill="#D35E57"/>
<path id="Vector_17" d="M12.5265 10.1665H11.9709V15.0554H12.5265V10.1665Z" fill="#D35E57"/>
<path id="Vector_18" d="M13.7488 10.1665H13.1932V15.0554H13.7488V10.1665Z" fill="#D35E57"/>
<path id="Vector_19" d="M14.971 10.1665H14.4154V15.0554H14.971V10.1665Z" fill="#D35E57"/>
<path id="Vector_20" d="M15.7488 10.1668V7.8335H7.6377V10.1668H15.7488Z" fill="#334B69"/>
<path id="Vector_21" d="M15.6377 7.8335V25.8335" stroke="black" stroke-width="0.2" stroke-linejoin="round"/>
<g id="Group_5">
<path id="Vector_22" d="M5.41542 16.1668C5.41542 16.1668 5.19319 14.9446 5.3043 14.3891C5.3043 14.0557 5.52653 13.7224 5.63764 13.5002C5.74875 13.3891 5.74875 13.1668 5.85986 13.0557C5.85986 12.8335 5.97097 12.7224 5.97097 12.5002C6.08208 11.8335 6.3043 11.1668 6.85986 10.8335C6.97097 11.0557 6.74875 11.3891 6.63764 11.5002C6.63764 11.6113 6.52653 11.6113 6.52653 11.6113C6.3043 11.9446 6.19319 12.1668 6.3043 12.5002C6.3043 12.8335 6.52653 13.1668 6.63764 13.5002C6.85986 13.9446 7.08208 14.3891 6.97097 14.9446V15.0557L6.85986 14.9446C6.41542 14.3891 6.19319 13.8335 6.08208 13.1668V13.2779C6.08208 13.5002 6.19319 13.6113 6.19319 13.7224C6.3043 14.0557 6.41542 14.2779 6.19319 14.7224C6.08208 14.7224 6.08208 14.7224 5.97097 14.6113C5.74875 14.3891 5.85986 13.9446 5.85986 13.6113C5.74875 13.8335 5.74875 13.9446 5.74875 14.1668C5.74875 14.2779 5.74875 14.3891 5.74875 14.6113C5.74875 14.8335 5.85986 15.1668 5.74875 15.3891C5.74875 15.5002 5.52653 16.1668 5.41542 16.1668Z" fill="#31968F"/>
<path id="Vector_23" d="M6.85989 10.8333C6.971 11.0555 6.52655 11.4999 6.41544 11.6111C6.19322 11.9444 6.08211 12.1666 6.19322 12.6111C6.30433 13.4999 6.971 14.0555 6.85989 15.0555C6.41544 14.3888 6.19322 13.7222 5.971 13.0555C5.971 13.1666 5.971 13.2777 5.971 13.3888C6.08211 13.9444 6.41544 14.1666 6.08211 14.8333C5.63766 14.8333 5.85989 13.7222 5.85989 13.4999C5.74878 13.8333 5.63767 14.0555 5.63767 14.3888C5.63767 14.7222 5.85989 15.1666 5.63767 15.4999C5.63767 15.6111 5.41544 16.2777 5.30433 16.2777C5.30433 16.2777 5.08211 15.0555 5.19322 14.4999C5.30433 14.0555 5.52655 13.6111 5.63767 13.1666C6.08211 12.2777 6.08211 11.2777 6.85989 10.8333ZM6.85989 10.7222C6.19322 11.1666 5.971 11.8333 5.85989 12.4999C5.85989 12.7222 5.74878 12.8333 5.74878 13.0555C5.74878 13.1666 5.63766 13.3888 5.52655 13.4999C5.41544 13.7222 5.30433 14.0555 5.30433 14.3888C5.19322 14.9444 5.30433 16.0555 5.30433 16.1666V16.4999L5.41544 16.2777C5.41544 16.2777 5.63766 15.6111 5.74878 15.4999C5.85989 15.2777 5.85989 15.0555 5.74878 14.7222C5.85989 14.8333 5.85989 14.8333 5.971 14.8333H6.08211V14.7222C6.19322 14.4999 6.19322 14.2777 6.19322 14.1666C6.30433 14.4999 6.41544 14.7222 6.63766 15.0555L6.74878 15.2777V14.9444C6.74878 14.3888 6.63766 13.9444 6.41544 13.4999C6.30433 13.1666 6.08211 12.8333 6.08211 12.4999C6.08211 12.1666 6.19322 11.9444 6.30433 11.6111L6.41544 11.4999C6.85989 11.3888 7.08211 11.0555 6.85989 10.7222Z" fill="black"/>
</g>
<g id="Group_6">
<path id="Vector_24" d="M12.4154 22.2777C12.4154 22.2777 12.3043 22.2777 12.1931 22.2777C12.082 22.2777 11.6376 22.0555 11.1931 21.8333C11.082 21.7222 10.9709 21.7222 10.8598 21.7222C10.7487 21.7222 10.7487 21.8333 10.6376 21.9444C10.6376 22.0555 10.5265 22.2777 10.3043 22.2777H10.1931C10.082 22.2777 10.082 22.2777 10.082 22.2777C10.082 22.1666 10.082 22.1666 10.082 22.0555C10.082 21.9444 10.082 21.8333 10.082 21.8333C10.082 21.8333 10.082 21.8333 9.97092 21.8333C9.85981 21.8333 9.7487 21.8333 9.63759 21.8333C9.52648 21.8333 9.41536 21.8333 9.30425 21.8333C9.30425 21.8333 9.08203 21.8333 9.08203 21.7222C9.08203 21.6111 9.08203 21.4999 9.19314 21.3888C9.30425 21.2777 9.41536 21.1666 9.63759 21.0555C9.85981 21.0555 10.082 20.7222 10.1931 20.3888C10.3043 20.0555 10.5265 19.7222 10.7487 19.6111C10.8598 19.4999 11.082 19.2777 11.3043 19.1666C11.5265 19.0555 11.7487 18.8333 11.8598 18.7222C12.1931 18.3888 12.7487 17.4999 12.7487 16.8333C12.7487 16.6111 12.6376 16.3888 12.4154 16.1666C12.3043 16.0555 11.6376 16.0555 11.082 16.0555C10.7487 16.0555 10.5265 16.0555 10.4154 16.0555H10.1931L10.4154 15.9444C10.7487 15.8333 11.1931 15.7222 11.7487 15.7222C11.9709 15.7222 12.1931 15.7222 12.4154 15.8333C12.9709 16.0555 13.3043 16.3888 13.4154 16.8333C13.6376 17.6111 12.9709 18.7222 12.4154 19.2777C12.3043 19.3888 12.1931 19.4999 12.082 19.6111C11.6376 19.9444 10.9709 20.3888 10.9709 20.8333C10.9709 21.0555 10.9709 21.1666 11.082 21.1666C11.1931 21.1666 11.3043 21.0555 11.5265 20.9444C11.7487 20.8333 11.8598 20.6111 12.082 20.6111C12.3043 20.6111 12.3043 20.7222 12.3043 20.8333C12.3043 20.9444 12.3043 20.9444 12.4154 20.9444C12.4154 20.9444 12.4154 20.9444 12.5265 20.9444C12.6376 20.9444 12.7487 20.8333 12.9709 20.8333C13.3043 20.8333 13.6376 20.9444 13.8598 21.1666C13.9709 21.1666 14.082 21.1666 14.1931 21.2777C14.4154 21.2777 14.7487 21.3888 14.8598 21.4999C14.9709 21.6111 14.9709 21.7222 14.8598 21.8333C14.7487 22.0555 14.4154 22.1666 14.3043 22.1666C14.1931 22.1666 14.1931 22.0555 14.082 21.9444C14.082 21.8333 13.9709 21.8333 13.9709 21.8333H13.8598C13.7487 21.8333 13.7487 21.8333 13.6376 21.8333C13.5265 21.8333 13.4154 21.8333 13.1931 21.9444C13.082 21.9444 13.082 22.0555 13.082 22.1666C12.6376 22.1666 12.6376 22.2777 12.4154 22.2777Z" fill="#299790"/>
<path id="Vector_25" d="M11.7487 15.6111C11.9709 15.6111 12.1932 15.6111 12.4154 15.7222C14.082 16.2778 13.3043 18.1667 12.3043 19.0556C11.9709 19.3889 10.8598 19.9444 10.8598 20.5C10.8598 20.7222 10.9709 20.8333 11.082 20.8333C11.3043 20.8333 11.7487 20.2778 11.9709 20.2778C12.1932 20.2778 12.1932 20.6111 12.3043 20.6111C12.3043 20.6111 12.5265 20.5 12.8598 20.5C13.082 20.5 13.4154 20.6111 13.6376 20.8333C13.8598 20.9444 14.4154 20.9444 14.5265 21.1667C14.7487 21.5 14.3043 21.7222 14.082 21.7222C13.9709 21.7222 13.8598 21.3889 13.7487 21.3889C13.6376 21.3889 13.5265 21.3889 13.4154 21.3889C13.3043 21.3889 13.1932 21.3889 12.9709 21.5C12.7487 21.6111 12.7487 22.0556 12.5265 22.0556H12.4154C12.082 22.1667 10.8598 21.6111 10.8598 21.6111C10.5265 21.6111 10.6376 22.0556 10.3043 22.1667H10.1932C9.85982 22.1667 10.3043 21.8333 9.97093 21.7222H9.85982C9.74871 21.7222 9.41537 21.8333 9.30426 21.8333C9.08204 21.8333 8.97093 21.7222 9.19315 21.5C9.30426 21.3889 9.41537 21.2778 9.6376 21.1667C10.082 21.0556 10.3043 20.0556 10.8598 19.7222C11.1932 19.3889 11.7487 19.1667 11.9709 18.8333C12.5265 18.2778 13.3043 16.8333 12.5265 16.2778C12.1932 15.9444 10.8598 16.0556 10.4154 15.9444C10.7487 15.8333 11.1932 15.6111 11.7487 15.6111ZM11.7487 15.5C11.3043 15.5 10.7487 15.6111 10.4154 15.7222L10.082 15.8333L10.4154 16.0556C10.5265 16.0556 10.8598 16.0556 11.082 16.0556C11.6376 16.0556 12.3043 16.0556 12.5265 16.2778C12.7487 16.3889 12.7487 16.6111 12.8598 16.8333C12.8598 17.5 12.4154 18.2778 12.082 18.7222C11.9709 18.8333 11.7487 19.0556 11.5265 19.1667C11.1932 19.2778 10.9709 19.3889 10.8598 19.6111C10.6376 19.8333 10.4154 20.1667 10.3043 20.3889C10.082 20.7222 9.97093 20.9444 9.74871 21.0556C9.52648 21.1667 9.30426 21.2778 9.19315 21.3889C9.08204 21.5 9.08204 21.7222 9.08204 21.8333C9.19315 21.9444 9.30426 21.9444 9.41537 21.9444C9.52648 21.9444 9.6376 21.9444 9.74871 21.9444C9.85982 21.9444 9.97093 21.9444 9.97093 21.9444H10.082C10.082 21.9444 10.082 21.9444 10.082 22.0556C10.082 22.1667 10.082 22.2778 10.082 22.2778C10.082 22.2778 10.1932 22.3889 10.3043 22.3889H10.4154C10.6376 22.3889 10.7487 22.1667 10.7487 22.0556C10.7487 21.9444 10.8598 21.8333 10.8598 21.8333C10.8598 21.8333 10.9709 21.9444 11.082 21.9444C11.5265 22.1667 11.9709 22.3889 12.082 22.3889C12.1932 22.3889 12.1932 22.3889 12.3043 22.3889C12.5265 22.3889 12.6376 22.1667 12.7487 22.0556C12.7487 21.9444 12.8598 21.8333 12.8598 21.8333C13.082 21.7222 13.1932 21.7222 13.3043 21.7222C13.4154 21.7222 13.4154 21.7222 13.5265 21.7222H13.6376L13.7487 21.8333C13.8598 21.9444 13.8598 22.0556 13.9709 22.0556C14.082 22.0556 14.4154 21.8333 14.5265 21.6111C14.5265 21.5 14.5265 21.3889 14.5265 21.2778C14.4154 21.0556 14.082 21.0556 13.8598 21.0556C13.7487 21.0556 13.6376 21.0556 13.5265 20.9444C13.3043 20.7222 12.9709 20.6111 12.6376 20.6111C12.4154 20.6111 12.3043 20.6111 12.1932 20.7222V20.6111C12.1932 20.5 12.082 20.2778 11.8598 20.2778C11.6376 20.2778 11.5265 20.5 11.3043 20.6111C11.1932 20.7222 10.9709 20.8333 10.9709 20.8333C10.8598 20.8333 10.8598 20.7222 10.8598 20.5C10.8598 20.0556 11.4154 19.7222 11.8598 19.3889C11.9709 19.2778 12.1932 19.1667 12.3043 19.0556C12.9709 18.5 13.5265 17.3889 13.4154 16.6111C13.3043 16.1667 12.9709 15.7222 12.4154 15.6111C12.1932 15.6111 11.9709 15.5 11.7487 15.5Z" fill="black"/>
</g>
<g id="Text">
<path id="Vector_26" d="M8.30433 25.1667C8.19322 25.2778 8.30433 25.3889 8.41544 25.3889L8.63766 25.2778C8.74877 25.2778 8.52655 25.6111 8.41544 25.7222C8.30433 25.8333 8.41544 25.5 8.30433 25.3889C8.19322 25.2778 8.08211 25.3889 8.08211 25.5L7.971 25.6111C7.971 25.6111 7.971 25.7222 7.85989 25.7222C7.85989 25.8333 7.85989 25.8333 7.85989 25.8333C7.85989 25.8333 7.971 25.9444 7.85989 25.9444C7.85989 25.9444 7.63766 25.7222 7.52655 25.7222C7.41544 25.6111 7.19322 25.6111 7.30433 25.5C7.30433 25.5 7.41544 25.5 7.52655 25.5L7.63766 25.3889C7.74877 25.1667 7.971 24.9444 8.08211 24.8333C8.19322 24.6111 8.08211 24.7222 8.08211 24.6111C8.08211 24.6111 7.971 24.6111 8.08211 24.5L8.63766 24.9444C8.74877 25.0556 8.971 25.1667 8.74877 25.2778C8.63766 25.3889 8.63766 25.2778 8.63766 25.1667C8.74877 24.9444 8.63766 24.8333 8.52655 24.9444C8.41544 24.9444 8.30433 25.0556 8.30433 25.1667Z" fill="black"/>
<path id="Vector_27" d="M9.52658 26.9445C8.97103 26.6111 9.7488 25.3889 10.1932 25.7223C10.4155 26.0556 9.97103 27.1667 9.52658 26.9445ZM9.41547 27.0556C10.1932 27.5 10.971 26.3889 10.1932 25.8334C9.41547 25.0556 8.52658 26.5 9.41547 27.0556Z" fill="black"/>
<path id="Vector_28" d="M12.0822 27.5003C11.9711 27.8337 11.86 27.9448 11.5266 27.8337C11.3044 27.8337 10.9711 27.6114 10.9711 27.2781C10.9711 27.0559 11.1933 26.7225 11.1933 26.5003V26.3892C11.1933 26.3892 11.1933 26.2781 11.0822 26.2781C11.0822 26.2781 10.9711 26.167 11.0822 26.167C11.1933 26.167 11.7488 26.3892 11.7488 26.3892C11.7488 26.5003 11.6377 26.3892 11.6377 26.3892C11.5266 26.5003 11.5266 26.5003 11.5266 26.6114C11.5266 26.7225 11.4155 26.8337 11.4155 27.0559C11.3044 27.167 11.1933 27.3892 11.3044 27.6114C11.4155 27.8337 11.7488 27.8337 11.86 27.7225C11.9711 27.6114 11.9711 27.3892 12.0822 27.2781C12.0822 27.167 12.3044 26.9448 12.1933 26.8337C12.1933 26.7225 11.9711 26.6114 12.1933 26.7225L12.5266 26.8337C12.5266 26.9448 12.4155 26.8337 12.4155 26.8337C12.1933 26.9448 12.0822 27.2781 12.0822 27.5003Z" fill="black"/>
<path id="Vector_29" d="M13.971 27.3888C13.971 27.1666 13.6377 27.0555 14.0821 27.0555C14.1932 27.0555 14.4155 27.0555 14.3043 27.1666C14.3043 27.1666 14.1932 27.1666 14.0821 27.2777C13.971 27.3888 13.971 27.6111 13.971 27.7222C13.971 27.9444 13.8599 28.1666 13.8599 28.3888C13.8599 28.4999 13.8599 28.7222 13.6377 28.4999C13.5266 28.3888 13.5266 28.2777 13.5266 28.1666C13.4155 27.8333 13.1932 27.4999 13.0821 27.2777C13.0821 27.4999 12.971 27.7222 12.971 27.8333C12.971 27.9444 12.971 27.9444 12.971 28.0555C12.971 28.1666 12.971 28.1666 12.971 28.2777C12.971 28.2777 13.0821 28.2777 13.0821 28.3888C13.0821 28.4999 12.6377 28.3888 12.6377 28.3888C12.5266 28.2777 12.7488 28.2777 12.7488 28.2777C12.8599 28.1666 12.8599 27.7222 12.8599 27.6111C12.8599 27.4999 12.8599 27.3888 12.8599 27.2777V27.1666L12.7488 27.0555C12.7488 26.9444 13.0821 26.9444 13.1932 27.0555C13.3043 27.1666 13.4155 27.3888 13.4155 27.4999C13.5266 27.7222 13.6377 27.8333 13.6377 28.0555L13.971 27.3888Z" fill="black"/>
<path id="Vector_30" d="M15.3044 27.3892C15.3044 27.0559 15.7488 27.2781 15.86 27.5003C15.9711 27.8337 15.9711 28.5003 15.5266 28.5003C15.0822 28.5003 15.3044 27.6114 15.3044 27.3892ZM14.86 28.2781C14.86 28.3892 14.86 28.3892 14.7488 28.5003C14.7488 28.5003 14.6377 28.5003 14.7488 28.6114C14.86 28.6114 15.3044 28.6114 15.4155 28.6114C15.5266 28.6114 15.6377 28.6114 15.86 28.5003C16.5266 28.167 16.3044 27.2781 15.6377 27.167C15.4155 27.167 15.1933 27.167 14.9711 27.167C14.9711 27.167 14.7488 27.167 14.7488 27.2781C14.7488 27.3892 14.86 27.2781 14.9711 27.3892C15.0822 27.5003 14.9711 27.7225 14.9711 27.8337C14.86 27.9448 14.86 28.0559 14.86 28.2781Z" fill="black"/>
<path id="Vector_31" d="M17.3043 27.4999C17.3043 27.611 17.5265 27.611 17.6376 27.4999C17.6376 27.4999 17.6376 27.2777 17.7488 27.2777C17.8599 27.2777 17.8599 27.3888 17.8599 27.4999C17.8599 27.611 17.971 27.8332 17.8599 27.8332C17.7488 27.8332 17.7488 27.611 17.5265 27.7221C17.3043 27.8332 17.5265 28.3888 17.7488 28.2777C17.8599 28.2777 17.8599 28.2777 17.971 28.1666L18.0821 27.9443C18.1932 27.8332 18.1932 28.0554 18.1932 28.1666C18.1932 28.3888 18.1932 28.2777 17.971 28.3888C17.7488 28.3888 17.4154 28.4999 17.1932 28.4999C16.8599 28.4999 17.0821 28.4999 17.1932 28.3888C17.1932 28.2777 17.1932 28.1666 17.1932 28.0554C17.1932 27.8332 17.1932 27.611 17.0821 27.3888C17.0821 27.2777 17.0821 27.2777 16.971 27.1666H16.8599C16.8599 27.0554 17.3043 27.0554 17.4154 27.0554C17.5265 27.0554 17.7488 26.9443 17.8599 26.9443C17.971 26.9443 17.971 26.9443 17.971 27.0554C17.971 27.0554 17.971 27.1666 17.971 27.2777C17.8599 27.3888 17.8599 27.2777 17.8599 27.2777C17.7488 27.2777 17.5265 27.0554 17.4154 27.2777C17.1932 27.2777 17.3043 27.4999 17.3043 27.4999Z" fill="black"/>
<path id="Vector_32" d="M18.8599 26.9446C18.7488 26.5002 19.3043 26.7224 19.4155 26.9446C19.6377 27.1668 19.7488 27.9446 19.3043 27.9446C19.0821 27.9446 18.971 27.1668 18.8599 26.9446ZM18.7488 27.8335C18.8599 28.0557 18.5266 28.1668 18.8599 28.1668C19.1932 28.0557 19.5266 28.0557 19.7488 27.8335C20.1932 27.278 19.7488 26.5002 19.0821 26.6113C18.8599 26.6113 18.6377 26.7224 18.4155 26.8335C18.0821 27.0557 18.4155 26.9446 18.5266 27.0557C18.6377 27.1668 18.6377 27.3891 18.6377 27.5002C18.7488 27.6113 18.7488 27.7224 18.7488 27.8335Z" fill="black"/>
<path id="Vector_33" d="M22.3043 26.389L22.4154 26.5001H22.5265C22.6377 26.6112 22.6377 26.6112 22.4154 26.6112C22.3043 26.7223 22.0821 26.8335 21.971 26.8335C21.8599 26.8335 21.8599 26.9446 21.8599 26.7223C21.8599 26.6112 21.971 26.7223 21.971 26.5001C21.971 26.389 21.8599 26.389 21.8599 26.2779C21.7488 26.1668 21.7488 25.9446 21.5265 25.8335C21.4154 25.7223 21.5265 25.7223 21.3043 25.8335L21.1932 25.9446C21.0821 25.8335 21.4154 25.6112 21.4154 25.6112C21.5265 25.5001 21.5265 25.389 21.6377 25.5001C21.7488 25.6112 21.8599 25.8335 21.8599 25.9446C22.0821 26.0557 22.1932 26.2779 22.3043 26.389Z" fill="black"/>
<path id="Vector_34" d="M23.3044 25.0556C23.1933 24.7222 23.0822 24.9444 22.86 25.0556L22.6378 25.2778L22.4155 25.0556C22.4155 24.9444 22.7489 24.7222 22.86 24.7222C22.9711 24.7222 23.0822 24.5 23.1933 24.5C23.3044 24.5 23.3044 24.5 23.3044 24.6111C23.4155 24.8333 23.4155 25.1667 23.5266 25.3889C23.5266 25.6111 23.6378 25.7222 23.6378 25.9444C23.6378 26.2778 23.5266 26.0556 23.5266 25.8333C23.4155 25.5 23.4155 25.2778 23.3044 25.0556Z" fill="black"/>
<path id="Vector_35" d="M24.971 24.611C24.7488 24.8332 24.3043 24.4999 24.5266 24.2777C24.6377 24.0555 25.1932 24.3888 24.971 24.611ZM24.971 24.7221C25.1932 24.4999 25.1932 24.2777 25.0821 24.0555C24.971 23.9444 24.8599 23.9444 24.7488 23.8332C24.7488 23.8332 24.5266 23.9444 24.5266 23.8332V23.611C24.5266 23.4999 24.4154 23.4999 24.4154 23.3888C24.1932 23.2777 23.971 23.3888 23.8599 23.611C23.7488 23.7221 23.6377 23.9444 23.7488 24.1666C23.7488 24.2777 23.8599 24.2777 23.971 24.3888H24.1932C24.1932 24.3888 24.0821 24.611 24.1932 24.7221C24.1932 24.8332 24.3043 24.8332 24.4154 24.9444C24.6377 24.9444 24.8599 24.8332 24.971 24.7221ZM24.4154 23.9444C24.3043 24.0555 23.7488 24.0555 23.971 23.7221C24.0821 23.4999 24.5266 23.8332 24.4154 23.9444Z" fill="black"/>
<path id="Vector_36" d="M25.971 23.0558C26.0821 23.1669 26.0821 23.0558 26.1932 23.0558C26.3043 23.0558 26.3043 23.0558 26.1932 23.1669C26.0821 23.278 25.971 23.3892 25.8599 23.5003C25.7488 23.6114 25.7488 23.6114 25.7488 23.5003C25.7488 23.3892 25.8599 23.3892 25.7488 23.278C25.7488 23.278 25.6377 23.1669 25.5266 23.1669C25.4154 23.0558 25.1932 22.8336 25.0821 22.8336C24.971 22.7225 24.971 22.7225 24.8599 22.8336C24.7488 22.9447 24.8599 23.0558 24.7488 22.9447L24.8599 22.5003C24.8599 22.3892 24.8599 22.3892 24.971 22.3892C25.0821 22.3892 25.3043 22.6114 25.4154 22.7225C25.6377 22.8336 25.8599 22.9447 25.971 23.0558Z" fill="black"/>
<path id="Vector_37" d="M4.97103 10.3891C5.19325 10.5002 4.97103 10.9447 4.85992 11.1669C4.63769 11.3891 4.30436 11.5002 3.97103 11.3891C3.63769 11.278 3.41547 10.8335 3.52658 10.5002C3.52658 10.278 3.74881 9.94465 3.97103 10.0558C4.19325 10.1669 3.85992 10.1669 3.74881 10.278C3.41547 10.6113 3.85992 10.9446 4.19325 11.0558C4.41547 11.1669 4.97103 11.1669 4.97103 10.7224C4.97103 10.6113 4.52658 10.1669 4.97103 10.3891Z" fill="black"/>
<path id="Vector_38" d="M5.30431 9.49995C5.52653 9.61106 5.74875 9.27772 5.52653 9.72217C5.52653 9.83328 5.41542 10.0555 5.30431 10.0555C5.1932 10.0555 5.30431 9.94439 5.30431 9.94439C5.1932 9.72217 4.63764 9.49995 4.41542 9.38883L4.30431 9.27772L4.1932 9.38883C4.08209 9.38883 4.08209 9.38883 4.1932 9.16661C4.1932 9.0555 4.41542 8.72217 4.41542 8.72217C4.52653 8.72217 4.41542 8.83328 4.41542 8.83328C4.52653 9.16661 5.08209 9.38883 5.30431 9.49995Z" fill="black"/>
<path id="Vector_39" d="M6.08211 8.27783C6.30433 8.50005 6.52656 8.16672 6.41545 8.50005C6.30433 8.61117 6.08211 8.9445 5.971 8.83339V8.61117C5.971 8.61117 5.85989 8.61117 5.85989 8.50005C5.74878 8.50005 5.63767 8.38894 5.52656 8.27783C5.30433 8.16672 4.971 7.83339 4.971 8.27783C4.971 8.50005 5.08211 8.61117 4.85989 8.38894L4.74878 8.27783C4.74878 8.16672 4.74878 8.27783 4.74878 8.16672C4.971 7.9445 5.19322 7.72228 5.30433 7.50005C5.30433 7.38894 5.30433 7.27783 5.41545 7.27783L5.63767 7.50005C5.74878 7.72228 5.41545 7.50005 5.30433 7.61117C5.19322 7.72228 5.30433 7.72228 5.30433 7.83339C5.63767 8.05561 5.85989 8.16672 6.08211 8.27783Z" fill="black"/>
<path id="Vector_40" d="M6.74876 6.27771C6.74876 6.05548 6.52654 6.27771 6.52654 6.1666C6.52654 6.1666 6.85987 5.72215 6.97098 5.83326V6.05548C6.97098 6.1666 6.97098 6.1666 6.97098 6.27771C6.97098 6.38882 6.97098 6.61104 7.08209 6.72215C7.08209 6.83326 7.19321 6.83326 7.30432 6.94437C7.30432 6.94437 7.41543 7.05548 7.52654 7.05548C7.63765 7.05548 7.63765 7.05548 7.74876 7.05548C7.85987 7.05548 7.52654 7.38882 7.52654 7.38882C7.52654 7.38882 7.41543 7.61104 7.30432 7.49993C7.19321 7.38882 7.30432 7.38882 7.30432 7.38882C6.97098 6.94437 6.30432 6.94437 5.97098 6.94437C5.97098 6.94437 5.85987 7.05548 5.85987 6.94437C5.74876 6.83326 5.97098 6.72215 6.08209 6.61104C6.19321 6.49993 6.19321 6.38882 6.30432 6.38882C6.41543 6.27771 6.30432 6.38882 6.41543 6.49993V6.61104H6.52654C6.63765 6.61104 6.74876 6.61104 6.85987 6.72215C6.85987 6.61104 6.74876 6.38882 6.74876 6.27771Z" fill="black"/>
<path id="Vector_41" d="M9.52655 5.50027C8.97099 5.8336 8.19322 4.50027 8.85988 4.38916C9.30433 4.27805 9.97099 5.16694 9.52655 5.50027ZM9.52655 5.61138C10.3043 5.16694 9.63766 3.94471 8.85988 4.27805C7.85988 4.72249 8.63766 6.16694 9.52655 5.61138Z" fill="black"/>
<path id="Vector_42" d="M10.6377 3.94444C10.6377 4.05556 10.8599 4.05556 10.8599 3.94444V3.72222C10.971 3.72222 11.0822 4.05556 11.0822 4.16667C11.1933 4.27778 10.7488 3.83333 10.8599 4.27778C10.8599 4.38889 10.971 4.61111 11.0822 4.61111H11.1933C11.1933 4.72222 10.971 4.72222 10.971 4.72222C10.971 4.83333 10.5266 5.05556 10.5266 4.94444L10.6377 4.83333C10.6377 4.72222 10.6377 4.72222 10.5266 4.61111C10.5266 4.38889 10.4155 4.05556 10.3044 3.83333C10.3044 3.72222 10.3044 3.72222 10.1933 3.61111C10.1933 3.61111 10.0822 3.72222 10.0822 3.61111C10.0822 3.5 10.5266 3.38889 10.6377 3.27778C10.7488 3.27778 10.8599 3.16667 11.0822 3.38889C11.0822 3.38889 11.1933 3.5 11.1933 3.61111C11.1933 3.72222 11.0822 3.61111 11.0822 3.61111C10.971 3.61111 10.8599 3.5 10.7488 3.61111C10.6377 3.61111 10.6377 3.61111 10.6377 3.72222C10.5266 3.72222 10.6377 3.83333 10.6377 3.94444Z" fill="black"/>
<path id="Vector_43" d="M12.8599 2.94473C12.8599 2.83362 12.8599 2.83362 12.7488 2.72251H12.6377C12.6377 2.61139 13.0821 2.61139 13.0821 2.61139C13.1933 2.61139 13.3044 2.50028 13.3044 2.61139C13.3044 2.61139 13.1933 2.61139 13.1933 2.72251V2.83362C13.1933 3.05584 13.3044 3.27806 13.3044 3.50028C13.3044 3.72251 13.4155 4.05584 13.7488 3.72251L13.8599 3.50028C13.971 3.50028 13.971 3.72251 13.971 3.83362C13.971 3.94473 12.971 4.16695 12.8599 4.05584C12.8599 4.05584 12.971 3.94473 12.971 3.83362C12.971 3.72251 12.971 3.61139 12.971 3.61139C12.971 3.38917 12.8599 3.16695 12.8599 2.94473Z" fill="black"/>
<path id="Vector_44" d="M15.1932 3.72223C14.5265 3.72223 14.5265 2.27778 15.1932 2.38889C15.5265 2.50001 15.7488 3.61112 15.1932 3.72223ZM15.1932 3.72223C16.0821 3.61112 16.0821 2.27778 15.1932 2.27778C14.1932 2.16667 14.0821 3.83334 15.1932 3.72223Z" fill="black"/>
<path id="Vector_45" d="M17.3043 2.61123C17.3043 2.83345 17.1932 2.50012 17.0821 2.50012C16.971 2.38901 16.7488 2.38901 16.7488 2.61123C16.6377 2.83345 17.0821 2.94456 17.3043 3.05568C17.5266 3.38901 17.1932 3.83345 16.7488 3.72234C16.5266 3.72234 16.1932 3.50012 16.4154 3.2779C16.5266 3.16679 16.5266 3.38901 16.5266 3.50012C16.6377 3.61123 16.7488 3.72234 16.971 3.61123C17.4154 3.38901 16.8599 3.16679 16.6377 3.05568C16.3043 2.83345 16.4154 2.38901 16.7488 2.2779C16.8599 2.2779 17.1932 2.16679 17.3043 2.2779C17.3043 2.38901 17.3043 2.50012 17.3043 2.61123Z" fill="black"/>
<path id="Vector_46" d="M19.5266 3.1666C19.5266 3.38882 19.6377 3.72216 19.4155 3.61105C19.0821 3.49993 19.4155 3.27771 19.5266 3.1666ZM19.1933 3.38882C19.0821 3.49993 19.0821 3.61105 18.971 3.61105C18.8599 3.72216 18.8599 3.83327 18.7488 3.83327H18.6377L19.0821 4.05549C19.1933 3.94438 18.971 3.94438 18.971 3.83327C18.971 3.49993 19.4155 3.61105 19.5266 3.83327C19.5266 3.94438 19.5266 4.05549 19.5266 4.1666H19.4155C19.4155 4.27771 19.5266 4.27771 19.6377 4.27771C19.7488 4.27771 20.0821 4.49993 20.0821 4.27771L19.971 4.1666V4.05549C19.971 3.83327 19.971 3.49993 19.971 3.27771C19.971 3.05549 19.971 2.72216 19.7488 2.94438C19.5266 3.05549 19.3044 3.27771 19.1933 3.38882Z" fill="black"/>
<path id="Vector_47" d="M21.86 4.05546C21.9711 3.83324 21.6377 3.61102 22.0822 3.72213C22.0822 3.72213 22.4155 3.83324 22.3044 3.83324C22.3044 3.83324 22.0822 3.83324 22.0822 3.94435C21.9711 4.05546 21.9711 4.27769 21.86 4.27769C21.7488 4.49991 21.6377 4.61102 21.5266 4.83324C21.4155 4.94435 21.4155 5.05546 21.3044 4.94435C21.3044 4.83324 21.3044 4.72213 21.1933 4.61102C21.0822 4.27769 21.0822 3.94435 20.9711 3.61102C21.0822 3.83324 20.9711 3.94435 20.86 4.16658C20.86 4.27769 20.7488 4.27769 20.7488 4.3888C20.7488 4.49991 20.6377 4.49991 20.7488 4.61102L20.86 4.72213L20.4155 4.61102C20.3044 4.49991 20.5266 4.61102 20.5266 4.49991C20.6377 4.3888 20.86 4.05546 20.86 3.83324C20.86 3.72213 20.9711 3.61102 20.9711 3.61102L21.0822 3.49991L20.9711 3.3888C20.9711 3.27769 21.3044 3.3888 21.4155 3.49991C21.5266 3.61102 21.5266 3.83324 21.5266 3.94435C21.5266 4.16657 21.6377 4.3888 21.6377 4.49991L21.86 4.05546Z" fill="black"/>
<path id="Vector_48" d="M22.9711 5.61142C23.0822 5.61142 23.0822 5.50031 23.0822 5.3892L22.9711 5.27809C22.9711 5.16697 23.1933 5.3892 23.1933 5.3892C23.3044 5.3892 23.4155 5.50031 23.5266 5.61142C23.6377 5.83364 23.5266 5.61142 23.4155 5.72253C23.3044 5.83364 23.3044 5.83364 23.1933 5.94475C23.0822 6.05586 22.9711 6.05586 22.7488 5.94475C22.3044 5.72253 22.0822 5.16697 22.4155 4.72253C22.7488 4.3892 23.1933 4.3892 23.5266 4.61142C23.6377 4.72253 23.8599 4.83364 23.7488 4.94475C23.5266 5.27808 23.6377 4.83364 23.6377 4.72253C23.4155 4.16697 22.7488 4.83364 22.6377 5.05586C22.5266 5.16697 22.5266 5.3892 22.6377 5.50031C22.8599 5.94475 22.8599 5.83364 22.9711 5.61142Z" fill="black"/>
<path id="Vector_49" d="M24.5266 6.16673C24.3044 6.38896 24.86 6.38896 24.86 6.38896C24.86 6.38896 24.5266 6.8334 24.5266 6.72229C24.4155 6.72229 24.6378 6.38896 24.4155 6.38896C24.3044 6.38896 24.1933 6.50007 24.0822 6.61118C23.9711 6.72229 23.9711 6.8334 24.0822 6.94451C24.1933 7.05562 24.3044 6.94451 24.4155 7.05562C24.5266 7.05562 24.5266 7.05562 24.4155 7.16673C24.1933 7.27784 24.1933 7.16673 23.9711 6.94451C23.86 6.8334 23.4155 6.50007 23.4155 6.38896C23.4155 6.38896 23.5266 6.38896 23.6378 6.38896C23.7489 6.38896 23.7489 6.27784 23.7489 6.27784C23.9711 6.27784 24.0822 6.05562 24.1933 5.94451C24.3044 5.8334 24.3044 5.8334 24.4155 5.72229C24.5266 5.72229 24.5266 5.61118 24.5266 5.61118C24.5266 5.61118 24.5266 5.50007 24.4155 5.50007C24.5266 5.38896 24.5266 5.50007 24.5266 5.50007C24.7489 5.61118 25.3044 6.05562 25.3044 6.16673C25.3044 6.27784 25.0822 6.38896 25.0822 6.27784C25.0822 6.16673 25.1933 5.8334 24.86 5.8334C24.7489 5.8334 24.5266 6.05562 24.5266 6.16673Z" fill="black"/>
<path id="Vector_50" d="M25.6377 7.05572C25.7488 6.94461 25.7488 6.94461 25.7488 6.94461C25.7488 6.94461 25.6377 6.8335 25.7488 6.8335C25.8599 6.8335 25.971 7.05572 26.0821 7.16683C26.4155 7.50016 26.1933 7.27794 25.8599 7.50016C25.6377 7.61127 25.5266 7.72239 25.3044 7.94461C25.0821 8.05572 24.8599 8.27794 25.3044 8.38905C25.4155 8.38905 25.6377 8.38905 25.6377 8.38905C25.6377 8.27794 25.3044 8.38905 25.3044 8.38905C25.1933 8.38905 24.6377 7.61127 24.6377 7.50016C24.6377 7.50016 24.7488 7.61127 24.7488 7.50016C24.8599 7.50016 24.8599 7.50016 24.971 7.38905L25.0821 7.27794C25.3044 7.27794 25.4155 7.16683 25.6377 7.05572Z" fill="black"/>
<path id="Vector_51" d="M26.5266 8.72237C26.4155 8.83349 26.4155 8.83349 26.5266 8.9446C26.6377 9.05571 26.6377 8.9446 26.7488 9.05571H26.86L26.6377 9.16682C26.1933 9.38904 26.6377 9.05571 26.4155 8.83349C26.1933 8.72237 25.86 9.05571 25.9711 9.27793C26.0822 9.50015 26.3044 9.38904 26.4155 9.50015C26.5266 9.61126 26.3044 9.61126 26.1933 9.61126C25.9711 9.61126 26.0822 9.61126 25.9711 9.38904C25.86 9.16682 25.6377 8.9446 25.5266 8.72237C25.4155 8.50015 25.5266 8.72237 25.7488 8.72237C25.86 8.72237 25.9711 8.61126 25.9711 8.61126C26.1933 8.50015 26.4155 8.50015 26.5266 8.27793C26.6377 8.27793 26.6377 8.16682 26.6377 8.16682V8.05571C26.7488 7.9446 26.9711 8.50015 26.9711 8.50015C26.9711 8.61126 27.1933 8.83349 27.1933 8.83349C27.1933 8.9446 27.0822 8.9446 27.0822 8.9446L26.9711 9.05571C26.86 9.05571 26.9711 8.9446 26.9711 8.9446C26.9711 8.83349 27.0822 8.61126 26.86 8.50015C26.86 8.50015 26.6377 8.72237 26.5266 8.72237Z" fill="black"/>
<path id="Vector_52" d="M27.7489 10.5001C27.5266 10.6112 27.7489 10.389 27.7489 10.2779C27.86 10.1668 27.7489 9.94458 27.6377 9.94458C27.3044 9.94458 27.5266 10.389 27.4155 10.6112C27.3044 10.9446 26.7489 10.9446 26.5266 10.7224C26.4155 10.5001 26.3044 10.0557 26.6377 10.0557C26.7489 10.0557 26.7489 10.0557 26.7489 10.1668C26.6377 10.2779 26.5266 10.389 26.6377 10.6112C26.7489 10.7224 26.9711 10.7224 27.0822 10.5001C27.1933 10.389 27.0822 10.1668 27.0822 10.0557C27.1933 9.61125 27.5266 9.61125 27.86 9.83347C27.9711 9.94458 28.0822 10.1668 27.9711 10.2779C27.9711 10.389 27.7489 10.389 27.7489 10.5001Z" fill="black"/>
</g>
<g id="Group_7">
<path id="Vector_53" d="M25.5265 14.8334C25.5265 14.6112 25.1931 14.2778 24.9709 14.0556C24.7487 13.8334 24.6376 13.7223 24.5265 13.6112C24.1931 13.0556 24.6376 11.9445 24.8598 11.5001C24.9709 11.2778 25.082 11.2778 25.082 11.2778C25.1931 11.2778 25.082 11.3889 24.9709 11.9445C24.8598 12.1667 24.7487 12.5001 24.7487 12.6112C24.6376 13.1667 24.7487 13.2778 24.8598 13.3889C24.9709 13.2778 25.082 13.1667 25.3043 13.1667C25.6376 13.1667 25.8598 13.5001 25.8598 13.9445C25.9709 14.3889 25.7487 14.8334 25.5265 14.8334Z" fill="#31968F"/>
<path id="Vector_54" d="M25.1931 11.3889C25.3043 11.3889 24.8598 12.2778 24.7487 12.6112C24.6376 13.1667 24.7487 13.2778 24.8598 13.5001C24.8598 13.5001 24.8598 13.5001 24.9709 13.5001C25.082 13.3889 25.1931 13.2778 25.4154 13.2778C26.1931 13.3889 25.7487 14.7223 25.5265 14.7223C25.5265 14.3889 24.7487 13.8334 24.5265 13.5001C24.1931 12.9445 24.9709 11.3889 25.1931 11.3889ZM25.1931 11.2778C25.082 11.2778 25.082 11.2778 24.8598 11.5001C24.6376 11.9445 24.1931 13.0556 24.5265 13.6112C24.6376 13.7223 24.7487 13.9445 24.9709 14.0556C25.1931 14.2778 25.5265 14.5001 25.5265 14.7223V14.9445H25.6376C25.8598 14.9445 26.082 14.3889 26.082 14.0556C26.082 13.6112 25.8598 13.2778 25.5265 13.2778C25.3043 13.2778 25.1931 13.3889 25.082 13.5001C24.9709 13.3889 24.9709 13.2778 24.9709 12.7223C24.9709 12.6112 25.082 12.2778 25.1931 12.0556C25.3043 11.6112 25.3043 11.3889 25.1931 11.2778Z" fill="black"/>
</g>
<g id="Group_8">
<path id="Vector_55" d="M5.97097 18.9442C5.85986 18.4998 6.08209 17.8331 6.1932 17.4998C6.08209 17.4998 5.85986 17.3887 5.85986 17.1664C5.85986 16.9442 5.85986 16.8331 6.08209 16.722C6.1932 16.722 6.30431 16.722 6.30431 16.6109C6.30431 16.4998 6.30431 16.3887 6.30431 16.2776H6.1932C6.08209 16.2776 5.97097 16.1664 5.85986 15.9442C5.85986 15.722 5.85986 15.4998 6.08209 15.2776C6.08209 15.0553 5.97097 14.4998 6.1932 14.3887C6.52653 14.4998 6.63764 14.722 6.63764 14.8331C6.63764 15.0553 6.52653 15.2776 6.30431 15.4998C6.30431 15.6109 6.41542 15.8331 6.41542 15.8331C6.52653 15.9442 6.74875 16.1664 6.74875 16.3887C6.74875 16.4998 6.74875 16.6109 6.63764 16.722C6.63764 16.8331 6.52653 16.8331 6.41542 16.9442C6.52653 17.2776 6.63764 17.6109 6.41542 18.1664V18.2776L6.30431 18.1664C6.30431 18.1664 6.1932 18.0553 6.1932 17.9442C6.41542 18.3887 6.1932 18.9442 5.97097 18.9442Z" fill="#31968F"/>
<path id="Vector_56" d="M6.30435 14.6111C6.8599 14.7222 6.74879 15.3889 6.41546 15.5C6.41546 15.6111 6.52657 15.8333 6.63768 15.9444C6.63768 15.9444 6.8599 16.2778 6.97101 16.3889C6.97101 16.6111 6.8599 16.7222 6.63768 16.8333C6.74879 17.2778 6.8599 17.6111 6.74879 18.0556C6.52657 18.0556 6.41546 17.8333 6.41546 17.7222C6.41546 18.1667 6.08212 18.9444 6.08212 18.9444C5.8599 18.3889 6.41546 17.3889 6.41546 17.3889C6.41546 17.5 6.30435 17.5 6.19323 17.5C5.97101 17.5 5.74879 17.0556 6.08212 16.8333C6.19323 16.7222 6.41546 16.8333 6.41546 16.8333C6.30435 16.7222 6.30435 16.5 6.41546 16.3889C6.30435 16.5 6.30435 16.5 6.19323 16.5C5.97101 16.5 5.74879 15.8333 6.19323 15.6111C6.19323 15.5 5.97101 14.8333 6.30435 14.6111ZM6.19323 14.5C5.8599 14.7222 5.97101 15.1667 6.08212 15.5C5.8599 15.7222 5.74879 15.9444 5.8599 16.1667C5.8599 16.3889 6.08212 16.5 6.19323 16.5C6.19323 16.5 6.19323 16.6111 6.19323 16.7222C6.08212 16.7222 6.08212 16.7222 5.97101 16.8333C5.74879 16.9444 5.63768 17.1667 5.74879 17.2778C5.74879 17.5 5.97101 17.6111 6.08212 17.6111C5.97101 17.9444 5.74879 18.6111 5.8599 19.0556L5.97101 19.2778L6.08212 19.0556C6.08212 19.0556 6.30435 18.6111 6.41546 18.1667C6.41546 18.1667 6.41546 18.1667 6.41546 18.2778L6.52657 18.5L6.63768 18.2778C6.74879 17.8333 6.74879 17.5 6.63768 17.0556C6.74879 17.0556 6.74879 16.9444 6.8599 16.8333C6.97101 16.7222 6.97101 16.6111 6.97101 16.5C6.97101 16.3889 6.8599 16.2778 6.74879 16.1667C6.63768 16.0556 6.63768 16.0556 6.63768 15.9444C6.63768 15.9444 6.52657 15.7222 6.52657 15.6111C6.74879 15.5 6.8599 15.1667 6.8599 14.9444C6.74879 14.8333 6.63768 14.6111 6.19323 14.5Z" fill="black"/>
</g>
<g id="Group_9">
<path id="Vector_57" d="M18.7488 12.3891C18.6377 12.3891 18.6377 12.3891 18.6377 12.3891C18.6377 12.3891 18.5266 12.3891 18.4155 12.3891C18.4155 12.3891 18.4155 12.3891 18.3043 12.278C18.3043 12.1669 18.3043 12.1669 18.3043 12.0558C18.3043 12.0558 18.4155 12.0558 18.4155 11.9447C18.5266 11.9447 18.5266 11.8336 18.6377 11.8336C18.6377 11.8336 18.6377 11.7224 18.7488 11.7224C18.7488 11.6113 18.8599 11.5002 18.8599 11.5002C18.7488 11.5002 18.6377 11.5002 18.5266 11.5002H18.4155H18.3043C18.1932 11.5002 18.1932 11.6113 18.0821 11.6113C17.971 11.6113 17.8599 11.6113 17.7488 11.5002C17.6377 11.3891 17.7488 11.1669 17.971 10.9447C18.0821 10.5002 18.3043 10.278 18.6377 10.1669C18.7488 10.1669 18.8599 10.0558 18.971 9.94466C19.1932 9.83355 19.3043 9.72244 19.5266 9.61133C19.5266 9.61133 19.5266 9.61133 19.7488 9.61133C20.0821 9.61133 20.5266 9.72244 20.7488 9.72244C20.8599 9.72244 20.8599 9.72244 20.971 9.72244C21.1932 9.72244 21.5266 9.72244 21.6377 9.94466L21.7488 10.0558C21.7488 10.1669 21.8599 10.1669 21.8599 10.278C21.971 10.5002 21.971 10.5002 21.971 10.5002C22.0821 10.6113 22.1932 10.6113 22.1932 10.8336C22.1932 10.9447 22.1932 10.9447 22.1932 10.9447C22.1932 11.0558 22.1932 11.0558 22.3043 11.1669L22.4155 11.278C22.5266 11.3891 22.5266 11.3891 22.6377 11.5002C22.6377 11.6113 22.6377 12.0558 22.5266 12.1669C22.4155 12.278 22.3043 12.278 22.1932 12.278C21.971 12.278 21.971 12.278 21.8599 12.1669C21.8599 12.0558 21.8599 12.0558 21.8599 11.9447L21.971 11.8336C21.8599 11.8336 21.8599 11.8336 21.7488 11.8336C21.7488 11.8336 21.6377 11.8336 21.5266 11.7224H21.4155C21.3043 11.7224 21.3043 11.8336 21.1932 11.9447C21.1932 12.0558 21.1932 12.1669 21.0821 12.278C20.971 12.3891 20.8599 12.3891 20.7488 12.3891C20.6377 12.3891 20.6377 12.3891 20.5266 12.3891C20.4155 12.3891 20.4155 12.278 20.3043 12.278C20.1932 12.278 20.3043 12.1669 20.4155 12.0558L20.5266 11.9447C20.5266 11.8336 20.5266 11.7224 20.5266 11.6113C20.5266 11.5002 20.4155 11.5002 20.4155 11.3891H20.3043C20.1932 11.5002 20.1932 11.6113 20.3043 11.7224V11.8336C20.3043 11.9447 20.3043 12.0558 20.3043 12.1669C20.3043 12.278 20.1932 12.278 20.0821 12.278C20.0821 12.278 19.971 12.278 19.8599 12.278C19.7488 12.278 19.6377 12.278 19.5266 12.1669V12.0558C19.5266 11.9447 19.6377 11.9447 19.6377 11.9447C19.6377 11.9447 19.6377 11.9447 19.7488 11.9447C19.7488 11.8336 19.7488 11.6113 19.6377 11.6113C19.4155 11.7224 19.1932 11.8335 19.0821 12.0558V12.1669C19.0821 12.278 19.0821 12.3891 18.971 12.3891C18.971 12.3891 18.8599 12.3891 18.7488 12.3891Z" fill="#7C463C"/>
<path id="Vector_58" d="M19.5266 9.72266C19.5266 9.72266 20.4154 9.83377 20.8599 9.94488C21.1932 9.94488 21.5266 9.94488 21.6377 10.1671C21.7488 10.2782 21.7488 10.3893 21.8599 10.5004C21.971 10.6115 22.0821 10.6115 22.1932 10.8338C22.1932 11.056 22.1932 11.1671 22.3043 11.2782C22.4154 11.3893 22.5266 11.3893 22.6377 11.6115C22.6377 11.7227 22.6377 12.1671 22.5266 12.1671C22.4154 12.2782 22.4154 12.2782 22.1932 12.2782C21.7488 12.2782 22.0821 12.056 22.0821 11.8338C21.971 11.8338 21.8599 11.8338 21.8599 11.8338L21.7488 11.7227H21.6377C21.6377 11.7227 21.6377 11.7227 21.5266 11.7227C21.1932 11.7227 21.3043 12.056 21.1932 12.2782C21.0821 12.3893 20.971 12.3893 20.8599 12.3893C20.7488 12.3893 20.7488 12.3893 20.7488 12.3893C20.4154 12.2782 20.7488 12.1671 20.8599 12.056C20.971 11.9449 20.8599 11.5004 20.6377 11.3893C20.6377 11.3893 20.6377 11.3893 20.5266 11.3893C20.3043 11.3893 20.3043 11.7227 20.3043 11.8338C20.3043 12.056 20.5266 12.2782 20.1932 12.2782C20.1932 12.2782 20.0821 12.2782 19.971 12.2782C19.8599 12.2782 19.6377 12.2782 19.6377 12.1671C19.6377 12.056 19.7488 12.056 19.8599 12.056C19.971 11.9449 19.8599 11.7227 19.7488 11.6115C19.5266 11.7227 19.3043 11.9449 19.1932 12.056C19.0821 12.1671 19.1932 12.2782 18.971 12.3893C18.8599 12.3893 18.8599 12.3893 18.7488 12.3893C18.6377 12.3893 18.6377 12.3893 18.6377 12.3893C18.5266 12.3893 18.5266 12.3893 18.4154 12.3893C18.4154 12.3893 18.4154 12.3893 18.4154 12.2782V12.1671C18.5266 12.056 18.6377 12.056 18.7488 11.9449L18.971 11.5004C18.971 11.5004 18.7488 11.3893 18.5266 11.3893H18.4154C18.3043 11.3893 18.1932 11.5004 18.0821 11.5004C17.6377 11.5004 17.8599 11.056 17.971 10.8338C18.1932 10.5004 18.3043 10.3893 18.6377 10.2782C18.8599 10.1671 19.1932 9.72266 19.5266 9.72266ZM19.5266 9.72266C19.1932 9.72266 19.0821 9.94488 18.8599 10.056C18.7488 10.1671 18.6377 10.1671 18.6377 10.2782C18.3043 10.3893 18.1932 10.6115 17.971 10.8338C17.7488 11.1671 17.7488 11.3893 17.7488 11.5004C17.7488 11.6115 17.971 11.6115 18.0821 11.6115C18.1932 11.6115 18.3043 11.6115 18.3043 11.5004H18.4154C18.4154 11.5004 18.4154 11.5004 18.5266 11.5004C18.6377 11.5004 18.6377 11.5004 18.7488 11.5004C18.7488 11.5004 18.7488 11.6115 18.6377 11.7227L18.5266 11.8338L18.4154 11.9449C18.4154 11.9449 18.3043 11.9449 18.3043 12.056C18.1932 12.1671 18.1932 12.2782 18.3043 12.2782C18.3043 12.2782 18.3043 12.3893 18.4154 12.3893C18.5266 12.3893 18.5266 12.3893 18.6377 12.3893H18.7488C18.8599 12.3893 18.971 12.3893 19.0821 12.3893C19.1932 12.2782 19.1932 12.1671 19.3043 12.1671V12.056C19.4154 11.9449 19.6377 11.7227 19.7488 11.7227C19.8599 11.9449 19.8599 11.9449 19.7488 12.056C19.7488 12.056 19.6377 12.1671 19.6377 12.2782C19.6377 12.3893 19.6377 12.3893 19.6377 12.5004C19.7488 12.6115 19.8599 12.6115 19.971 12.6115C20.0821 12.6115 20.0821 12.6115 20.1932 12.6115C20.3043 12.6115 20.4154 12.5004 20.4154 12.5004C20.4154 12.6115 20.5266 12.6115 20.6377 12.6115C20.6377 12.6115 20.7488 12.6115 20.8599 12.6115C20.971 12.6115 21.1932 12.6115 21.3043 12.5004C21.4154 12.3893 21.4154 12.2782 21.4154 12.1671C21.4154 11.9449 21.5266 11.9449 21.5266 11.9449H21.6377C21.6377 11.9449 21.6377 11.9449 21.7488 11.9449C21.8599 12.056 21.8599 12.056 21.971 12.056H22.0821C22.0821 12.056 22.0821 12.056 22.0821 12.1671C22.0821 12.2782 21.971 12.3893 21.971 12.3893C21.971 12.5004 22.1932 12.5004 22.3043 12.5004C22.4154 12.5004 22.6377 12.5004 22.6377 12.2782C22.6377 12.1671 22.7488 11.7227 22.7488 11.6115C22.7488 11.5004 22.6377 11.3893 22.5266 11.3893L22.4154 11.2782C22.3043 11.1671 22.3043 11.1671 22.3043 11.056C22.3043 11.056 22.3043 10.9449 22.3043 10.8338C22.3043 10.6115 22.1932 10.6115 22.0821 10.5004C22.0821 10.5004 21.971 10.5004 21.971 10.3893C21.8599 10.3893 21.8599 10.2782 21.8599 10.1671C21.8599 10.1671 21.8599 10.056 21.7488 10.056C21.5266 9.83377 21.3043 9.83377 21.0821 9.83377C20.971 9.83377 20.971 9.83377 20.8599 9.83377C20.5266 9.83377 20.0821 9.72266 19.8599 9.72266C19.5266 9.72266 19.5266 9.72266 19.5266 9.72266ZM20.4154 12.056V11.9449V11.8338C20.4154 11.7227 20.4154 11.6115 20.4154 11.5004L20.5266 11.6115C20.5266 11.7227 20.5266 11.8338 20.5266 11.9449C20.6377 11.9449 20.5266 11.9449 20.4154 12.056Z" fill="black"/>
</g>
<g id="Group_10">
<path id="Vector_59" d="M17.5265 10.2776C17.7719 10.2776 17.9709 10.0786 17.9709 9.83312C17.9709 9.58766 17.7719 9.38867 17.5265 9.38867C17.281 9.38867 17.082 9.58766 17.082 9.83312C17.082 10.0786 17.281 10.2776 17.5265 10.2776Z" fill="#CF5D57"/>
<path id="Vector_60" d="M17.5265 9.49978C17.7487 9.49978 17.8598 9.61089 17.8598 9.83312C17.8598 10.0553 17.7487 10.1664 17.5265 10.1664C17.3043 10.1664 17.1931 10.0553 17.1931 9.83312C17.1931 9.61089 17.4154 9.49978 17.5265 9.49978ZM17.5265 9.38867C17.3043 9.38867 17.082 9.61089 17.082 9.83312C17.082 10.0553 17.3043 10.2776 17.5265 10.2776C17.7487 10.2776 17.9709 10.0553 17.9709 9.83312C17.9709 9.61089 17.8598 9.38867 17.5265 9.38867Z" fill="black"/>
</g>
<path id="Vector_61" d="M9.19317 8.94444C9.3159 8.94444 9.41539 8.84495 9.41539 8.72222C9.41539 8.59949 9.3159 8.5 9.19317 8.5C9.07044 8.5 8.97095 8.59949 8.97095 8.72222C8.97095 8.84495 9.07044 8.94444 9.19317 8.94444Z" fill="#FFFFFC"/>
<g id="Group_11">
<path id="Vector_62" d="M13.7487 7.1665C13.7487 6.94428 13.971 6.83317 13.8599 6.61095C13.8599 6.61095 13.8599 6.49984 13.7487 6.49984C13.6376 6.49984 13.5265 6.38873 13.5265 6.38873C13.5265 6.27762 13.6376 6.27762 13.7487 6.05539C13.7487 6.05539 13.6376 5.94428 13.6376 5.83317C13.6376 5.72206 13.6376 5.61095 13.6376 5.49984C13.1932 5.72206 12.5265 5.94428 12.4154 5.94428C12.4154 5.83317 12.4154 5.83317 13.8599 5.27762H13.971C14.0821 5.27762 14.1932 5.1665 14.3043 5.1665C14.4154 5.1665 14.6376 5.1665 14.7487 5.38873C14.8599 5.38873 14.971 5.27762 15.0821 5.27762C15.1932 5.27762 15.3043 5.27762 15.4154 5.38873C15.5265 5.49984 15.5265 5.61095 15.5265 5.72206C15.3043 5.94428 15.1932 6.05539 15.0821 6.05539C14.971 6.05539 14.8599 6.1665 14.8599 6.1665C14.8599 6.27762 14.8599 6.27762 14.7487 6.38873C14.7487 6.49984 14.7487 6.49984 14.6376 6.61095L14.5265 6.72206H14.4154H14.3043C14.1932 6.72206 14.1932 6.83317 14.0821 6.83317C13.971 7.05539 13.8599 7.1665 13.7487 7.1665Z" fill="#299790"/>
<path id="Vector_63" d="M14.1932 5.27762C14.4154 5.27762 14.5265 5.38873 14.6377 5.49984C14.7488 5.49984 14.8599 5.38873 14.971 5.38873C15.0821 5.38873 15.1932 5.38873 15.3043 5.49984C15.3043 5.61095 15.3043 5.72206 15.3043 5.72206C15.3043 5.94428 14.8599 5.94428 14.7488 6.1665C14.6377 6.27762 14.7488 6.49984 14.6377 6.61095L14.5265 6.72206C14.4154 6.72206 14.4154 6.72206 14.3043 6.72206C14.3043 6.72206 14.3043 6.72206 14.1932 6.72206C14.0821 6.72206 14.0821 6.83317 13.971 6.94428C13.8599 7.05539 13.7488 7.1665 13.6377 7.1665C13.6377 7.1665 14.0821 6.72206 13.7488 6.61095C13.6377 6.61095 13.6377 6.61095 13.5265 6.49984C13.5265 6.38873 13.6377 6.27762 13.7488 6.27762C13.7488 6.27762 13.7488 6.27762 13.7488 6.1665C13.7488 6.1665 13.6377 6.05539 13.6377 5.94428C13.6377 5.83317 13.6377 5.61095 13.6377 5.61095C13.4154 5.72206 12.5265 6.05539 12.5265 6.05539L13.971 5.38873C13.971 5.27762 14.0821 5.27762 14.1932 5.27762ZM14.1932 5.1665C14.0821 5.1665 13.971 5.1665 13.8599 5.27762C13.8599 5.27762 13.8599 5.27762 13.7488 5.27762C13.6377 5.38873 13.3043 5.49984 12.971 5.61095C12.7488 5.72206 12.6377 5.72206 12.5265 5.83317C12.4154 5.83317 12.4154 5.83317 12.4154 5.94428L12.3043 6.05539V6.1665H12.4154C12.5265 6.1665 13.1932 5.94428 13.6377 5.72206C13.6377 5.83317 13.6377 5.94428 13.6377 5.94428C13.6377 6.05539 13.7488 6.05539 13.7488 6.1665C13.6377 6.27762 13.5265 6.38873 13.5265 6.49984C13.5265 6.61095 13.6377 6.61095 13.7488 6.72206C13.7488 6.83317 13.6377 6.94428 13.5265 7.05539V7.1665H13.6377C13.7488 7.1665 13.8599 7.05539 13.971 6.83317C14.1932 6.83317 14.1932 6.83317 14.3043 6.72206C14.3043 6.72206 14.3043 6.72206 14.4154 6.72206H14.5265C14.6377 6.72206 14.6377 6.72206 14.7488 6.61095C14.8599 6.49984 14.8599 6.38873 14.8599 6.38873C14.8599 6.27762 14.8599 6.27762 14.8599 6.1665C14.8599 6.1665 14.971 6.05539 15.0821 6.05539C15.1932 5.94428 15.4154 5.94428 15.4154 5.72206C15.5265 5.61095 15.4154 5.38873 15.3043 5.27762C15.1932 5.1665 15.0821 5.1665 14.971 5.1665C14.8599 5.1665 14.7488 5.1665 14.7488 5.1665C14.5265 5.27762 14.3043 5.1665 14.1932 5.1665Z" fill="black"/>
</g>
<path id="Vector_64" d="M8.63763 9.61095C8.76036 9.61095 8.85985 9.51146 8.85985 9.38873C8.85985 9.266 8.76036 9.1665 8.63763 9.1665C8.5149 9.1665 8.41541 9.266 8.41541 9.38873C8.41541 9.51146 8.5149 9.61095 8.63763 9.61095Z" fill="#FFFFFC"/>
<path id="Vector_65" d="M9.63763 9.61095C9.76036 9.61095 9.85985 9.51146 9.85985 9.38873C9.85985 9.266 9.76036 9.1665 9.63763 9.1665C9.5149 9.1665 9.41541 9.266 9.41541 9.38873C9.41541 9.51146 9.5149 9.61095 9.63763 9.61095Z" fill="#FFFFFC"/>
<path id="Vector_66" d="M10.6376 9.61095C10.7604 9.61095 10.8598 9.51146 10.8598 9.38873C10.8598 9.266 10.7604 9.1665 10.6376 9.1665C10.5149 9.1665 10.4154 9.266 10.4154 9.38873C10.4154 9.51146 10.5149 9.61095 10.6376 9.61095Z" fill="#FFFFFC"/>
<path id="Vector_67" d="M11.6376 9.61095C11.7604 9.61095 11.8598 9.51146 11.8598 9.38873C11.8598 9.266 11.7604 9.1665 11.6376 9.1665C11.5149 9.1665 11.4154 9.266 11.4154 9.38873C11.4154 9.51146 11.5149 9.61095 11.6376 9.61095Z" fill="#FFFFFC"/>
<path id="Vector_68" d="M12.6376 9.61095C12.7604 9.61095 12.8599 9.51146 12.8599 9.38873C12.8599 9.266 12.7604 9.1665 12.6376 9.1665C12.5149 9.1665 12.4154 9.266 12.4154 9.38873C12.4154 9.51146 12.5149 9.61095 12.6376 9.61095Z" fill="#FFFFFC"/>
<path id="Vector_69" d="M13.5265 9.61095C13.6493 9.61095 13.7488 9.51146 13.7488 9.38873C13.7488 9.266 13.6493 9.1665 13.5265 9.1665C13.4038 9.1665 13.3043 9.266 13.3043 9.38873C13.3043 9.51146 13.4038 9.61095 13.5265 9.61095Z" fill="#FFFFFC"/>
<path id="Vector_70" d="M14.5265 9.61095C14.6493 9.61095 14.7488 9.51146 14.7488 9.38873C14.7488 9.266 14.6493 9.1665 14.5265 9.1665C14.4038 9.1665 14.3043 9.266 14.3043 9.38873C14.3043 9.51146 14.4038 9.61095 14.5265 9.61095Z" fill="#FFFFFC"/>
<path id="Vector_71" d="M10.1932 8.94444C10.3159 8.94444 10.4154 8.84495 10.4154 8.72222C10.4154 8.59949 10.3159 8.5 10.1932 8.5C10.0704 8.5 9.97095 8.59949 9.97095 8.72222C9.97095 8.84495 10.0704 8.94444 10.1932 8.94444Z" fill="#FFFFFC"/>
<path id="Vector_72" d="M11.1932 8.94444C11.3159 8.94444 11.4154 8.84495 11.4154 8.72222C11.4154 8.59949 11.3159 8.5 11.1932 8.5C11.0704 8.5 10.9709 8.59949 10.9709 8.72222C10.9709 8.84495 11.0704 8.94444 11.1932 8.94444Z" fill="#FFFFFC"/>
<path id="Vector_73" d="M12.0821 8.94444C12.2048 8.94444 12.3043 8.84495 12.3043 8.72222C12.3043 8.59949 12.2048 8.5 12.0821 8.5C11.9594 8.5 11.8599 8.59949 11.8599 8.72222C11.8599 8.84495 11.9594 8.94444 12.0821 8.94444Z" fill="#FFFFFC"/>
<path id="Vector_74" d="M13.0821 8.94444C13.2048 8.94444 13.3043 8.84495 13.3043 8.72222C13.3043 8.59949 13.2048 8.5 13.0821 8.5C12.9594 8.5 12.8599 8.59949 12.8599 8.72222C12.8599 8.84495 12.9594 8.94444 13.0821 8.94444Z" fill="#FFFFFC"/>
<path id="Vector_75" d="M14.0821 8.94444C14.2048 8.94444 14.3043 8.84495 14.3043 8.72222C14.3043 8.59949 14.2048 8.5 14.0821 8.5C13.9594 8.5 13.8599 8.59949 13.8599 8.72222C13.8599 8.84495 13.9594 8.94444 14.0821 8.94444Z" fill="#FFFFFC"/>
<g id="Group_12">
<path id="Vector_76" d="M24.5266 18.6114C24.5266 18.6114 24.5266 17.5003 24.6377 16.9447C24.5266 16.9447 24.4155 17.0558 24.3043 17.0558H24.1932V16.9447C24.1932 16.9447 24.1932 16.3892 24.5266 16.3892C24.6377 16.3892 24.7488 16.3892 24.7488 16.5003H24.8599H24.971C25.0821 16.5003 25.4155 16.7225 25.4155 16.7225C25.4155 16.7225 25.3043 16.9447 25.0821 16.9447C24.971 16.9447 24.971 16.9447 24.8599 16.9447C24.8599 17.278 24.7488 17.8336 24.6377 17.9447C24.971 18.0558 24.6377 18.6114 24.5266 18.6114Z" fill="#29928B"/>
<path id="Vector_77" d="M24.6377 16.3889C24.7488 16.3889 24.7488 16.3889 24.8599 16.5001C24.8599 16.5001 24.8599 16.5001 24.971 16.5001C25.0821 16.5001 25.1932 16.3889 25.3043 16.3889C25.4155 16.3889 25.7488 16.6112 25.7488 16.6112C25.7488 16.6112 25.6377 16.7223 25.4155 16.7223C25.3043 16.7223 25.3043 16.7223 25.1932 16.6112C25.1932 16.9445 25.0821 17.5001 24.971 17.7223C24.8599 17.9445 24.5266 18.5001 24.5266 18.5001C24.5266 18.5001 24.5266 17.3889 24.6377 16.7223C24.5266 16.8334 24.3043 16.8334 24.3043 16.8334C24.3043 16.8334 24.4155 16.3889 24.6377 16.3889ZM24.6377 16.2778C24.3043 16.2778 24.3043 16.8334 24.1932 16.8334V16.9445H24.3043C24.3043 16.9445 24.4155 16.9445 24.5266 16.9445C24.4155 17.6112 24.4155 18.5001 24.4155 18.6112V18.9445L24.6377 18.6112C24.6377 18.5001 24.971 18.0556 25.0821 17.8334C25.0821 17.7223 25.3043 17.2778 25.3043 16.9445H25.4155C25.6377 16.9445 25.7488 16.7223 25.7488 16.7223L25.8599 16.6112L25.7488 16.5001C25.7488 16.5001 25.4155 16.2778 25.3043 16.2778C25.1932 16.2778 25.1932 16.2778 25.0821 16.2778H24.971C24.8599 16.3889 24.7488 16.2778 24.6377 16.2778Z" fill="black"/>
</g>
<g id="Group_13">
<path id="Vector_78" d="M25.0821 16.3888C24.7487 16.3888 24.4154 16.1666 24.4154 15.8333C24.4154 15.6111 24.4154 15.2777 24.7487 15.0555C24.5265 14.9444 24.4154 14.8333 24.4154 14.4999C24.4154 14.2777 24.5265 13.9444 24.7487 13.7222L24.8598 13.8333C25.1932 14.1666 25.6376 14.4999 25.5265 14.7222C25.5265 14.8333 25.4154 14.8333 25.3043 14.9444C25.6376 15.0555 25.7487 15.3888 25.7487 15.7222C25.6376 16.0555 25.4154 16.3888 25.0821 16.3888Z" fill="#E9DA74"/>
<path id="Vector_79" d="M24.6377 13.9444C24.7488 14.0555 25.5266 14.6111 25.4155 14.8333C25.3043 14.9444 25.1932 15.0555 25.0821 15.0555C25.8599 15.1666 25.7488 16.3888 24.971 16.3888C24.1932 16.3888 24.0821 15.2777 24.7488 15.1666C24.1932 14.9444 24.1932 14.1666 24.6377 13.9444ZM24.6377 13.7222C24.3043 13.9444 24.1932 14.1666 24.1932 14.4999C24.1932 14.7222 24.3043 14.9444 24.5266 15.0555C24.3043 15.2777 24.1932 15.4999 24.3043 15.8333C24.4155 16.1666 24.6377 16.4999 25.0821 16.4999C25.5266 16.4999 25.7488 16.1666 25.8599 15.8333C25.8599 15.4999 25.7488 15.2777 25.5266 15.0555C25.6377 15.0555 25.6377 14.9444 25.6377 14.8333C25.6377 14.6111 25.3043 14.3888 24.8599 13.9444C24.7488 13.8333 24.7488 13.8333 24.6377 13.7222Z" fill="black"/>
</g>
<g id="Group_14">
<path id="Vector_80" d="M18.1932 7.38911C17.971 7.38911 17.971 7.27799 17.8599 7.16688L17.7488 7.05577C17.6376 7.05577 17.5265 7.05577 17.4154 7.05577C17.3043 7.05577 17.3043 7.05577 17.3043 7.05577C17.1932 7.05577 17.1932 6.94466 17.1932 6.94466C17.1932 6.83355 17.1932 6.83355 17.3043 6.72244V6.61133L17.1932 6.50022C16.971 6.278 16.971 6.16688 16.971 6.16688C16.971 6.05577 17.0821 5.83355 17.1932 5.83355C17.0821 5.83355 16.8599 5.83355 16.7488 5.83355C16.3043 5.83355 15.971 5.83355 15.8599 5.61133C15.8599 5.61133 18.3043 5.61133 18.5265 5.83355L18.6376 5.94466C18.6376 6.05577 18.5265 6.38911 18.4154 6.50022C18.4154 6.50022 18.4154 6.61133 18.5265 6.61133C18.6376 6.72244 18.7488 6.83355 18.6376 6.94466C18.6376 6.94466 18.5265 7.05577 18.4154 7.05577C18.4154 7.05577 18.4154 7.05577 18.3043 7.05577C18.3043 7.05577 18.3043 7.05577 18.3043 7.16688C18.1932 7.16688 18.1932 7.16688 18.1932 7.38911Z" fill="#299790"/>
<path id="Vector_81" d="M15.8599 5.61111C15.971 5.61111 18.3043 5.72222 18.4154 5.83333L18.5266 5.94444C18.5266 6.05556 18.4154 6.38889 18.3043 6.5C18.3043 6.61111 18.6377 6.83333 18.5266 6.94444C18.5266 6.94444 18.3043 7.05556 18.1932 7.05556C18.0821 7.16667 18.1932 7.27778 18.1932 7.38889C17.971 7.38889 17.8599 7.16667 17.7488 7.05556C17.7488 7.05556 17.5266 7.05556 17.4154 7.05556H17.3043C17.1932 7.05556 17.1932 6.94444 17.1932 6.94444C17.1932 6.83333 17.3043 6.72222 17.3043 6.72222L16.8599 6.27778C16.8599 6.05556 17.1932 5.94444 17.1932 5.94444C16.971 5.72222 15.8599 5.72222 15.8599 5.61111C15.7488 5.61111 15.7488 5.61111 15.8599 5.61111ZM15.8599 5.5C15.7488 5.5 15.7488 5.5 15.8599 5.5L15.7488 5.61111C15.8599 5.83333 16.1932 5.83333 16.6377 5.83333C16.7488 5.83333 16.8599 5.83333 16.971 5.83333C16.8599 5.94444 16.7488 6.05556 16.8599 6.16667C16.8599 6.16667 16.8599 6.27778 17.0821 6.5L17.1932 6.61111C17.1932 6.72222 17.0821 6.72222 17.0821 6.83333C17.0821 6.94444 17.0821 6.94444 17.1932 7.05556H17.3043C17.4154 7.05556 17.5266 7.05556 17.6377 7.05556L17.7488 7.16667C17.8599 7.27778 17.971 7.38889 18.0821 7.38889H18.1932V7.27778C18.1932 7.16667 18.1932 7.05556 18.1932 7.05556C18.3043 7.05556 18.4154 6.94444 18.4154 6.94444C18.5266 6.83333 18.4154 6.72222 18.3043 6.5C18.3043 6.5 18.3043 6.5 18.3043 6.38889C18.5266 6.27778 18.6377 6.05556 18.5266 5.83333C18.5266 5.83333 18.5266 5.72222 18.4154 5.61111C18.4154 5.61111 18.3043 5.5 17.0821 5.5C16.5266 5.5 15.8599 5.5 15.8599 5.5Z" fill="black"/>
</g>
<g id="Group_15">
<path id="Vector_82" d="M16.1932 7.50043C16.0821 7.50043 15.9709 7.38932 15.9709 7.38932C15.8598 7.50043 15.8598 7.50043 15.7487 7.50043H15.6376C15.5265 7.50043 15.4154 7.38932 15.5265 7.27821C15.5265 7.1671 15.6376 7.1671 15.6376 7.05599C15.6376 7.05599 15.5265 7.05599 15.5265 6.94488C15.4154 7.05599 15.4154 7.05599 15.3043 7.05599C15.1932 7.05599 15.0821 6.94488 15.0821 6.83377C15.0821 6.72266 15.0821 6.72266 15.0821 6.61155C14.9709 6.61155 14.9709 6.50043 14.9709 6.38932C14.9709 6.27821 14.9709 6.1671 15.1932 6.05599C15.1932 6.1671 15.3043 6.05599 15.3043 6.05599C15.3043 5.94488 15.3043 5.94488 15.4154 5.94488L15.5265 5.83377C15.5265 5.83377 15.5265 5.72266 15.6376 5.72266H15.7487H15.8598C15.9709 5.72266 15.9709 5.83377 16.0821 5.83377C16.1932 5.83377 16.3043 5.94488 16.4154 6.05599C16.5265 6.05599 16.5265 6.05599 16.5265 6.1671C16.5265 6.1671 16.6376 6.27821 16.6376 6.38932C16.6376 6.50043 16.5265 6.61155 16.4154 6.61155C16.4154 6.61155 16.5265 6.72266 16.5265 6.83377C16.5265 6.94488 16.5265 6.94488 16.4154 7.05599L16.3043 7.1671C16.3043 7.1671 16.3043 7.1671 16.3043 7.27821C16.3043 7.38932 16.3043 7.50043 16.1932 7.50043C16.3043 7.50043 16.3043 7.50043 16.1932 7.50043Z" fill="#324968"/>
<path id="Vector_83" d="M15.6377 5.72244C15.7488 5.72244 15.7488 5.72244 15.6377 5.72244C15.7488 5.72244 15.7488 5.72244 15.7488 5.72244H15.8599C15.971 5.72244 15.971 5.83355 16.0821 5.83355C16.1932 5.83355 16.3043 5.94466 16.3043 6.05577C16.4154 6.05577 16.5266 6.16688 16.5266 6.27799C16.5266 6.38911 16.4154 6.50022 16.3043 6.50022C16.3043 6.50022 16.3043 6.50022 16.1932 6.50022C16.0821 6.50022 16.1932 6.50022 16.0821 6.50022C16.1932 6.50022 16.1932 6.61133 16.1932 6.72244C16.1932 6.83355 16.0821 6.94466 15.971 6.94466C15.971 6.94466 15.971 6.94466 15.8599 6.94466L15.971 7.05577C15.971 7.16688 15.971 7.27799 15.971 7.27799H15.8599C15.7488 7.27799 15.6377 7.16688 15.6377 7.05577C15.6377 7.16688 15.5266 7.27799 15.4154 7.27799C15.4154 7.27799 15.4154 7.27799 15.3043 7.27799C15.1932 7.27799 15.1932 7.16688 15.1932 7.05577C15.1932 6.94466 15.3043 6.94466 15.4154 6.83355C15.3043 6.83355 15.3043 6.83355 15.1932 6.72244C15.1932 6.72244 15.1932 6.72244 15.1932 6.61133C15.0821 6.72244 15.0821 6.72244 14.971 6.83355C14.8599 6.83355 14.8599 6.72244 14.8599 6.72244C14.8599 6.61133 14.8599 6.61133 14.971 6.50022C14.8599 6.50022 14.8599 6.38911 14.7488 6.27799C14.7488 6.16688 14.7488 6.05577 14.8599 5.94466C14.971 5.94466 14.971 5.83355 15.0821 5.83355C15.0821 5.72244 15.0821 5.72244 15.1932 5.72244L15.3043 5.61133C15.5266 5.83355 15.6377 5.72244 15.6377 5.72244ZM15.6377 5.61133C15.5266 5.61133 15.4154 5.72244 15.4154 5.72244C15.4154 5.72244 15.3043 5.72244 15.3043 5.83355C15.3043 5.94466 15.3043 5.94466 15.3043 6.05577C15.1932 6.05577 15.1932 6.05577 15.0821 6.16688C14.971 6.27799 14.8599 6.38911 14.8599 6.50022C14.8599 6.61133 14.971 6.61133 14.971 6.72244V6.83355C14.971 6.94466 15.0821 7.05577 15.1932 7.05577C15.1932 7.05577 15.1932 7.05577 15.3043 7.05577C15.3043 7.05577 15.4154 7.05577 15.5266 6.94466C15.5266 6.94466 15.4154 7.05577 15.4154 7.16688C15.4154 7.27799 15.4154 7.38911 15.6377 7.50022H15.7488C15.8599 7.50022 15.971 7.50022 15.971 7.38911C16.0821 7.50022 16.0821 7.50022 16.1932 7.50022H16.3043C16.4154 7.50022 16.4154 7.38911 16.4154 7.16688C16.4154 7.16688 16.5266 7.16688 16.5266 7.05577C16.6377 6.94466 16.6377 6.94466 16.6377 6.83355V6.72244C16.7488 6.72244 16.8599 6.61133 16.8599 6.38911C16.8599 6.278 16.8599 6.16688 16.7488 6.16688C16.7488 6.05577 16.6377 6.05577 16.5266 6.05577C16.4154 5.94466 16.3043 5.94466 16.1932 5.83355C16.1932 5.72244 16.0821 5.72244 15.971 5.72244H15.8599C15.7488 5.72244 15.7488 5.61133 15.6377 5.61133Z" fill="black"/>
</g>
</g>
<defs>
<clipPath id="clip0_319_9467">
<rect width="30" height="30" fill="white" transform="translate(0.859863 0.5)"/>
</clipPath>
</defs>
</svg>
