<svg width="135" height="87" viewBox="0 0 135 87" fill="none" xmlns="http://www.w3.org/2000/svg">
<g id="Traced Image" clip-path="url(#clip0_319_10018)">
<path id="Vector" fill-rule="evenodd" clip-rule="evenodd" d="M64.6795 3.2082C64.2597 3.50168 64.0958 3.88376 64.0911 4.58022C64.0791 6.37063 67.0941 29.2388 67.2788 28.7579C67.6542 27.78 70.4066 4.70095 70.231 4.00266C70.1258 3.58374 69.7856 3.18521 69.4126 3.04356C68.3579 2.6432 65.3369 2.74825 64.6795 3.2082ZM78.7113 10.8374C78.4995 11.089 76.9569 14.5875 75.2835 18.6121C73.6101 22.6367 72.056 26.3706 71.8299 26.9095C71.6038 27.4486 71.4669 27.8895 71.5258 27.8895C71.6823 27.8895 82.2816 14.0103 82.6378 13.3389C83.0971 12.4728 82.7577 11.9948 81.084 11.1512C79.292 10.2481 79.2164 10.2379 78.7113 10.8374ZM53.0259 12.7263C52.0795 13.3255 51.7969 13.6601 51.7969 14.1801C51.7969 14.6563 53.4358 17.0099 57.3453 22.148C60.397 26.1584 62.9296 29.4042 62.9733 29.3606C63.122 29.2124 56.1903 12.8651 55.7842 12.4054C55.2034 11.7484 54.4277 11.8385 53.0259 12.7263ZM88.136 17.0626C87.4665 17.2686 86.3351 17.8778 85.6219 18.4166C84.1375 19.538 66.9899 39.3143 66.9818 39.9141C66.9779 40.2191 70.4608 47.6588 70.7367 47.934C70.7699 47.9671 71.3708 47.7045 72.072 47.3501C73.4162 46.6704 75.2979 46.4995 76.4832 46.9495C78.2962 47.6379 80.0465 50.0798 80.0552 51.9324C80.0672 54.4653 78.3176 56.8664 76.0441 57.4382L74.9061 57.7241L75.1176 58.8136C75.2338 59.4129 75.3338 61.1006 75.34 62.5643C75.35 64.8648 75.4136 65.2443 75.8096 65.3658C76.0613 65.4432 85.5709 67.9886 96.9418 71.0222C108.312 74.056 117.657 76.5795 117.708 76.6302C117.758 76.6806 117.486 77.7855 117.103 79.0857C116.286 81.8574 116.207 82.9095 116.773 83.4745C117.246 83.947 125.307 86.1579 126.577 86.1637C127.17 86.1663 127.534 85.9917 127.798 85.5793C128.125 85.0684 134.135 62.9908 134.3 61.6938C134.334 61.4277 134.427 66.6782 134.507 73.3619L134.653 85.514L134.63 72.0552L134.606 58.5964L131.919 44.615C130.441 36.9252 129.01 30.1336 128.74 29.5226C128.095 28.0664 125.915 25.785 124.501 25.0864C123.883 24.7815 116.471 22.759 108.031 20.592C91.6661 16.3905 90.8144 16.2394 88.136 17.0626ZM90.0078 25.0728C89.1243 25.5435 87.2459 27.5239 82.4873 33.0015C78.9986 37.0174 76.1427 40.3777 76.1406 40.4689C76.1386 40.5604 77.048 40.8823 78.1622 41.1847C94.5515 45.6334 126.412 54.0827 126.489 54.0003C126.649 53.8271 123.313 36.3278 122.859 34.9631C122.381 33.5257 121.447 32.5374 119.992 31.9305C118.08 31.133 94.3393 24.7336 92.7559 24.5889C91.4284 24.4676 91.0034 24.5423 90.0078 25.0728ZM18.5246 28.2948C16.994 28.77 15.0157 30.1012 14.078 31.2869C13.3192 32.246 1.88135 55.9755 1.17157 58.0623C0.820344 59.0956 0.761719 61.2056 0.761719 72.8168V86.3652L1.51023 86.6749C2.02268 86.8868 3.80394 86.9587 7.15865 86.9025C11.6542 86.8275 12.0894 86.7789 12.4297 86.3134C12.7003 85.9434 12.8008 84.9707 12.8008 82.7201V79.634H36.5952H60.3899L60.477 82.7938C60.5985 87.1886 60.3148 87.006 66.8538 86.9012C70.626 86.8405 71.9775 86.7318 72.3023 86.4621C72.6936 86.1373 72.7344 84.8578 72.7344 72.9628C72.7344 59.8728 72.732 59.8156 72.1225 58.0335C71.7856 57.0496 68.9298 50.8348 65.7758 44.223C60.5364 33.2398 59.9227 32.0819 58.6717 30.8173C57.9028 30.0398 56.6408 29.1233 55.7928 28.7266L54.2832 28.0202L37.0098 27.9695C22.6074 27.9269 19.5348 27.981 18.5246 28.2948ZM21.9706 35.5054C20.7138 35.877 19.6835 36.6612 18.9779 37.7829C18.126 39.1377 10.707 54.5664 10.707 54.9832C10.707 55.2686 15.2764 55.3298 36.6172 55.3298C51.9487 55.3298 62.5273 55.2331 62.5273 55.0927C62.5273 54.5186 54.9058 38.6469 54.1152 37.5749C52.4033 35.2529 53.0869 35.3444 37.0098 35.2877C27.9687 35.2555 22.5503 35.3342 21.9706 35.5054ZM120.083 59.761C118.105 60.3594 116.734 62.2507 116.522 64.6725C116.246 67.836 118.764 70.6093 121.914 70.6093C126.665 70.6093 129.183 64.9884 126.034 61.4076C124.611 59.7889 122.197 59.1212 120.083 59.761ZM10.0527 61.7176C6.91054 62.8742 5.63283 66.7859 7.40859 69.8117C10.215 74.5933 17.5963 72.4321 17.5963 66.8285C17.5963 64.7451 16.4682 62.9414 14.5433 61.9475C13.4357 61.3757 11.2812 61.2655 10.0527 61.7176ZM59.2886 61.7244C56.0262 62.8855 54.6711 67.1926 56.6727 70.039C59.5827 74.1781 66.1775 72.5805 66.6549 67.6209C66.8428 65.6679 66.5442 64.6534 65.3992 63.3543C63.7969 61.5367 61.521 60.9296 59.2886 61.7244Z" fill="#052942"/>
</g>
<defs>
<clipPath id="clip0_319_10018">
<rect width="134" height="87" fill="white" transform="translate(0.5)"/>
</clipPath>
</defs>
</svg>
